{
classes = (
{
automatic = 1;
code = "A Aacute Abreve Acircumflex Adieresis Agrave Amacron Aogonek Aring Atilde AE B C Cacute Ccaron Ccedilla Cdotaccent D Eth Dcaron Dcroat E Eacute Ecaron Ecircumflex Edieresis Edotaccent Egrave Emacron Eogonek F G Gbreve Gcommaaccent Gdotaccent H Hbar I IJ Iacute Icircumflex Idieresis Idotaccent Igrave Imacron Iogonek J K Kcommaaccent L Lacute Lcaron Lcommaaccent Ldot Lslash M N Nacute Ncaron Ncommaaccent Eng Ntilde O Oacute Ocircumflex Odieresis Ograve Ohungarumlaut Omacron Oslash Otilde OE P Thorn Q R Racute Rcaron Rcommaaccent S Sacute Scaron Scedilla Scommaaccent T Tbar Tcaron Tcedilla Tcommaaccent U Uacute Ucircumflex Udieresis Ugrave Uhungarumlaut Umacron Uogonek Uring V W Wacute Wcircumflex Wdieresis Wgrave X Y Yacute Ycircumflex Ydieresis Ygrave Z Zacute Zcaron Zdotaccent A.ss01 E.ss01 M.ss01 N.ss01 Q.ss01 R.ss01 U.ss01 W.ss01";
name = Uppercase;
}
);
copyright = "Copyright \U00A9 2013 by Andrew Paglinawan. All rights reserved.";
customParameters = (
{
name = description;
value = "Copyright \U00A9 2013 by Andrew Paglinawan. All rights reserved.";
},
{
name = vendorID;
value = AP;
},
{
name = licenseURL;
value = "http://scripts.sil.org/OFL_web";
}
);
date = "2013-10-26 16:10:21 +0000";
designer = "Andrew Paglinawan";
designerURL = www.andrewpaglinawan.com;
familyName = "Quicksand Pro";
featurePrefixes = (
{
automatic = 1;
code = "languagesystem DFLT dflt;\012languagesystem grek dflt;\012languagesystem latn dflt;\012languagesystem latn CAT;\012languagesystem latn ROM;\012languagesystem latn MOL;\012languagesystem latn TRK;\012";
name = Languagesystems;
}
);
features = (
{
automatic = 1;
code = "feature locl;\012feature sups;\012feature frac;\012feature ordn;\012feature case;\012feature salt;\012feature ss01;\012";
name = aalt;
},
{
automatic = 1;

glyphs = (
{
glyphname = A;
lastChange = "2013-12-18 08:31:49 +0400";
layers = (
{
anchors = (
{
name = ogonek;
position = "{513, 10}";
},
{
name = top;
position = "{281, 700}";
}
);
layerId = "6A4EEAE7-E2C6-4FA4-83F5-ABDB5FD8E17B";
name = Light;
paths = (
{
closed = 1;
nodes = (
"299 689 LINE SMOOTH",
"296 698 OFFCURVE",
"288 703 OFFCURVE",
"279 702 CURVE",
"271 703 OFFCURVE",
"263 698 OFFCURVE",
"260 689 CURVE SMOOTH",
"11 27 LINE SMOOTH",
"7 16 OFFCURVE",
"12 5 OFFCURVE",
"23 1 CURVE SMOOTH",
"34 -3 OFFCURVE",
"45 2 OFFCURVE",
"49 13 CURVE SMOOTH",
"111 177 LINE",
"448 177 LINE",
"510 13 LINE SMOOTH",
"514 2 OFFCURVE",
"525 -3 OFFCURVE",
"536 1 CURVE SMOOTH",
"547 5 OFFCURVE",
"552 16 OFFCURVE",
"548 27 CURVE SMOOTH"
);
},
{
closed = 1;
nodes = (
"126 217 LINE",
"279 626 LINE",
"433 217 LINE"
);
}
);
width = 559.368;
}
);
leftKerningGroup = A;
rightKerningGroup = dollar;
unicode = 0041;
},
{
glyphname = AE;
lastChange = "2013-12-18 08:31:49 +0400";
layers = (
{
layerId = "6A4EEAE7-E2C6-4FA4-83F5-ABDB5FD8E17B";
name = Light;
paths = (
{
closed = 1;
nodes = (
"519 40 LINE SMOOTH",
"516 40 OFFCURVE",
"514 42 OFFCURVE",
"514 45 CURVE SMOOTH",
"514 286 LINE SMOOTH",
"514 289 OFFCURVE",
"516 291 OFFCURVE",
"519 291 CURVE SMOOTH",
"816 291 LINE SMOOTH",
"827 291 OFFCURVE",
"836 299 OFFCURVE",
"836 311 CURVE SMOOTH",
"836 322 OFFCURVE",
"827 331 OFFCURVE",
"816 331 CURVE SMOOTH",
"519 331 LINE SMOOTH",
"516 331 OFFCURVE",
"514 333 OFFCURVE",
"514 336 CURVE SMOOTH",
"514 655 LINE SMOOTH",
"514 658 OFFCURVE",
"516 660 OFFCURVE",
"519 660 CURVE SMOOTH",
"861 660 LINE SMOOTH",
"872 660 OFFCURVE",
"881 668 OFFCURVE",
"881 680 CURVE SMOOTH",
"881 691 OFFCURVE",
"872 700 OFFCURVE",
"861 700 CURVE SMOOTH",
"494 700 LINE",
"492 700 LINE",
"485 700 OFFCURVE",
"479 697 OFFCURVE",
"474 691 CURVE",
"15 37 LINE SMOOTH",
"9 28 OFFCURVE",
"11 16 OFFCURVE",
"20 9 CURVE SMOOTH",
"29 2 OFFCURVE",
"41 5 OFFCURVE",
"48 14 CURVE",
"162 177 LINE",
"474 177 LINE",
"474 20 LINE SMOOTH",
"474 9 OFFCURVE",
"483 0 OFFCURVE",
"494 0 CURVE SMOOTH",
"861 0 LINE SMOOTH",
"872 0 OFFCURVE",
"881 8 OFFCURVE",
"881 20 CURVE SMOOTH",
"881 31 OFFCURVE",
"872 40 OFFCURVE",
"861 40 CURVE SMOOTH"
);
},
{
closed = 1;
nodes = (
"191 217 LINE",
"474 621 LINE",
"474 217 LINE"
);
}
);
width = 931;
}
);
leftMetricsKey = A;
rightMetricsKey = E;
unicode = 00C6;
},
{
glyphname = B;
lastChange = "2013-12-18 08:31:49 +0400";
layers = (
{
layerId = "6A4EEAE7-E2C6-4FA4-83F5-ABDB5FD8E17B";
name = Light;
paths = (
{
closed = 1;
nodes = (
"407 408 OFFCURVE",
"435 459 OFFCURVE",
"435 520 CURVE SMOOTH",
"435 627 OFFCURVE",
"351 700 OFFCURVE",
"254 700 CURVE SMOOTH",
"110 700 LINE SMOOTH",
"99 700 OFFCURVE",
"90 691 OFFCURVE",
"90 680 CURVE SMOOTH",
"90 20 LINE SMOOTH",
"90 9 OFFCURVE",
"99 0 OFFCURVE",
"110 0 CURVE SMOOTH",
"301 0 LINE SMOOTH",
"414 0 OFFCURVE",
"510 67 OFFCURVE",
"510 189 CURVE SMOOTH",
"510 287 OFFCURVE",
"449 349 OFFCURVE",
"367 370 CURVE SMOOTH",
"363 371 OFFCURVE",
"362 374 OFFCURVE",
"366 376 CURVE SMOOTH"
);
},
{
closed = 1;
nodes = (
"130 655 LINE SMOOTH",
"130 658 OFFCURVE",
"132 660 OFFCURVE",
"135 660 CURVE SMOOTH",
"254 660 LINE SMOOTH",
"333 660 OFFCURVE",
"395 608 OFFCURVE",
"395 520 CURVE SMOOTH",
"395 431 OFFCURVE",
"333 379 OFFCURVE",
"254 379 CURVE SMOOTH",
"135 379 LINE SMOOTH",
"132 379 OFFCURVE",
"130 381 OFFCURVE",
"130 384 CURVE SMOOTH"
);
},
{
closed = 1;
nodes = (
"135 40 LINE SMOOTH",
"132 40 OFFCURVE",
"130 42 OFFCURVE",
"130 45 CURVE SMOOTH",
"130 333 LINE SMOOTH",
"130 336 OFFCURVE",
"132 338 OFFCURVE",
"135 338 CURVE SMOOTH",
"301 338 LINE SMOOTH",
"395 338 OFFCURVE",
"470 293 OFFCURVE",
"470 189 CURVE SMOOTH",
"470 85 OFFCURVE",
"395 40 OFFCURVE",
"301 40 CURVE SMOOTH"
);
}
);
width = 558;
}
);
leftKerningGroup = B;
rightKerningGroup = B;
unicode = 0042;
},
{
glyphname = C;
lastChange = "2013-12-18 08:31:49 +0400";
layers = (
{
anchors = (
{
name = bottom;
position = "{339, 0}";
},
{
name = top;
position = "{339, 700}";
}
);
layerId = "6A4EEAE7-E2C6-4FA4-83F5-ABDB5FD8E17B";
name = Light;
paths = (
{
closed = 1;
nodes = (
"588 674 OFFCURVE",
"510 700 OFFCURVE",
"429 700 CURVE SMOOTH",
"223 700 OFFCURVE",
"50 551 OFFCURVE",
"50 350 CURVE SMOOTH",
"50 149 OFFCURVE",
"223 0 OFFCURVE",
"429 0 CURVE SMOOTH",
"510 0 OFFCURVE",
"588 25 OFFCURVE",
"649 68 CURVE SMOOTH",
"658 75 OFFCURVE",
"660 87 OFFCURVE",
"653 96 CURVE SMOOTH",
"646 105 OFFCURVE",
"634 107 OFFCURVE",
"625 100 CURVE SMOOTH",
"569 62 OFFCURVE",
"504 40 OFFCURVE",
"429 40 CURVE SMOOTH",
"241 40 OFFCURVE",
"90 167 OFFCURVE",
"90 350 CURVE SMOOTH",
"90 533 OFFCURVE",
"241 660 OFFCURVE",
"429 660 CURVE SMOOTH",
"503 660 OFFCURVE",
"570 637 OFFCURVE",
"626 599 CURVE SMOOTH",
"635 593 OFFCURVE",
"646 594 OFFCURVE",
"653 603 CURVE SMOOTH",
"660 613 OFFCURVE",
"658 625 OFFCURVE",
"648 632 CURVE SMOOTH"
);
}
);
width = 677.491;
}
);
leftKerningGroup = C;
rightKerningGroup = C;
unicode = 0043;
},
{
glyphname = D;
lastChange = "2013-12-18 08:31:49 +0400";
layers = (
{
anchors = (
{
name = center;
position = "{336, 350}";
},
{
name = top;
position = "{336, 700}";
}
);
layerId = "6A4EEAE7-E2C6-4FA4-83F5-ABDB5FD8E17B";
name = Light;
paths = (
{
closed = 1;
nodes = (
"110 700 LINE SMOOTH",
"99 700 OFFCURVE",
"90 691 OFFCURVE",
"90 680 CURVE SMOOTH",
"90 20 LINE SMOOTH",
"90 9 OFFCURVE",
"99 0 OFFCURVE",
"110 0 CURVE SMOOTH",
"330 0 LINE SMOOTH",
"531 0 OFFCURVE",
"620 158 OFFCURVE",
"620 350 CURVE SMOOTH",
"620 532 OFFCURVE",
"531 700 OFFCURVE",
"330 700 CURVE SMOOTH"
);
},
{
closed = 1;
nodes = (
"135 40 LINE SMOOTH",
"132 40 OFFCURVE",
"130 42 OFFCURVE",
"130 45 CURVE SMOOTH",
"130 655 LINE SMOOTH",
"130 658 OFFCURVE",
"132 660 OFFCURVE",
"135 660 CURVE SMOOTH",
"320 660 LINE SMOOTH",
"503 660 OFFCURVE",
"580 513 OFFCURVE",
"580 350 CURVE SMOOTH",
"580 177 OFFCURVE",
"503 40 OFFCURVE",
"320 40 CURVE SMOOTH"
);
}
);
width = 670;
}
);
leftKerningGroup = B;
rightKerningGroup = D;
unicode = 0044;
},
{
glyphname = Eth;
lastChange = "2013-12-18 08:31:49 +0400";
layers = (
{
components = (
{
name = D;
transform = "{1, 0, 0, 1, 24, 0}";
}
);
layerId = "6A4EEAE7-E2C6-4FA4-83F5-ABDB5FD8E17B";
name = Light;
paths = (
{
closed = 1;
nodes = (
"268 330 LINE SMOOTH",
"282 330 OFFCURVE",
"292 338 OFFCURVE",
"292 350 CURVE SMOOTH",
"292 364 OFFCURVE",
"282 370 OFFCURVE",
"268 370 CURVE SMOOTH",
"48 370 LINE SMOOTH",
"34 370 OFFCURVE",
"24 363 OFFCURVE",
"24 350 CURVE SMOOTH",
"24 336 OFFCURVE",
"33 330 OFFCURVE",
"48 330 CURVE"
);
}
);
width = 659;
}
);
unicode = 00D0;
},
{
glyphname = E;
lastChange = "2013-12-18 08:31:49 +0400";
layers = (
{
anchors = (
{
name = bottom;
position = "{274, 0}";
},
{
name = ogonek;
position = "{492, 10}";
},
{
name = top;
position = "{274, 700}";
}
);
layerId = "6A4EEAE7-E2C6-4FA4-83F5-ABDB5FD8E17B";
name = Light;
paths = (
{
closed = 1;
nodes = (
"477 660 LINE SMOOTH",
"488 660 OFFCURVE",
"497 668 OFFCURVE",
"497 680 CURVE SMOOTH",
"497 691 OFFCURVE",
"488 700 OFFCURVE",
"477 700 CURVE SMOOTH",
"110 700 LINE SMOOTH",
"99 700 OFFCURVE",
"90 691 OFFCURVE",
"90 680 CURVE SMOOTH",
"90 20 LINE SMOOTH",
"90 9 OFFCURVE",
"99 0 OFFCURVE",
"110 0 CURVE SMOOTH",
"477 0 LINE SMOOTH",
"488 0 OFFCURVE",
"497 8 OFFCURVE",
"497 20 CURVE SMOOTH",
"497 31 OFFCURVE",
"488 40 OFFCURVE",
"477 40 CURVE SMOOTH",
"135 40 LINE SMOOTH",
"132 40 OFFCURVE",
"130 42 OFFCURVE",
"130 45 CURVE SMOOTH",
"130 286 LINE SMOOTH",
"130 289 OFFCURVE",
"132 291 OFFCURVE",
"135 291 CURVE SMOOTH",
"432 291 LINE SMOOTH",
"443 291 OFFCURVE",
"452 299 OFFCURVE",
"452 311 CURVE SMOOTH",
"452 322 OFFCURVE",
"443 331 OFFCURVE",
"432 331 CURVE SMOOTH",
"135 331 LINE SMOOTH",
"132 331 OFFCURVE",
"130 333 OFFCURVE",
"130 336 CURVE SMOOTH",
"130 655 LINE SMOOTH",
"130 658 OFFCURVE",
"132 660 OFFCURVE",
"135 660 CURVE SMOOTH"
);
}
);
width = 547;
}
);
leftKerningGroup = B;
rightKerningGroup = E;
unicode = 0045;
},
{
glyphname = Emacron;
lastChange = "2013-12-18 08:31:49 +0400";
layers = (
{
components = (
{
name = E;
transform = "{1, 0, 0, 1, 0, 0}";
}
);
layerId = "6A4EEAE7-E2C6-4FA4-83F5-ABDB5FD8E17B";
name = Light;
paths = (
{
closed = 1;
nodes = (
"164 826 LINE SMOOTH",
"153 826 OFFCURVE",
"144 818 OFFCURVE",
"144 806 CURVE SMOOTH",
"144 794 OFFCURVE",
"153 786 OFFCURVE",
"164 786 CURVE SMOOTH",
"423 786 LINE SMOOTH",
"434 786 OFFCURVE",
"443 794 OFFCURVE",
"443 806 CURVE SMOOTH",
"443 818 OFFCURVE",
"434 826 OFFCURVE",
"423 826 CURVE SMOOTH"
);
}
);
width = 547;
}
);
unicode = 0112;
},
{
glyphname = F;
lastChange = "2013-12-18 08:31:49 +0400";
layers = (
{
layerId = "6A4EEAE7-E2C6-4FA4-83F5-ABDB5FD8E17B";
name = Light;
paths = (
{
closed = 1;
nodes = (
"477 660 LINE SMOOTH",
"488 660 OFFCURVE",
"497 668 OFFCURVE",
"497 680 CURVE SMOOTH",
"497 691 OFFCURVE",
"488 700 OFFCURVE",
"477 700 CURVE SMOOTH",
"110 700 LINE SMOOTH",
"99 700 OFFCURVE",
"90 691 OFFCURVE",
"90 680 CURVE SMOOTH",
"90 20 LINE SMOOTH",
"90 9 OFFCURVE",
"98 0 OFFCURVE",
"110 0 CURVE SMOOTH",
"122 0 OFFCURVE",
"130 9 OFFCURVE",
"130 20 CURVE SMOOTH",
"130 286 LINE SMOOTH",
"130 289 OFFCURVE",
"132 291 OFFCURVE",
"135 291 CURVE SMOOTH",
"432 291 LINE SMOOTH",
"443 291 OFFCURVE",
"452 299 OFFCURVE",
"452 311 CURVE SMOOTH",
"452 322 OFFCURVE",
"443 331 OFFCURVE",
"432 331 CURVE SMOOTH",
"135 331 LINE SMOOTH",
"132 331 OFFCURVE",
"130 333 OFFCURVE",
"130 336 CURVE SMOOTH",
"130 655 LINE SMOOTH",
"130 658 OFFCURVE",
"132 660 OFFCURVE",
"135 660 CURVE SMOOTH"
);
}
);
width = 547;
}
);
leftKerningGroup = B;
rightKerningGroup = F;
unicode = 0046;
},
{
glyphname = G;
lastChange = "2013-12-18 08:31:49 +0400";
layers = (
{
anchors = (
{
name = bottom;
position = "{336, 0}";
},
{
name = top;
position = "{336, 700}";
}
);
layerId = "6A4EEAE7-E2C6-4FA4-83F5-ABDB5FD8E17B";
name = Light;
paths = (
{
closed = 1;
nodes = (
"629 300 LINE SMOOTH",
"629 311 OFFCURVE",
"621 320 OFFCURVE",
"609 320 CURVE SMOOTH",
"609 320 OFFCURVE",
"608 320 OFFCURVE",
"608 320 CURVE",
"607 320 LINE",
"419 320 LINE SMOOTH",
"408 320 OFFCURVE",
"399 312 OFFCURVE",
"399 300 CURVE SMOOTH",
"399 289 OFFCURVE",
"408 280 OFFCURVE",
"419 280 CURVE SMOOTH",
"589 280 LINE",
"589 94 LINE",
"539 61 OFFCURVE",
"475 40 OFFCURVE",
"409 40 CURVE SMOOTH",
"233 40 OFFCURVE",
"90 180 OFFCURVE",
"90 350 CURVE SMOOTH",
"90 520 OFFCURVE",
"233 660 OFFCURVE",
"409 660 CURVE SMOOTH",
"478 660 OFFCURVE",
"541 639 OFFCURVE",
"593 603 CURVE",
"603 597 OFFCURVE",
"614 598 OFFCURVE",
"621 607 CURVE",
"628 617 OFFCURVE",
"626 629 OFFCURVE",
"616 636 CURVE SMOOTH",
"558 676 OFFCURVE",
"486 700 OFFCURVE",
"409 700 CURVE SMOOTH",
"211 700 OFFCURVE",
"50 543 OFFCURVE",
"50 350 CURVE SMOOTH",
"50 157 OFFCURVE",
"211 0 OFFCURVE",
"409 0 CURVE SMOOTH",
"486 0 OFFCURVE",
"561 26 OFFCURVE",
"620 66 CURVE SMOOTH",
"624 69 OFFCURVE",
"627 73 OFFCURVE",
"628 78 CURVE",
"629 80 OFFCURVE",
"629 82 OFFCURVE",
"629 84 CURVE SMOOTH"
);
}
);
width = 669;
}
);
leftKerningGroup = C;
rightKerningGroup = G;
unicode = 0047;
},
{
glyphname = H;
lastChange = "2013-12-18 08:31:49 +0400";
layers = (
{
anchors = (
{
name = center;
position = "{330, 350}";
},
{
name = top;
position = "{330, 700}";
}
);
layerId = "6A4EEAE7-E2C6-4FA4-83F5-ABDB5FD8E17B";
name = Light;
paths = (
{
closed = 1;
nodes = (
"537 700 OFFCURVE",
"529 691 OFFCURVE",
"529 680 CURVE SMOOTH",
"529 375 LINE SMOOTH",
"529 372 OFFCURVE",
"527 370 OFFCURVE",
"524 370 CURVE SMOOTH",
"135 370 LINE SMOOTH",
"132 370 OFFCURVE",
"130 372 OFFCURVE",
"130 375 CURVE SMOOTH",
"130 680 LINE SMOOTH",
"130 691 OFFCURVE",
"122 700 OFFCURVE",
"110 700 CURVE SMOOTH",
"99 700 OFFCURVE",
"90 691 OFFCURVE",
"90 680 CURVE SMOOTH",
"90 20 LINE SMOOTH",
"90 9 OFFCURVE",
"98 0 OFFCURVE",
"110 0 CURVE SMOOTH",
"121 0 OFFCURVE",
"130 9 OFFCURVE",
"130 20 CURVE SMOOTH",
"130 325 LINE SMOOTH",
"130 328 OFFCURVE",
"132 330 OFFCURVE",
"135 330 CURVE SMOOTH",
"524 330 LINE SMOOTH",
"527 330 OFFCURVE",
"529 328 OFFCURVE",
"529 325 CURVE SMOOTH",
"529 20 LINE SMOOTH",
"529 9 OFFCURVE",
"537 0 OFFCURVE",
"549 0 CURVE SMOOTH",
"560 0 OFFCURVE",
"569 9 OFFCURVE",
"569 20 CURVE SMOOTH",
"569 680 LINE SMOOTH",
"569 691 OFFCURVE",
"561 700 OFFCURVE",
"549 700 CURVE SMOOTH"
);
}
);
width = 659;
}
);
leftKerningGroup = B;
rightKerningGroup = H;
unicode = 0048;
},
{
glyphname = Hbar;
lastChange = "2013-12-18 08:31:49 +0400";
layers = (
{
components = (
{
disableAlignment = 1;
name = H;
transform = "{1, 0, 0, 1, 99, 0}";
}
);
layerId = "6A4EEAE7-E2C6-4FA4-83F5-ABDB5FD8E17B";
name = Light;
paths = (
{
closed = 1;
nodes = (
"50 529 LINE SMOOTH",
"39 529 OFFCURVE",
"30 521 OFFCURVE",
"30 509 CURVE SMOOTH",
"30 498 OFFCURVE",
"39 489 OFFCURVE",
"50 489 CURVE SMOOTH",
"721 489 LINE SMOOTH",
"732 489 OFFCURVE",
"741 497 OFFCURVE",
"741 509 CURVE SMOOTH",
"741 520 OFFCURVE",
"732 529 OFFCURVE",
"721 529 CURVE SMOOTH"
);
}
);
width = 771;
}
);
unicode = 0126;
},
{
glyphname = I;
lastChange = "2013-12-18 08:31:49 +0400";
layers = (
{
anchors = (
{
name = ogonek;
position = "{201, 10}";
},
{
name = top;
position = "{109, 700}";
}
);
layerId = "6A4EEAE7-E2C6-4FA4-83F5-ABDB5FD8E17B";
name = Light;
paths = (
{
closed = 1;
nodes = (
"130 681 LINE SMOOTH",
"130 692 OFFCURVE",
"122 701 OFFCURVE",
"110 701 CURVE SMOOTH",
"99 701 OFFCURVE",
"90 692 OFFCURVE",
"90 681 CURVE SMOOTH",
"90 20 LINE SMOOTH",
"90 9 OFFCURVE",
"98 0 OFFCURVE",
"110 0 CURVE SMOOTH",
"121 0 OFFCURVE",
"130 9 OFFCURVE",
"130 20 CURVE SMOOTH"
);
}
);
width = 220;
}
);
leftKerningGroup = B;
rightKerningGroup = H;
unicode = 0049;
},
{
glyphname = J;
lastChange = "2013-12-18 08:31:49 +0400";
layers = (
{
anchors = (
{
name = top;
position = "{292, 700}";
}
);
layerId = "6A4EEAE7-E2C6-4FA4-83F5-ABDB5FD8E17B";
name = Light;
paths = (
{
closed = 1;
nodes = (
"444 700 OFFCURVE",
"436 691 OFFCURVE",
"436 680 CURVE SMOOTH",
"436 229 LINE SMOOTH",
"436 125 OFFCURVE",
"350 40 OFFCURVE",
"247 40 CURVE SMOOTH",
"169 40 OFFCURVE",
"103 87 OFFCURVE",
"74 154 CURVE SMOOTH",
"69 164 OFFCURVE",
"60 169 OFFCURVE",
"50 166 CURVE SMOOTH",
"38 162 OFFCURVE",
"32 150 OFFCURVE",
"37 139 CURVE SMOOTH",
"72 57 OFFCURVE",
"153 0 OFFCURVE",
"247 0 CURVE SMOOTH",
"373 0 OFFCURVE",
"476 103 OFFCURVE",
"476 229 CURVE SMOOTH",
"476 680 LINE SMOOTH",
"476 691 OFFCURVE",
"468 700 OFFCURVE",
"456 700 CURVE SMOOTH"
);
}
);
width = 566;
}
);
leftKerningGroup = J;
rightKerningGroup = J;
unicode = 004A;
},
{
glyphname = K;
lastChange = "2013-12-18 08:31:49 +0400";
layers = (
{
anchors = (
{
name = bottom;
position = "{340, 0}";
},
{
name = top;
position = "{340, 700}";
}
);
layerId = "6A4EEAE7-E2C6-4FA4-83F5-ABDB5FD8E17B";
name = Light;
paths = (
{
closed = 1;
nodes = (
"340 383 LINE SMOOTH",
"338 386 OFFCURVE",
"338 388 OFFCURVE",
"340 390 CURVE SMOOTH",
"612 662 LINE SMOOTH",
"620 670 OFFCURVE",
"620 682 OFFCURVE",
"612 690 CURVE SMOOTH",
"604 698 OFFCURVE",
"592 698 OFFCURVE",
"584 690 CURVE SMOOTH",
"136 242 LINE SMOOTH",
"133 239 OFFCURVE",
"130 240 OFFCURVE",
"130 245 CURVE SMOOTH",
"130 680 LINE SMOOTH",
"130 691 OFFCURVE",
"122 700 OFFCURVE",
"110 700 CURVE SMOOTH",
"98 700 OFFCURVE",
"90 691 OFFCURVE",
"90 680 CURVE SMOOTH",
"90 20 LINE SMOOTH",
"90 9 OFFCURVE",
"98 0 OFFCURVE",
"110 0 CURVE SMOOTH",
"122 0 OFFCURVE",
"130 9 OFFCURVE",
"130 20 CURVE SMOOTH",
"130 176 LINE SMOOTH",
"130 179 OFFCURVE",
"131 181 OFFCURVE",
"133 183 CURVE SMOOTH",
"305 355 LINE SMOOTH",
"307 357 OFFCURVE",
"310 357 OFFCURVE",
"312 354 CURVE SMOOTH",
"602 2 LINE SMOOTH",
"609 -7 OFFCURVE",
"620 -8 OFFCURVE",
"629 -1 CURVE",
"630 -1 LINE",
"638 7 OFFCURVE",
"639 19 OFFCURVE",
"632 28 CURVE SMOOTH"
);
}
);
width = 671.681;
}
);
leftKerningGroup = B;
rightKerningGroup = K;
unicode = 004B;
},
{
glyphname = L;
lastChange = "2013-12-18 08:31:49 +0400";
layers = (
{
anchors = (
{
name = bottom;
position = "{254, 0}";
},
{
name = top;
position = "{254, 700}";
}
);
layerId = "6A4EEAE7-E2C6-4FA4-83F5-ABDB5FD8E17B";
name = Light;
paths = (
{
closed = 1;
nodes = (
"135 40 LINE SMOOTH",
"132 40 OFFCURVE",
"130 42 OFFCURVE",
"130 45 CURVE SMOOTH",
"130 680 LINE SMOOTH",
"130 691 OFFCURVE",
"122 700 OFFCURVE",
"110 700 CURVE SMOOTH",
"99 700 OFFCURVE",
"90 691 OFFCURVE",
"90 680 CURVE SMOOTH",
"90 20 LINE SMOOTH",
"90 9 OFFCURVE",
"98 0 OFFCURVE",
"110 0 CURVE SMOOTH",
"477 0 LINE SMOOTH",
"488 0 OFFCURVE",
"497 8 OFFCURVE",
"497 20 CURVE SMOOTH",
"497 31 OFFCURVE",
"488 40 OFFCURVE",
"477 40 CURVE SMOOTH"
);
}
);
width = 512;
}
);
leftKerningGroup = B;
rightKerningGroup = L;
unicode = 004C;
},
{
glyphname = Lslash;
lastChange = "2013-12-18 08:31:49 +0400";
layers = (
{
components = (
{
name = L;
transform = "{1, 0, 0, 1, 132, 0}";
}
);
layerId = "6A4EEAE7-E2C6-4FA4-83F5-ABDB5FD8E17B";
name = Light;
paths = (
{
closed = 1;
nodes = (
"73 354 LINE SMOOTH",
"61 349 OFFCURVE",
"58 340 OFFCURVE",
"63 328 CURVE SMOOTH",
"68 316 OFFCURVE",
"77 313 OFFCURVE",
"89 318 CURVE SMOOTH",
"422 464 LINE SMOOTH",
"434 469 OFFCURVE",
"437 478 OFFCURVE",
"432 490 CURVE SMOOTH",
"427 502 OFFCURVE",
"418 505 OFFCURVE",
"406 500 CURVE SMOOTH"
);
}
);
width = 639;
}
);
unicode = 0141;
},
{
glyphname = M;
lastChange = "2013-12-18 08:31:49 +0400";
layers = (
{
layerId = "6A4EEAE7-E2C6-4FA4-83F5-ABDB5FD8E17B";
name = Light;
paths = (
{
closed = 1;
nodes = (
"734 701 OFFCURVE",
"727 698 OFFCURVE",
"722 691 CURVE SMOOTH",
"428 324 LINE SMOOTH",
"425 322 OFFCURVE",
"423 322 OFFCURVE",
"420 324 CURVE SMOOTH",
"127 691 LINE",
"126 692 LINE SMOOTH",
"125 694 OFFCURVE",
"123 696 OFFCURVE",
"120 697 CURVE SMOOTH",
"116 700 OFFCURVE",
"112 701 OFFCURVE",
"107 700 CURVE SMOOTH",
"97 698 OFFCURVE",
"90 690 OFFCURVE",
"90 680 CURVE SMOOTH",
"90 20 LINE SMOOTH",
"90 9 OFFCURVE",
"98 0 OFFCURVE",
"110 0 CURVE SMOOTH",
"121 0 OFFCURVE",
"130 9 OFFCURVE",
"130 20 CURVE SMOOTH",
"130 610 LINE SMOOTH",
"130 615 OFFCURVE",
"133 616 OFFCURVE",
"136 612 CURVE SMOOTH",
"407 275 LINE",
"411 269 OFFCURVE",
"418 266 OFFCURVE",
"425 267 CURVE",
"431 266 OFFCURVE",
"438 269 OFFCURVE",
"442 275 CURVE",
"713 612 LINE SMOOTH",
"716 616 OFFCURVE",
"719 615 OFFCURVE",
"719 610 CURVE SMOOTH",
"719 20 LINE SMOOTH",
"719 9 OFFCURVE",
"727 0 OFFCURVE",
"739 0 CURVE SMOOTH",
"750 0 OFFCURVE",
"759 9 OFFCURVE",
"759 20 CURVE SMOOTH",
"759 680 LINE SMOOTH",
"759 690 OFFCURVE",
"752 699 OFFCURVE",
"741 700 CURVE"
);
}
);
width = 849;
}
);
leftKerningGroup = B;
rightKerningGroup = H;
unicode = 004D;
},
{
glyphname = N;
lastChange = "2013-12-18 08:31:49 +0400";
layers = (
{
anchors = (
{
name = bottom;
position = "{363, 0}";
},
{
name = top;
position = "{363, 700}";
}
);
layerId = "6A4EEAE7-E2C6-4FA4-83F5-ABDB5FD8E17B";
name = Light;
paths = (
{
closed = 1;
nodes = (
"635 676 LINE",
"635 687 OFFCURVE",
"627 696 OFFCURVE",
"615 696 CURVE SMOOTH",
"604 696 OFFCURVE",
"595 687 OFFCURVE",
"595 676 CURVE SMOOTH",
"595 89 LINE SMOOTH",
"595 84 OFFCURVE",
"592 83 OFFCURVE",
"589 87 CURVE SMOOTH",
"127 691 LINE",
"126 692 LINE SMOOTH",
"125 694 OFFCURVE",
"123 696 OFFCURVE",
"120 697 CURVE SMOOTH",
"116 700 OFFCURVE",
"112 701 OFFCURVE",
"107 700 CURVE",
"97 698 OFFCURVE",
"90 690 OFFCURVE",
"90 680 CURVE SMOOTH",
"90 20 LINE SMOOTH",
"90 9 OFFCURVE",
"98 0 OFFCURVE",
"110 0 CURVE SMOOTH",
"121 0 OFFCURVE",
"130 9 OFFCURVE",
"130 20 CURVE SMOOTH",
"130 612 LINE SMOOTH",
"130 617 OFFCURVE",
"133 618 OFFCURVE",
"136 614 CURVE SMOOTH",
"598 8 LINE SMOOTH",
"605 -1 OFFCURVE",
"617 -3 OFFCURVE",
"626 3 CURVE SMOOTH",
"633 8 OFFCURVE",
"636 15 OFFCURVE",
"635 22 CURVE"
);
}
);
width = 725.188;
}
);
leftKerningGroup = B;
rightKerningGroup = H;
unicode = 004E;
},
{
glyphname = Eng;
lastChange = "2013-12-18 08:31:49 +0400";
layers = (
{
components = (
{
name = N;
transform = "{1, 0, 0, 1, 0, 0}";
}
);
layerId = "6A4EEAE7-E2C6-4FA4-83F5-ABDB5FD8E17B";
name = Light;
paths = (
{
closed = 1;
nodes = (
"601 -200 OFFCURVE",
"635 -123 OFFCURVE",
"635 -44 CURVE SMOOTH",
"635 -13 OFFCURVE",
"636 13 OFFCURVE",
"636 42 CURVE",
"596 42 LINE",
"596 13 OFFCURVE",
"595 -13 OFFCURVE",
"595 -44 CURVE SMOOTH",
"595 -111 OFFCURVE",
"574 -160 OFFCURVE",
"459 -160 CURVE SMOOTH",
"447 -160 OFFCURVE",
"438 -168 OFFCURVE",
"438 -180 CURVE SMOOTH",
"438 -192 OFFCURVE",
"447 -200 OFFCURVE",
"460 -200 CURVE SMOOTH"
);
}
);
width = 727;
}
);
unicode = 014A;
},
{
glyphname = O;
lastChange = "2013-12-18 08:31:49 +0400";
layers = (
{
anchors = (
{
name = top;
position = "{377, 700}";
}
);
layerId = "6A4EEAE7-E2C6-4FA4-83F5-ABDB5FD8E17B";
name = Light;
paths = (
{
closed = 1;
nodes = (
"668 169 OFFCURVE",
"538 30 OFFCURVE",
"379 30 CURVE",
"220 30 OFFCURVE",
"90 169 OFFCURVE",
"90 350 CURVE",
"90 531 OFFCURVE",
"220 670 OFFCURVE",
"379 670 CURVE",
"538 670 OFFCURVE",
"668 531 OFFCURVE",
"668 350 CURVE"
);
},
{
closed = 1;
nodes = (
"708 553 OFFCURVE",
"561 710 OFFCURVE",
"379 710 CURVE",
"197 710 OFFCURVE",
"50 553 OFFCURVE",
"50 350 CURVE",
"50 147 OFFCURVE",
"197 -10 OFFCURVE",
"379 -10 CURVE",
"561 -10 OFFCURVE",
"708 147 OFFCURVE",
"708 350 CURVE"
);
}
);
width = 758;
}
);
leftKerningGroup = C;
rightKerningGroup = D;
unicode = 004F;
},
{
glyphname = Oslash;
lastChange = "2013-12-18 08:31:49 +0400";
layers = (
{
layerId = "6A4EEAE7-E2C6-4FA4-83F5-ABDB5FD8E17B";
name = Light;
paths = (
{
closed = 1;
nodes = (
"684 707 LINE SMOOTH",
"690 714 OFFCURVE",
"685 720 OFFCURVE",
"673 720 CURVE SMOOTH",
"655 720 LINE SMOOTH",
"646 720 OFFCURVE",
"644 718 OFFCURVE",
"634 706 CURVE SMOOTH",
"568 628 LINE SMOOTH",
"566 625 OFFCURVE",
"564 625 OFFCURVE",
"561 627 CURVE SMOOTH",
"506 673 OFFCURVE",
"436 700 OFFCURVE",
"361 700 CURVE SMOOTH",
"179 700 OFFCURVE",
"32 543 OFFCURVE",
"32 350 CURVE SMOOTH",
"32 255 OFFCURVE",
"68 168 OFFCURVE",
"126 104 CURVE SMOOTH",
"128 102 OFFCURVE",
"128 100 OFFCURVE",
"126 97 CURVE SMOOTH",
"40 -6 LINE",
"31 -18 OFFCURVE",
"35 -20 OFFCURVE",
"50 -20 CURVE SMOOTH",
"68 -20 LINE SMOOTH",
"78 -20 OFFCURVE",
"78 -20 OFFCURVE",
"90 -6 CURVE SMOOTH",
"154 71 LINE SMOOTH",
"156 74 OFFCURVE",
"158 74 OFFCURVE",
"161 72 CURVE SMOOTH",
"216 27 OFFCURVE",
"286 0 OFFCURVE",
"361 0 CURVE SMOOTH",
"543 0 OFFCURVE",
"690 157 OFFCURVE",
"690 350 CURVE SMOOTH",
"690 445 OFFCURVE",
"654 532 OFFCURVE",
"596 595 CURVE SMOOTH",
"594 597 OFFCURVE",
"594 599 OFFCURVE",
"596 602 CURVE SMOOTH"
);
},
{
closed = 1;
nodes = (
"72 521 OFFCURVE",
"202 660 OFFCURVE",
"361 660 CURVE SMOOTH",
"426 660 OFFCURVE",
"487 636 OFFCURVE",
"536 596 CURVE SMOOTH",
"539 594 OFFCURVE",
"539 592 OFFCURVE",
"537 589 CURVE SMOOTH",
"158 136 LINE SMOOTH",
"156 134 OFFCURVE",
"154 133 OFFCURVE",
"151 136 CURVE SMOOTH",
"103 192 OFFCURVE",
"72 267 OFFCURVE",
"72 350 CURVE SMOOTH"
);
},
{
closed = 1;
nodes = (
"296 40 OFFCURVE",
"235 64 OFFCURVE",
"187 103 CURVE SMOOTH",
"184 105 OFFCURVE",
"184 107 OFFCURVE",
"186 110 CURVE SMOOTH",
"564 563 LINE SMOOTH",
"566 565 OFFCURVE",
"568 566 OFFCURVE",
"571 563 CURVE SMOOTH",
"619 507 OFFCURVE",
"650 432 OFFCURVE",
"650 350 CURVE SMOOTH",
"650 179 OFFCURVE",
"520 40 OFFCURVE",
"361 40 CURVE SMOOTH"
);
}
);
width = 721;
}
);
unicode = 00D8;
},
{
glyphname = P;
lastChange = "2013-12-18 08:31:49 +0400";
layers = (
{
layerId = "6A4EEAE7-E2C6-4FA4-83F5-ABDB5FD8E17B";
name = Light;
paths = (
{
closed = 1;
nodes = (
"110 700 LINE SMOOTH",
"99 700 OFFCURVE",
"90 691 OFFCURVE",
"90 680 CURVE SMOOTH",
"90 20 LINE SMOOTH",
"90 9 OFFCURVE",
"98 0 OFFCURVE",
"110 0 CURVE SMOOTH",
"121 0 OFFCURVE",
"130 9 OFFCURVE",
"130 20 CURVE SMOOTH",
"130 286 LINE SMOOTH",
"130 289 OFFCURVE",
"132 291 OFFCURVE",
"135 291 CURVE SMOOTH",
"340 291 LINE SMOOTH",
"444 291 OFFCURVE",
"529 390 OFFCURVE",
"529 499 CURVE SMOOTH",
"529 608 OFFCURVE",
"444 700 OFFCURVE",
"340 700 CURVE SMOOTH"
);
},
{
closed = 1;
nodes = (
"135 331 LINE SMOOTH",
"132 331 OFFCURVE",
"130 333 OFFCURVE",
"130 336 CURVE SMOOTH",
"130 655 LINE SMOOTH",
"130 658 OFFCURVE",
"132 660 OFFCURVE",
"135 660 CURVE SMOOTH",
"340 660 LINE SMOOTH",
"422 660 OFFCURVE",
"489 586 OFFCURVE",
"489 499 CURVE SMOOTH",
"489 412 OFFCURVE",
"422 331 OFFCURVE",
"340 331 CURVE SMOOTH"
);
}
);
width = 564;
}
);
leftKerningGroup = B;
rightKerningGroup = P;
unicode = 0050;
},
{
glyphname = Thorn;
lastChange = "2013-12-18 08:31:49 +0400";
layers = (
{
layerId = "6A4EEAE7-E2C6-4FA4-83F5-ABDB5FD8E17B";
name = Light;
paths = (
{
closed = 1;
nodes = (
"461 587 OFFCURVE",
"327 588 OFFCURVE",
"129 588 CURVE SMOOTH",
"125 588 OFFCURVE",
"123 590 OFFCURVE",
"123 593 CURVE SMOOTH",
"123 720 LINE SMOOTH",
"123 731 OFFCURVE",
"115 740 OFFCURVE",
"103 740 CURVE SMOOTH",
"92 740 OFFCURVE",
"83 731 OFFCURVE",
"83 720 CURVE SMOOTH",
"83 20 LINE SMOOTH",
"83 9 OFFCURVE",
"91 0 OFFCURVE",
"103 0 CURVE SMOOTH",
"114 0 OFFCURVE",
"123 9 OFFCURVE",
"123 20 CURVE SMOOTH",
"123 149 LINE SMOOTH",
"123 152 OFFCURVE",
"125 154 OFFCURVE",
"128 154 CURVE SMOOTH",
"319 154 OFFCURVE",
"461 156 OFFCURVE",
"461 371 CURVE SMOOTH"
);
},
{
closed = 1;
nodes = (
"123 543 LINE SMOOTH",
"123 546 OFFCURVE",
"125 548 OFFCURVE",
"128 548 CURVE SMOOTH",
"290 550 OFFCURVE",
"421 566 OFFCURVE",
"421 371 CURVE SMOOTH",
"421 174 OFFCURVE",
"290 192 OFFCURVE",
"128 194 CURVE SMOOTH",
"125 194 OFFCURVE",
"123 196 OFFCURVE",
"123 199 CURVE SMOOTH"
);
}
);
width = 489;
}
);
unicode = 00DE;
},
{
glyphname = Q;
lastChange = "2013-12-18 08:31:49 +0400";
layers = (
{
layerId = "6A4EEAE7-E2C6-4FA4-83F5-ABDB5FD8E17B";
name = Light;
paths = (
{
closed = 1;
nodes = (
"791 -44 OFFCURVE",
"780 -45 OFFCURVE",
"773 -52 CURVE",
"731 -88 OFFCURVE",
"641 -127 OFFCURVE",
"589 -127 CURVE SMOOTH",
"531 -127 OFFCURVE",
"506 -112 OFFCURVE",
"441 -73 CURVE SMOOTH",
"415 -58 OFFCURVE",
"388 -49 OFFCURVE",
"362 -45 CURVE SMOOTH",
"357 -44 OFFCURVE",
"356 -41 OFFCURVE",
"361 -39 CURVE SMOOTH",
"495 22 LINE",
"504 26 OFFCURVE",
"513 30 OFFCURVE",
"521 34 CURVE",
"523 35 LINE",
"633 92 OFFCURVE",
"709 212 OFFCURVE",
"709 350 CURVE SMOOTH",
"709 543 OFFCURVE",
"561 700 OFFCURVE",
"379 700 CURVE SMOOTH",
"198 700 OFFCURVE",
"50 543 OFFCURVE",
"50 350 CURVE SMOOTH",
"50 171 OFFCURVE",
"177 23 OFFCURVE",
"340 3 CURVE SMOOTH",
"344 2 OFFCURVE",
"345 -2 OFFCURVE",
"340 -4 CURVE SMOOTH",
"215 -60 LINE",
"205 -64 OFFCURVE",
"201 -78 OFFCURVE",
"207 -88 CURVE",
"210 -95 OFFCURVE",
"217 -98 OFFCURVE",
"224 -98 CURVE SMOOTH",
"228 -98 OFFCURVE",
"231 -97 OFFCURVE",
"234 -96 CURVE SMOOTH",
"277 -79 OFFCURVE",
"356 -69 OFFCURVE",
"421 -107 CURVE SMOOTH",
"485 -146 OFFCURVE",
"520 -167 OFFCURVE",
"589 -167 CURVE SMOOTH",
"648 -167 OFFCURVE",
"752 -122 OFFCURVE",
"800 -80 CURVE",
"810 -72 OFFCURVE",
"809 -58 OFFCURVE",
"799 -50 CURVE SMOOTH"
);
},
{
closed = 1;
nodes = (
"90 521 OFFCURVE",
"221 660 OFFCURVE",
"379 660 CURVE SMOOTH",
"538 660 OFFCURVE",
"669 521 OFFCURVE",
"669 350 CURVE SMOOTH",
"669 179 OFFCURVE",
"538 40 OFFCURVE",
"379 40 CURVE SMOOTH",
"221 40 OFFCURVE",
"90 179 OFFCURVE",
"90 350 CURVE SMOOTH"
);
}
);
width = 756.763;
}
);
leftKerningGroup = C;
rightKerningGroup = D;
unicode = 0051;
},
{
glyphname = R;
lastChange = "2013-12-18 08:31:49 +0400";
layers = (
{
anchors = (
{
name = bottom;
position = "{305, 0}";
},
{
name = top;
position = "{305, 700}";
}
);
layerId = "6A4EEAE7-E2C6-4FA4-83F5-ABDB5FD8E17B";
name = Light;
paths = (
{
closed = 1;
nodes = (
"524 254 OFFCURVE",
"478 296 OFFCURVE",
"428 316 CURVE SMOOTH",
"426 317 OFFCURVE",
"427 319 OFFCURVE",
"430 321 CURVE SMOOTH",
"495 356 OFFCURVE",
"542 421 OFFCURVE",
"542 496 CURVE SMOOTH",
"542 609 OFFCURVE",
"446 700 OFFCURVE",
"334 700 CURVE SMOOTH",
"110 700 LINE SMOOTH",
"99 700 OFFCURVE",
"90 691 OFFCURVE",
"90 680 CURVE SMOOTH",
"90 20 LINE SMOOTH",
"90 9 OFFCURVE",
"98 0 OFFCURVE",
"110 0 CURVE SMOOTH",
"121 0 OFFCURVE",
"130 9 OFFCURVE",
"130 20 CURVE SMOOTH",
"130 288 LINE SMOOTH",
"130 291 OFFCURVE",
"132 293 OFFCURVE",
"135 293 CURVE SMOOTH",
"324 293 LINE",
"331 293 LINE SMOOTH",
"390 293 OFFCURVE",
"484 275 OFFCURVE",
"484 160 CURVE SMOOTH",
"484 46 OFFCURVE",
"513 18 OFFCURVE",
"541 3 CURVE SMOOTH",
"552 -3 OFFCURVE",
"564 3 OFFCURVE",
"568 15 CURVE SMOOTH",
"571 25 OFFCURVE",
"566 34 OFFCURVE",
"558 39 CURVE SMOOTH",
"538 51 OFFCURVE",
"524 70 OFFCURVE",
"524 160 CURVE SMOOTH"
);
},
{
closed = 1;
nodes = (
"135 333 LINE SMOOTH",
"132 333 OFFCURVE",
"130 335 OFFCURVE",
"130 338 CURVE SMOOTH",
"130 655 LINE SMOOTH",
"130 658 OFFCURVE",
"132 660 OFFCURVE",
"135 660 CURVE SMOOTH",
"334 660 LINE SMOOTH",
"428 660 OFFCURVE",
"502 590 OFFCURVE",
"502 496 CURVE SMOOTH",
"502 403 OFFCURVE",
"418 333 OFFCURVE",
"324 333 CURVE SMOOTH"
);
}
);
width = 608.832;
}
);
leftKerningGroup = B;
rightKerningGroup = R;
unicode = 0052;
},
{
glyphname = S;
lastChange = "2013-12-18 08:31:49 +0400";
layers = (
{
anchors = (
{
name = bottom;
position = "{300, 0}";
},
{
name = top;
position = "{300, 700}";
}
);
layerId = "6A4EEAE7-E2C6-4FA4-83F5-ABDB5FD8E17B";
name = Light;
paths = (
{
closed = 1;
nodes = (
"109 37 OFFCURVE",
"197 0 OFFCURVE",
"301 0 CURVE SMOOTH",
"415 0 OFFCURVE",
"540 77 OFFCURVE",
"540 192 CURVE SMOOTH",
"540 310 OFFCURVE",
"417 347 OFFCURVE",
"314 376 CURVE SMOOTH",
"211 405 OFFCURVE",
"91 427 OFFCURVE",
"91 518 CURVE SMOOTH",
"91 590 OFFCURVE",
"165 660 OFFCURVE",
"280 660 CURVE SMOOTH",
"371 660 OFFCURVE",
"421 629 OFFCURVE",
"455 606 CURVE SMOOTH",
"466 599 OFFCURVE",
"478 602 OFFCURVE",
"484 612 CURVE SMOOTH",
"490 621 OFFCURVE",
"487 632 OFFCURVE",
"478 638 CURVE SMOOTH",
"442 663 OFFCURVE",
"383 700 OFFCURVE",
"280 700 CURVE SMOOTH",
"149 700 OFFCURVE",
"51 610 OFFCURVE",
"51 518 CURVE SMOOTH",
"51 395 OFFCURVE",
"201 367 OFFCURVE",
"304 338 CURVE SMOOTH",
"407 309 OFFCURVE",
"500 280 OFFCURVE",
"500 192 CURVE SMOOTH",
"500 103 OFFCURVE",
"403 40 OFFCURVE",
"301 40 CURVE SMOOTH",
"205 40 OFFCURVE",
"130 71 OFFCURVE",
"78 117 CURVE SMOOTH",
"70 124 OFFCURVE",
"59 125 OFFCURVE",
"51 117 CURVE SMOOTH",
"42 108 OFFCURVE",
"42 96 OFFCURVE",
"51 87 CURVE SMOOTH"
);
}
);
width = 585;
}
);
leftKerningGroup = S;
rightKerningGroup = S;
unicode = 0053;
},
{
glyphname = T;
lastChange = "2013-12-18 08:31:49 +0400";
layers = (
{
anchors = (
{
name = bottom;
position = "{284, 0}";
},
{
name = center;
position = "{284, 350}";
},
{
name = top;
position = "{284, 700}";
}
);
layerId = "6A4EEAE7-E2C6-4FA4-83F5-ABDB5FD8E17B";
name = Light;
paths = (
{
closed = 1;
nodes = (
"536 692 OFFCURVE",
"527 700 OFFCURVE",
"516 700 CURVE SMOOTH",
"50 700 LINE SMOOTH",
"39 700 OFFCURVE",
"30 692 OFFCURVE",
"30 680 CURVE SMOOTH",
"30 669 OFFCURVE",
"39 660 OFFCURVE",
"50 660 CURVE SMOOTH",
"258 660 LINE SMOOTH",
"261 660 OFFCURVE",
"263 658 OFFCURVE",
"263 655 CURVE SMOOTH",
"263 20 LINE SMOOTH",
"263 9 OFFCURVE",
"271 0 OFFCURVE",
"283 0 CURVE SMOOTH",
"294 0 OFFCURVE",
"303 9 OFFCURVE",
"303 20 CURVE SMOOTH",
"303 655 LINE SMOOTH",
"303 658 OFFCURVE",
"305 660 OFFCURVE",
"308 660 CURVE SMOOTH",
"516 660 LINE SMOOTH",
"527 660 OFFCURVE",
"536 668 OFFCURVE",
"536 680 CURVE SMOOTH"
);
}
);
width = 566;
}
);
leftKerningGroup = T;
rightKerningGroup = T;
unicode = 0054;
},
{
glyphname = U;
lastChange = "2013-12-18 08:31:49 +0400";
layers = (
{
anchors = (
{
name = ogonek;
position = "{677, 10}";
},
{
name = top;
position = "{377, 700}";
}
);
layerId = "6A4EEAE7-E2C6-4FA4-83F5-ABDB5FD8E17B";
name = Light;
paths = (
{
closed = 1;
nodes = (
"643 700 OFFCURVE",
"635 691 OFFCURVE",
"635 680 CURVE SMOOTH",
"635 288 LINE SMOOTH",
"635 145 OFFCURVE",
"521 30 OFFCURVE",
"378 30 CURVE SMOOTH",
"235 30 OFFCURVE",
"120 145 OFFCURVE",
"120 288 CURVE SMOOTH",
"120 680 LINE SMOOTH",
"120 691 OFFCURVE",
"112 700 OFFCURVE",
"100 700 CURVE SMOOTH",
"88 700 OFFCURVE",
"80 691 OFFCURVE",
"80 680 CURVE SMOOTH",
"80 288 LINE SMOOTH",
"80 126 OFFCURVE",
"216 -10 OFFCURVE",
"378 -10 CURVE SMOOTH",
"539 -10 OFFCURVE",
"675 126 OFFCURVE",
"675 288 CURVE SMOOTH",
"675 680 LINE SMOOTH",
"675 691 OFFCURVE",
"667 700 OFFCURVE",
"655 700 CURVE SMOOTH"
);
}
);
width = 755;
}
);
leftKerningGroup = U;
rightKerningGroup = U;
unicode = 0055;
},
{
glyphname = V;
lastChange = "2013-12-18 08:31:49 +0400";
layers = (
{
layerId = "6A4EEAE7-E2C6-4FA4-83F5-ABDB5FD8E17B";
name = Light;
paths = (
{
closed = 1;
nodes = (
"615 705 OFFCURVE",
"604 700 OFFCURVE",
"599 689 CURVE SMOOTH",
"331 83 LINE SMOOTH",
"329 79 OFFCURVE",
"327 79 OFFCURVE",
"325 83 CURVE SMOOTH",
"57 689 LINE SMOOTH",
"52 700 OFFCURVE",
"41 705 OFFCURVE",
"31 700 CURVE SMOOTH",
"21 695 OFFCURVE",
"17 684 OFFCURVE",
"21 674 CURVE SMOOTH",
"309 19 LINE SMOOTH",
"312 11 OFFCURVE",
"320 6 OFFCURVE",
"328 6 CURVE SMOOTH",
"336 6 OFFCURVE",
"343 11 OFFCURVE",
"347 19 CURVE SMOOTH",
"636 674 LINE",
"640 684 OFFCURVE",
"636 695 OFFCURVE",
"626 700 CURVE"
);
}
);
width = 657.45;
}
);
leftKerningGroup = V;
rightKerningGroup = V;
unicode = 0056;
},
{
glyphname = W;
lastChange = "2013-12-18 08:31:49 +0400";
layers = (
{
anchors = (
{
name = top;
position = "{481, 700}";
}
);
layerId = "6A4EEAE7-E2C6-4FA4-83F5-ABDB5FD8E17B";
name = Light;
paths = (
{
closed = 1;
nodes = (
"900 705 OFFCURVE",
"888 700 OFFCURVE",
"884 689 CURVE SMOOTH",
"675 83 LINE SMOOTH",
"673 78 OFFCURVE",
"670 78 OFFCURVE",
"668 83 CURVE SMOOTH",
"490 532 LINE SMOOTH",
"486 540 OFFCURVE",
"479 545 OFFCURVE",
"471 545 CURVE",
"462 545 OFFCURVE",
"455 540 OFFCURVE",
"452 532 CURVE SMOOTH",
"274 83 LINE SMOOTH",
"272 78 OFFCURVE",
"269 78 OFFCURVE",
"267 83 CURVE SMOOTH",
"58 689 LINE SMOOTH",
"54 700 OFFCURVE",
"42 705 OFFCURVE",
"31 700 CURVE",
"21 695 OFFCURVE",
"17 684 OFFCURVE",
"21 673 CURVE SMOOTH",
"250 13 LINE SMOOTH",
"252 5 OFFCURVE",
"260 0 OFFCURVE",
"267 0 CURVE",
"276 -1 OFFCURVE",
"284 3 OFFCURVE",
"288 12 CURVE SMOOTH",
"468 466 LINE SMOOTH",
"469 470 OFFCURVE",
"473 470 OFFCURVE",
"474 466 CURVE SMOOTH",
"654 12 LINE SMOOTH",
"657 3 OFFCURVE",
"665 -1 OFFCURVE",
"674 0 CURVE",
"681 0 OFFCURVE",
"689 5 OFFCURVE",
"692 13 CURVE SMOOTH",
"921 673 LINE SMOOTH",
"925 684 OFFCURVE",
"921 695 OFFCURVE",
"911 700 CURVE"
);
}
);
width = 942.306;
}
);
leftKerningGroup = W;
rightKerningGroup = W;
unicode = 0057;
},
{
glyphname = X;
lastChange = "2013-12-18 08:31:49 +0400";
layers = (
{
layerId = "6A4EEAE7-E2C6-4FA4-83F5-ABDB5FD8E17B";
name = Light;
paths = (
{
closed = 1;
nodes = (
"312 346 LINE SMOOTH",
"310 348 OFFCURVE",
"310 351 OFFCURVE",
"312 353 CURVE SMOOTH",
"544 672 LINE SMOOTH",
"551 682 OFFCURVE",
"549 694 OFFCURVE",
"540 700 CURVE",
"531 707 OFFCURVE",
"519 705 OFFCURVE",
"512 696 CURVE SMOOTH",
"288 389 LINE SMOOTH",
"286 386 OFFCURVE",
"283 386 OFFCURVE",
"281 389 CURVE SMOOTH",
"57 695 LINE SMOOTH",
"50 704 OFFCURVE",
"38 706 OFFCURVE",
"29 700 CURVE SMOOTH",
"19 693 OFFCURVE",
"17 681 OFFCURVE",
"24 671 CURVE SMOOTH",
"257 353 LINE SMOOTH",
"258 351 OFFCURVE",
"258 348 OFFCURVE",
"257 346 CURVE SMOOTH",
"24 29 LINE SMOOTH",
"17 19 OFFCURVE",
"19 7 OFFCURVE",
"29 0 CURVE SMOOTH",
"38 -6 OFFCURVE",
"50 -4 OFFCURVE",
"57 5 CURVE SMOOTH",
"281 310 LINE SMOOTH",
"283 313 OFFCURVE",
"286 313 OFFCURVE",
"288 310 CURVE SMOOTH",
"512 5 LINE SMOOTH",
"519 -4 OFFCURVE",
"530 -6 OFFCURVE",
"539 0 CURVE SMOOTH",
"549 7 OFFCURVE",
"551 19 OFFCURVE",
"544 29 CURVE SMOOTH"
);
}
);
width = 568.074;
}
);
leftKerningGroup = X;
rightKerningGroup = X;
unicode = 0058;
},
{
glyphname = Y;
lastChange = "2013-12-18 08:31:49 +0400";
layers = (
{
anchors = (
{
name = top;
position = "{272, 700}";
}
);
layerId = "6A4EEAE7-E2C6-4FA4-83F5-ABDB5FD8E17B";
name = Light;
paths = (
{
closed = 1;
nodes = (
"509 707 OFFCURVE",
"497 705 OFFCURVE",
"490 695 CURVE SMOOTH",
"277 404 LINE SMOOTH",
"274 401 OFFCURVE",
"272 401 OFFCURVE",
"269 404 CURVE SMOOTH",
"56 695 LINE SMOOTH",
"49 705 OFFCURVE",
"37 707 OFFCURVE",
"28 700 CURVE SMOOTH",
"19 693 OFFCURVE",
"17 681 OFFCURVE",
"24 672 CURVE SMOOTH",
"251 362 LINE SMOOTH",
"252 360 OFFCURVE",
"253 358 OFFCURVE",
"253 356 CURVE SMOOTH",
"253 20 LINE SMOOTH",
"253 9 OFFCURVE",
"261 0 OFFCURVE",
"273 0 CURVE SMOOTH",
"284 0 OFFCURVE",
"293 9 OFFCURVE",
"293 20 CURVE SMOOTH",
"293 356 LINE SMOOTH",
"293 358 OFFCURVE",
"294 360 OFFCURVE",
"295 362 CURVE SMOOTH",
"523 672 LINE",
"529 682 OFFCURVE",
"528 693 OFFCURVE",
"519 700 CURVE"
);
}
);
width = 546.875;
}
);
leftKerningGroup = Y;
rightKerningGroup = Y;
unicode = 0059;
},
{
glyphname = Z;
lastChange = "2013-12-18 08:31:49 +0400";
layers = (
{
anchors = (
{
name = top;
position = "{324, 700}";
}
);
layerId = "6A4EEAE7-E2C6-4FA4-83F5-ABDB5FD8E17B";
name = Light;
paths = (
{
closed = 1;
nodes = (
"108 40 LINE SMOOTH",
"104 40 OFFCURVE",
"102 43 OFFCURVE",
"105 46 CURVE SMOOTH",
"599 668 LINE SMOOTH",
"606 677 OFFCURVE",
"604 689 OFFCURVE",
"595 696 CURVE SMOOTH",
"591 700 OFFCURVE",
"585 701 OFFCURVE",
"580 700 CURVE",
"100 700 LINE SMOOTH",
"89 700 OFFCURVE",
"80 692 OFFCURVE",
"80 680 CURVE SMOOTH",
"80 669 OFFCURVE",
"89 660 OFFCURVE",
"100 660 CURVE SMOOTH",
"535 660 LINE SMOOTH",
"539 660 OFFCURVE",
"541 657 OFFCURVE",
"538 654 CURVE SMOOTH",
"44 33 LINE SMOOTH",
"40 28 OFFCURVE",
"39 22 OFFCURVE",
"40 17 CURVE SMOOTH",
"42 7 OFFCURVE",
"50 0 OFFCURVE",
"60 0 CURVE SMOOTH",
"572 0 LINE SMOOTH",
"583 0 OFFCURVE",
"592 8 OFFCURVE",
"592 20 CURVE SMOOTH",
"592 31 OFFCURVE",
"583 40 OFFCURVE",
"572 40 CURVE SMOOTH"
);
}
);
width = 642.973;
}
);
leftKerningGroup = Z;
rightKerningGroup = Z;
unicode = 005A;
},
{
glyphname = A.ss01;
lastChange = "2013-12-18 08:31:49 +0400";
layers = (
{
layerId = "6A4EEAE7-E2C6-4FA4-83F5-ABDB5FD8E17B";
name = Light;
paths = (
{
closed = 1;
nodes = (
"688 710 LINE",
"688 532 LINE SMOOTH",
"688 527 OFFCURVE",
"685 527 OFFCURVE",
"682 531 CURVE SMOOTH",
"623 638 OFFCURVE",
"514 710 OFFCURVE",
"389 710 CURVE SMOOTH",
"202 710 OFFCURVE",
"50 549 OFFCURVE",
"50 350 CURVE SMOOTH",
"50 151 OFFCURVE",
"202 -10 OFFCURVE",
"389 -10 CURVE SMOOTH",
"514 -10 OFFCURVE",
"623 62 OFFCURVE",
"682 169 CURVE SMOOTH",
"685 173 OFFCURVE",
"688 173 OFFCURVE",
"688 168 CURVE SMOOTH",
"688 -10 LINE",
"728 -10 LINE",
"728 710 LINE"
);
},
{
closed = 1;
nodes = (
"225 30 OFFCURVE",
"90 173 OFFCURVE",
"90 350 CURVE SMOOTH",
"90 527 OFFCURVE",
"225 670 OFFCURVE",
"389 670 CURVE SMOOTH",
"553 670 OFFCURVE",
"688 527 OFFCURVE",
"688 350 CURVE SMOOTH",
"688 173 OFFCURVE",
"553 30 OFFCURVE",
"389 30 CURVE SMOOTH"
);
}
);
width = 818;
}
);
},
{
glyphname = E.ss01;
lastChange = "2013-12-18 08:31:49 +0400";
layers = (
{
layerId = "6A4EEAE7-E2C6-4FA4-83F5-ABDB5FD8E17B";
name = Light;
paths = (
{
closed = 1;
nodes = (
"743 367 LINE SMOOTH",
"739 556 OFFCURVE",
"581 710 OFFCURVE",
"397 710 CURVE SMOOTH",
"205 710 OFFCURVE",
"50 549 OFFCURVE",
"50 350 CURVE SMOOTH",
"50 151 OFFCURVE",
"205 -10 OFFCURVE",
"397 -10 CURVE SMOOTH",
"530 -10 OFFCURVE",
"625 38 OFFCURVE",
"701 130 CURVE SMOOTH",
"709 140 OFFCURVE",
"707 153 OFFCURVE",
"696 160 CURVE SMOOTH",
"687 165 OFFCURVE",
"677 163 OFFCURVE",
"670 155 CURVE SMOOTH",
"601 71 OFFCURVE",
"520 30 OFFCURVE",
"397 30 CURVE SMOOTH",
"235 30 OFFCURVE",
"102 161 OFFCURVE",
"91 328 CURVE SMOOTH",
"91 331 OFFCURVE",
"92 333 OFFCURVE",
"96 333 CURVE SMOOTH",
"723 333 LINE SMOOTH",
"734 333 OFFCURVE",
"743 340 OFFCURVE",
"743 350 CURVE SMOOTH"
);
},
{
closed = 1;
nodes = (
"96 373 LINE SMOOTH",
"93 373 OFFCURVE",
"91 375 OFFCURVE",
"91 378 CURVE SMOOTH",
"105 542 OFFCURVE",
"237 670 OFFCURVE",
"397 670 CURVE SMOOTH",
"556 670 OFFCURVE",
"696 537 OFFCURVE",
"704 373 CURVE"
);
}
);
width = 793;
}
);
},
{
glyphname = M.ss01;
lastChange = "2013-12-18 08:31:49 +0400";
layers = (
{
layerId = "6A4EEAE7-E2C6-4FA4-83F5-ABDB5FD8E17B";
name = Light;
paths = (
{
closed = 1;
nodes = (
"130 680 LINE SMOOTH",
"130 691 OFFCURVE",
"122 700 OFFCURVE",
"110 700 CURVE SMOOTH",
"98 700 OFFCURVE",
"90 691 OFFCURVE",
"90 680 CURVE SMOOTH",
"90 20 LINE SMOOTH",
"90 9 OFFCURVE",
"98 0 OFFCURVE",
"110 0 CURVE SMOOTH",
"122 0 OFFCURVE",
"130 9 OFFCURVE",
"130 20 CURVE SMOOTH",
"130 402 LINE SMOOTH",
"130 545 OFFCURVE",
"244 660 OFFCURVE",
"397 660 CURVE SMOOTH",
"530 660 OFFCURVE",
"605 575 OFFCURVE",
"605 402 CURVE SMOOTH",
"605 20 LINE SMOOTH",
"605 9 OFFCURVE",
"613 0 OFFCURVE",
"625 0 CURVE SMOOTH",
"637 0 OFFCURVE",
"645 9 OFFCURVE",
"645 20 CURVE SMOOTH",
"645 402 LINE SMOOTH",
"645 545 OFFCURVE",
"759 660 OFFCURVE",
"912 660 CURVE SMOOTH",
"1045 660 OFFCURVE",
"1120 575 OFFCURVE",
"1120 402 CURVE SMOOTH",
"1120 20 LINE SMOOTH",
"1120 9 OFFCURVE",
"1128 0 OFFCURVE",
"1140 0 CURVE SMOOTH",
"1151 0 OFFCURVE",
"1160 9 OFFCURVE",
"1160 20 CURVE SMOOTH",
"1160 402 LINE SMOOTH",
"1160 594 OFFCURVE",
"1064 700 OFFCURVE",
"912 700 CURVE SMOOTH",
"808 700 OFFCURVE",
"687 644 OFFCURVE",
"633 532 CURVE SMOOTH",
"631 527 OFFCURVE",
"628 528 OFFCURVE",
"627 532 CURVE SMOOTH",
"592 641 OFFCURVE",
"510 700 OFFCURVE",
"397 700 CURVE SMOOTH",
"279 700 OFFCURVE",
"182 638 OFFCURVE",
"130 548 CURVE"
);
}
);
width = 1235;
}
);
},
{
glyphname = N.ss01;
lastChange = "2013-12-18 08:31:49 +0400";
layers = (
{
layerId = "6A4EEAE7-E2C6-4FA4-83F5-ABDB5FD8E17B";
name = Light;
paths = (
{
closed = 1;
nodes = (
"122 0 OFFCURVE",
"130 9 OFFCURVE",
"130 20 CURVE SMOOTH",
"130 402 LINE SMOOTH",
"130 545 OFFCURVE",
"264 660 OFFCURVE",
"417 660 CURVE SMOOTH",
"570 660 OFFCURVE",
"645 575 OFFCURVE",
"645 402 CURVE SMOOTH",
"645 20 LINE SMOOTH",
"645 9 OFFCURVE",
"653 0 OFFCURVE",
"665 0 CURVE SMOOTH",
"676 0 OFFCURVE",
"685 9 OFFCURVE",
"685 20 CURVE SMOOTH",
"685 402 LINE SMOOTH",
"685 594 OFFCURVE",
"589 700 OFFCURVE",
"417 700 CURVE SMOOTH",
"299 700 OFFCURVE",
"182 638 OFFCURVE",
"130 548 CURVE",
"130 680 LINE SMOOTH",
"130 691 OFFCURVE",
"122 700 OFFCURVE",
"110 700 CURVE SMOOTH",
"98 700 OFFCURVE",
"90 691 OFFCURVE",
"90 680 CURVE SMOOTH",
"90 20 LINE SMOOTH",
"90 9 OFFCURVE",
"98 0 OFFCURVE",
"110 0 CURVE SMOOTH"
);
}
);
width = 765;
}
);
},
{
glyphname = Q.ss01;
lastChange = "2013-12-18 08:31:49 +0400";
layers = (
{
layerId = "6A4EEAE7-E2C6-4FA4-83F5-ABDB5FD8E17B";
name = Light;
paths = (
{
closed = 1;
nodes = (
"708 553 OFFCURVE",
"561 710 OFFCURVE",
"379 710 CURVE SMOOTH",
"197 710 OFFCURVE",
"50 553 OFFCURVE",
"50 350 CURVE SMOOTH",
"50 156 OFFCURVE",
"184 4 OFFCURVE",
"354 -9 CURVE SMOOTH",
"357 -9 OFFCURVE",
"359 -11 OFFCURVE",
"359 -14 CURVE SMOOTH",
"359 -128 LINE SMOOTH",
"359 -139 OFFCURVE",
"367 -148 OFFCURVE",
"379 -148 CURVE SMOOTH",
"391 -148 OFFCURVE",
"399 -139 OFFCURVE",
"399 -128 CURVE SMOOTH",
"399 -14 LINE SMOOTH",
"399 -11 OFFCURVE",
"401 -9 OFFCURVE",
"404 -9 CURVE SMOOTH",
"574 4 OFFCURVE",
"708 156 OFFCURVE",
"708 350 CURVE SMOOTH"
);
},
{
closed = 1;
nodes = (
"220 30 OFFCURVE",
"90 169 OFFCURVE",
"90 350 CURVE SMOOTH",
"90 531 OFFCURVE",
"220 670 OFFCURVE",
"379 670 CURVE SMOOTH",
"538 670 OFFCURVE",
"668 531 OFFCURVE",
"668 350 CURVE SMOOTH",
"668 169 OFFCURVE",
"538 30 OFFCURVE",
"379 30 CURVE SMOOTH"
);
}
);
width = 758;
}
);
},
{
glyphname = R.ss01;
lastChange = "2013-12-18 08:31:49 +0400";
layers = (
{
layerId = "6A4EEAE7-E2C6-4FA4-83F5-ABDB5FD8E17B";
name = Light;
paths = (
{
closed = 1;
nodes = (
"130 680 LINE SMOOTH",
"130 691 OFFCURVE",
"122 700 OFFCURVE",
"110 700 CURVE SMOOTH",
"99 700 OFFCURVE",
"90 691 OFFCURVE",
"90 680 CURVE SMOOTH",
"90 20 LINE SMOOTH",
"90 9 OFFCURVE",
"98 0 OFFCURVE",
"110 0 CURVE SMOOTH",
"121 0 OFFCURVE",
"130 9 OFFCURVE",
"130 20 CURVE SMOOTH",
"130 271 LINE SMOOTH",
"130 483 OFFCURVE",
"247 625 OFFCURVE",
"434 671 CURVE SMOOTH",
"446 674 OFFCURVE",
"453 682 OFFCURVE",
"451 694 CURVE SMOOTH",
"449 705 OFFCURVE",
"439 713 OFFCURVE",
"427 710 CURVE",
"292 683 OFFCURVE",
"190 595 OFFCURVE",
"136 480 CURVE SMOOTH",
"134 475 OFFCURVE",
"130 476 OFFCURVE",
"130 481 CURVE SMOOTH"
);
}
);
width = 461.339;
}
);
},
{
glyphname = U.ss01;
lastChange = "2013-12-18 08:31:49 +0400";
layers = (
{
layerId = "6A4EEAE7-E2C6-4FA4-83F5-ABDB5FD8E17B";
name = Light;
paths = (
{
closed = 1;
nodes = (
"643 700 OFFCURVE",
"635 691 OFFCURVE",
"635 680 CURVE SMOOTH",
"635 298 LINE SMOOTH",
"635 155 OFFCURVE",
"501 40 OFFCURVE",
"348 40 CURVE SMOOTH",
"195 40 OFFCURVE",
"120 125 OFFCURVE",
"120 298 CURVE SMOOTH",
"120 680 LINE SMOOTH",
"120 691 OFFCURVE",
"112 700 OFFCURVE",
"100 700 CURVE SMOOTH",
"89 700 OFFCURVE",
"80 691 OFFCURVE",
"80 680 CURVE SMOOTH",
"80 298 LINE SMOOTH",
"80 106 OFFCURVE",
"176 0 OFFCURVE",
"348 0 CURVE SMOOTH",
"466 0 OFFCURVE",
"583 62 OFFCURVE",
"635 152 CURVE",
"635 20 LINE SMOOTH",
"635 9 OFFCURVE",
"643 0 OFFCURVE",
"655 0 CURVE SMOOTH",
"667 0 OFFCURVE",
"675 9 OFFCURVE",
"675 20 CURVE SMOOTH",
"675 680 LINE SMOOTH",
"675 691 OFFCURVE",
"667 700 OFFCURVE",
"655 700 CURVE SMOOTH"
);
}
);
width = 765;
}
);
},
{
glyphname = W.ss01;
lastChange = "2013-12-18 08:31:49 +0400";
layers = (
{
anchors = (
{
name = ogonek;
position = "{637, 10}";
},
{
name = top;
position = "{337, 700}";
}
);
layerId = "6A4EEAE7-E2C6-4FA4-83F5-ABDB5FD8E17B";
name = Light;
paths = (
{
closed = 1;
nodes = (
"1030 700 LINE",
"1030 278 LINE SMOOTH",
"1030 135 OFFCURVE",
"956 40 OFFCURVE",
"813 40 CURVE SMOOTH",
"670 40 OFFCURVE",
"595 135 OFFCURVE",
"595 278 CURVE SMOOTH",
"595 700 LINE",
"555 700 LINE",
"555 278 LINE SMOOTH",
"555 135 OFFCURVE",
"481 40 OFFCURVE",
"338 40 CURVE SMOOTH",
"195 40 OFFCURVE",
"120 135 OFFCURVE",
"120 278 CURVE SMOOTH",
"120 700 LINE",
"80 700 LINE",
"80 278 LINE SMOOTH",
"80 116 OFFCURVE",
"176 0 OFFCURVE",
"338 0 CURVE SMOOTH",
"453 0 OFFCURVE",
"534 59 OFFCURVE",
"572 151 CURVE SMOOTH",
"574 155 OFFCURVE",
"576 155 OFFCURVE",
"578 151 CURVE SMOOTH",
"616 59 OFFCURVE",
"698 0 OFFCURVE",
"813 0 CURVE SMOOTH",
"974 0 OFFCURVE",
"1070 116 OFFCURVE",
"1070 278 CURVE SMOOTH",
"1070 700 LINE"
);
}
);
width = 1150;
}
);
},
{
glyphname = a;
lastChange = "2013-12-18 08:31:49 +0400";
layers = (
{
anchors = (
{
name = ogonek;
position = "{564, 10}";
},
{
name = top;
position = "{314, 515}";
}
);
layerId = "6A4EEAE7-E2C6-4FA4-83F5-ABDB5FD8E17B";
name = Light;
paths = (
{
closed = 1;
nodes = (
"517 515 OFFCURVE",
"509 506 OFFCURVE",
"509 495 CURVE SMOOTH",
"509 414 LINE SMOOTH",
"509 409 OFFCURVE",
"506 408 OFFCURVE",
"503 412 CURVE SMOOTH",
"457 480 OFFCURVE",
"382 525 OFFCURVE",
"297 525 CURVE SMOOTH",
"158 525 OFFCURVE",
"44.9999 406 OFFCURVE",
"44.9999 258 CURVE SMOOTH",
"44.9999 110 OFFCURVE",
"158 -10 OFFCURVE",
"297 -10 CURVE SMOOTH",
"382 -10 OFFCURVE",
"457 35 OFFCURVE",
"503 104 CURVE SMOOTH",
"506 108 OFFCURVE",
"509 107 OFFCURVE",
"509 102.005 CURVE SMOOTH",
"509 20 LINE SMOOTH",
"509 9 OFFCURVE",
"517 0 OFFCURVE",
"529 0 CURVE SMOOTH",
"540 0 OFFCURVE",
"549 9 OFFCURVE",
"549 20 CURVE SMOOTH",
"549 495 LINE SMOOTH",
"549 506 OFFCURVE",
"541 515 OFFCURVE",
"529 515 CURVE SMOOTH"
);
},
{
closed = 1;
nodes = (
"181 29.9999 OFFCURVE",
"85 132 OFFCURVE",
"85 258 CURVE SMOOTH",
"85 384 OFFCURVE",
"181 485 OFFCURVE",
"297 485 CURVE SMOOTH",
"413 485 OFFCURVE",
"509 384 OFFCURVE",
"509 258 CURVE SMOOTH",
"509 132 OFFCURVE",
"413 29.9999 OFFCURVE",
"297 29.9999 CURVE SMOOTH"
);
}
);
width = 629;
}
);
leftKerningGroup = a;
rightKerningGroup = a;
unicode = 0061;
},
{
glyphname = ae;
lastChange = "2013-12-18 08:31:49 +0400";
layers = (
{
layerId = "6A4EEAE7-E2C6-4FA4-83F5-ABDB5FD8E17B";
name = Light;
paths = (
{
closed = 1;
nodes = (
"506 480 LINE SMOOTH",
"506 491 OFFCURVE",
"498 500 OFFCURVE",
"486 500 CURVE SMOOTH",
"474 500 OFFCURVE",
"466 491 OFFCURVE",
"466 480 CURVE SMOOTH",
"466 400 LINE SMOOTH",
"466 395 OFFCURVE",
"463 394 OFFCURVE",
"460 398 CURVE",
"417 460 OFFCURVE",
"348 500 OFFCURVE",
"270 500 CURVE SMOOTH",
"140 500 OFFCURVE",
"35 388 OFFCURVE",
"35 250 CURVE SMOOTH",
"35 112 OFFCURVE",
"140 0 OFFCURVE",
"270 0 CURVE SMOOTH",
"348 0 OFFCURVE",
"417 40 OFFCURVE",
"460 102 CURVE",
"463 106 OFFCURVE",
"466 105 OFFCURVE",
"466 100 CURVE SMOOTH",
"466 20 LINE SMOOTH",
"466 9 OFFCURVE",
"474 0 OFFCURVE",
"486 0 CURVE SMOOTH",
"497 0 OFFCURVE",
"506 9 OFFCURVE",
"506 20 CURVE SMOOTH",
"506 102 LINE SMOOTH",
"506 107 OFFCURVE",
"509 108 OFFCURVE",
"512 104 CURVE SMOOTH",
"557 41 OFFCURVE",
"630 0 OFFCURVE",
"717 0 CURVE SMOOTH",
"796 0 OFFCURVE",
"873 38 OFFCURVE",
"919 98 CURVE",
"926 108 OFFCURVE",
"923 121 OFFCURVE",
"913 127 CURVE",
"912 128 LINE",
"902 134 OFFCURVE",
"891 131 OFFCURVE",
"884 122 CURVE",
"849 72 OFFCURVE",
"785 40 OFFCURVE",
"717 40 CURVE SMOOTH",
"606 40 OFFCURVE",
"522 118 OFFCURVE",
"508 221 CURVE SMOOTH",
"507 224 OFFCURVE",
"509 226 OFFCURVE",
"512 226 CURVE SMOOTH",
"928 226 LINE SMOOTH",
"939 226 OFFCURVE",
"948 235 OFFCURVE",
"948 247 CURVE",
"943 404 OFFCURVE",
"838 500 OFFCURVE",
"707 500 CURVE SMOOTH",
"627 500 OFFCURVE",
"556 459 OFFCURVE",
"512 397 CURVE SMOOTH",
"509 393 OFFCURVE",
"506 394 OFFCURVE",
"506 399 CURVE SMOOTH"
);
},
{
closed = 1;
nodes = (
"164 40 OFFCURVE",
"75 134 OFFCURVE",
"75 250 CURVE SMOOTH",
"75 366 OFFCURVE",
"164 460 OFFCURVE",
"270 460 CURVE SMOOTH",
"377 460 OFFCURVE",
"466 366 OFFCURVE",
"466 250 CURVE SMOOTH",
"466 134 OFFCURVE",
"377 40 OFFCURVE",
"270 40 CURVE SMOOTH"
);
},
{
closed = 1;
nodes = (
"511 266 LINE SMOOTH",
"508 266 OFFCURVE",
"506 268 OFFCURVE",
"506 271 CURVE SMOOTH",
"517 378 OFFCURVE",
"604 460 OFFCURVE",
"707 460 CURVE SMOOTH",
"808 460 OFFCURVE",
"895 380 OFFCURVE",
"907 271 CURVE SMOOTH",
"907 268 OFFCURVE",
"905 266 OFFCURVE",
"902 266 CURVE SMOOTH"
);
}
);
width = 978;
}
);
unicode = 00E6;
},
{
glyphname = b;
lastChange = "2013-12-18 08:31:49 +0400";
layers = (
{
layerId = "6A4EEAE7-E2C6-4FA4-83F5-ABDB5FD8E17B";
name = Light;
paths = (
{
closed = 1;
nodes = (
"88 740 OFFCURVE",
"80 731 OFFCURVE",
"80 720 CURVE SMOOTH",
"80 20 LINE SMOOTH",
"80 9 OFFCURVE",
"89 0 OFFCURVE",
"100 0 CURVE SMOOTH",
"112 0 OFFCURVE",
"120 9 OFFCURVE",
"120 20 CURVE SMOOTH",
"120 102 LINE SMOOTH",
"120 107 OFFCURVE",
"123 108 OFFCURVE",
"126 104 CURVE SMOOTH",
"172 35 OFFCURVE",
"247 -10 OFFCURVE",
"332 -10 CURVE SMOOTH",
"471 -10 OFFCURVE",
"584 110 OFFCURVE",
"584 258 CURVE SMOOTH",
"584 406 OFFCURVE",
"471 525 OFFCURVE",
"332 525 CURVE SMOOTH",
"247 525 OFFCURVE",
"172 480 OFFCURVE",
"126 412 CURVE SMOOTH",
"123 408 OFFCURVE",
"120 409 OFFCURVE",
"120 414 CURVE SMOOTH",
"120 720 LINE SMOOTH",
"120 731 OFFCURVE",
"112 740 OFFCURVE",
"100 740 CURVE SMOOTH"
);
},
{
closed = 1;
nodes = (
"216 30 OFFCURVE",
"120 132 OFFCURVE",
"120 258 CURVE SMOOTH",
"120 384 OFFCURVE",
"216 485 OFFCURVE",
"332 485 CURVE SMOOTH",
"448 485 OFFCURVE",
"544 384 OFFCURVE",
"544 258 CURVE SMOOTH",
"544 132 OFFCURVE",
"448 30 OFFCURVE",
"332 30 CURVE SMOOTH"
);
}
);
width = 629;
}
);
leftKerningGroup = b;
rightKerningGroup = b;
unicode = 0062;
},
{
glyphname = c;
lastChange = "2013-12-18 08:31:49 +0400";
layers = (
{
anchors = (
{
name = bottom;
position = "{257, 0}";
},
{
name = top;
position = "{257, 515}";
}
);
layerId = "6A4EEAE7-E2C6-4FA4-83F5-ABDB5FD8E17B";
name = Light;
paths = (
{
closed = 1;
nodes = (
"430 508 OFFCURVE",
"377 525 OFFCURVE",
"320 525 CURVE SMOOTH",
"168 525 OFFCURVE",
"45 405 OFFCURVE",
"45 257 CURVE SMOOTH",
"45 110 OFFCURVE",
"168 -10 OFFCURVE",
"320 -10 CURVE SMOOTH",
"377 -10 OFFCURVE",
"430 6 OFFCURVE",
"474 36 CURVE SMOOTH",
"484 43 OFFCURVE",
"486 55 OFFCURVE",
"479 64 CURVE SMOOTH",
"472 73 OFFCURVE",
"461 74 OFFCURVE",
"451 68 CURVE SMOOTH",
"414 44 OFFCURVE",
"369 30 OFFCURVE",
"320 30 CURVE SMOOTH",
"191 30 OFFCURVE",
"85 132 OFFCURVE",
"85 257 CURVE SMOOTH",
"85 382 OFFCURVE",
"191 485 OFFCURVE",
"320 485 CURVE SMOOTH",
"369 485 OFFCURVE",
"414 470 OFFCURVE",
"451 446 CURVE SMOOTH",
"461 440 OFFCURVE",
"472 441 OFFCURVE",
"478 449 CURVE SMOOTH",
"486 459 OFFCURVE",
"485 472 OFFCURVE",
"474 479 CURVE SMOOTH"
);
}
);
width = 513.327;
}
);
leftKerningGroup = c;
rightKerningGroup = c;
unicode = 0063;
},
{
glyphname = d;
lastChange = "2013-12-18 08:31:49 +0400";
layers = (
{
anchors = (
{
name = center;
position = "{314, 258}";
},
{
name = topright;
position = "{607, 515}";
}
);
layerId = "6A4EEAE7-E2C6-4FA4-83F5-ABDB5FD8E17B";
name = Light;
paths = (
{
closed = 1;
nodes = (
"517 740 OFFCURVE",
"509 731 OFFCURVE",
"509 720 CURVE SMOOTH",
"509 414 LINE SMOOTH",
"509 409 OFFCURVE",
"506 408 OFFCURVE",
"503 412 CURVE SMOOTH",
"457 480 OFFCURVE",
"382 525 OFFCURVE",
"297 525 CURVE SMOOTH",
"158 525 OFFCURVE",
"45 406 OFFCURVE",
"45 258 CURVE SMOOTH",
"45 110 OFFCURVE",
"158 -10 OFFCURVE",
"297 -10 CURVE SMOOTH",
"382 -10 OFFCURVE",
"457 35 OFFCURVE",
"503 104 CURVE SMOOTH",
"506 108 OFFCURVE",
"509 107 OFFCURVE",
"509 102 CURVE SMOOTH",
"509 20 LINE SMOOTH",
"509 9 OFFCURVE",
"517 0 OFFCURVE",
"529 0 CURVE SMOOTH",
"540 0 OFFCURVE",
"549 9 OFFCURVE",
"549 20 CURVE SMOOTH",
"549 720 LINE SMOOTH",
"549 731 OFFCURVE",
"541 740 OFFCURVE",
"529 740 CURVE SMOOTH"
);
},
{
closed = 1;
nodes = (
"181 30 OFFCURVE",
"85 132 OFFCURVE",
"85 258 CURVE SMOOTH",
"85 384 OFFCURVE",
"181 485 OFFCURVE",
"297 485 CURVE SMOOTH",
"413 485 OFFCURVE",
"509 384 OFFCURVE",
"509 258 CURVE SMOOTH",
"509 132 OFFCURVE",
"413 30 OFFCURVE",
"297 30 CURVE SMOOTH"
);
}
);
width = 629;
}
);
leftKerningGroup = c;
rightKerningGroup = d;
unicode = 0064;
},
{
glyphname = eth;
lastChange = "2013-12-18 08:31:49 +0400";
layers = (
{
layerId = "6A4EEAE7-E2C6-4FA4-83F5-ABDB5FD8E17B";
name = Light;
paths = (
{
closed = 1;
nodes = (
"456 613 LINE SMOOTH",
"467 617 OFFCURVE",
"472 628 OFFCURVE",
"468 639 CURVE SMOOTH",
"464 650 OFFCURVE",
"453 655 OFFCURVE",
"442 650 CURVE",
"345 612 LINE SMOOTH",
"342 611 OFFCURVE",
"340 612 OFFCURVE",
"338 613 CURVE SMOOTH",
"294 652 OFFCURVE",
"237 682 OFFCURVE",
"164 699 CURVE SMOOTH",
"152 702 OFFCURVE",
"141 696 OFFCURVE",
"139 683 CURVE SMOOTH",
"137 672 OFFCURVE",
"143 663 OFFCURVE",
"155 660 CURVE SMOOTH",
"211 647 OFFCURVE",
"256 626 OFFCURVE",
"292 598 CURVE SMOOTH",
"295 596 OFFCURVE",
"295 593 OFFCURVE",
"291 591 CURVE SMOOTH",
"151 537 LINE SMOOTH",
"140 533 OFFCURVE",
"135 522 OFFCURVE",
"139 511 CURVE SMOOTH",
"143 500 OFFCURVE",
"154 495 OFFCURVE",
"165 500 CURVE",
"327 563 LINE SMOOTH",
"329 564 OFFCURVE",
"331 563 OFFCURVE",
"333 561 CURVE SMOOTH",
"385 506 OFFCURVE",
"413 439 OFFCURVE",
"428 379 CURVE",
"429 374 OFFCURVE",
"425 372 OFFCURVE",
"422 376 CURVE",
"381 417 OFFCURVE",
"325 443 OFFCURVE",
"262 443 CURVE SMOOTH",
"139 443 OFFCURVE",
"39.9999 344 OFFCURVE",
"39.9999 221 CURVE SMOOTH",
"39.9999 98.9999 OFFCURVE",
"139 -1 OFFCURVE",
"262 -1 CURVE SMOOTH",
"385 -1 OFFCURVE",
"485 98.9999 OFFCURVE",
"485 221 CURVE SMOOTH",
"485 230 OFFCURVE",
"497 433 OFFCURVE",
"376 575 CURVE SMOOTH",
"373 578 OFFCURVE",
"374 581 OFFCURVE",
"377 582 CURVE SMOOTH"
);
},
{
closed = 1;
nodes = (
"162 38.9998 OFFCURVE",
"79.9999 121 OFFCURVE",
"79.9999 221 CURVE SMOOTH",
"79.9999 322 OFFCURVE",
"161 403 OFFCURVE",
"262 403 CURVE SMOOTH",
"363 403 OFFCURVE",
"445 321 OFFCURVE",
"445 221 CURVE SMOOTH",
"445 121 OFFCURVE",
"363 38.9998 OFFCURVE",
"262 38.9998 CURVE SMOOTH"
);
}
);
width = 536;
}
);
unicode = 00F0;
},
{
glyphname = dcroat;
lastChange = "2013-12-18 08:31:49 +0400";
layers = (
{
components = (
{
name = d;
transform = "{1, 0, 0, 1, 0, 0}";
}
);
layerId = "6A4EEAE7-E2C6-4FA4-83F5-ABDB5FD8E17B";
name = Light;
paths = (
{
closed = 1;
nodes = (
"610 606 LINE SMOOTH",
"623 606 OFFCURVE",
"630 613 OFFCURVE",
"630 626 CURVE SMOOTH",
"630 627 LINE SMOOTH",
"630 640 OFFCURVE",
"623 647 OFFCURVE",
"610 647 CURVE SMOOTH",
"350 647 LINE SMOOTH",
"337 647 OFFCURVE",
"330 640 OFFCURVE",
"330 627 CURVE SMOOTH",
"330 626 LINE SMOOTH",
"330 613 OFFCURVE",
"337 606 OFFCURVE",
"350 606 CURVE SMOOTH"
);
}
);
width = 686;
}
);
unicode = 0111;
},
{
glyphname = e;
lastChange = "2013-12-18 08:31:49 +0400";
layers = (
{
anchors = (
{
name = bottom;
position = "{284, 0}";
},
{
name = ogonek;
position = "{509, 10}";
},
{
name = top;
position = "{284, 515}";
}
);
layerId = "6A4EEAE7-E2C6-4FA4-83F5-ABDB5FD8E17B";
name = Light;
paths = (
{
closed = 1;
nodes = (
"168 525 OFFCURVE",
"45 423 OFFCURVE",
"45 250 CURVE SMOOTH",
"45 92 OFFCURVE",
"153 -10 OFFCURVE",
"306 -10 CURVE SMOOTH",
"395 -10 OFFCURVE",
"472 38 OFFCURVE",
"518 98 CURVE SMOOTH",
"525 108 OFFCURVE",
"522 121 OFFCURVE",
"512 127 CURVE SMOOTH",
"511 128 LINE SMOOTH",
"501 134 OFFCURVE",
"490 131 OFFCURVE",
"483 122 CURVE SMOOTH",
"448 72 OFFCURVE",
"384 30 OFFCURVE",
"306 30 CURVE SMOOTH",
"185 30 OFFCURVE",
"101 98 OFFCURVE",
"87 221 CURVE SMOOTH",
"87 224 OFFCURVE",
"88 226 OFFCURVE",
"91 226 CURVE SMOOTH",
"527 226 LINE SMOOTH",
"538 226 OFFCURVE",
"547 235 OFFCURVE",
"547 247 CURVE SMOOTH",
"542 439 OFFCURVE",
"422 525 OFFCURVE",
"296 525 CURVE SMOOTH"
);
},
{
closed = 1;
nodes = (
"96 413 OFFCURVE",
"198 485 OFFCURVE",
"296 485 CURVE SMOOTH",
"392 485 OFFCURVE",
"494 415 OFFCURVE",
"506 271 CURVE SMOOTH",
"506 268 OFFCURVE",
"504 266 OFFCURVE",
"501 266 CURVE SMOOTH",
"90 266 LINE SMOOTH",
"87 266 OFFCURVE",
"85 268 OFFCURVE",
"85 271 CURVE SMOOTH"
);
}
);
width = 587;
}
);
leftKerningGroup = c;
rightKerningGroup = e;
unicode = 0065;
},
{
glyphname = f;
lastChange = "2013-12-18 08:31:49 +0400";
layers = (
{
layerId = "6A4EEAE7-E2C6-4FA4-83F5-ABDB5FD8E17B";
name = Light;
paths = (
{
closed = 1;
nodes = (
"124 520 LINE SMOOTH",
"124 517 OFFCURVE",
"122 515 OFFCURVE",
"119 515 CURVE SMOOTH",
"45 515 LINE SMOOTH",
"34 515 OFFCURVE",
"25 507 OFFCURVE",
"25 495 CURVE SMOOTH",
"25 484 OFFCURVE",
"34 475 OFFCURVE",
"45 475 CURVE SMOOTH",
"119 475 LINE SMOOTH",
"122 475 OFFCURVE",
"124 473 OFFCURVE",
"124 470 CURVE SMOOTH",
"124 20 LINE SMOOTH",
"124 9 OFFCURVE",
"132 0 OFFCURVE",
"144 0 CURVE SMOOTH",
"155 0 OFFCURVE",
"164 9 OFFCURVE",
"164 20 CURVE SMOOTH",
"164 470 LINE SMOOTH",
"164 473 OFFCURVE",
"166 475 OFFCURVE",
"169 475 CURVE SMOOTH",
"281 475 LINE SMOOTH",
"292 475 OFFCURVE",
"301 483 OFFCURVE",
"301 495 CURVE SMOOTH",
"301 506 OFFCURVE",
"292 515 OFFCURVE",
"281 515 CURVE SMOOTH",
"169 515 LINE SMOOTH",
"166 515 OFFCURVE",
"164 517 OFFCURVE",
"164 520 CURVE SMOOTH",
"164 615 LINE SMOOTH",
"164 695 OFFCURVE",
"218 714 OFFCURVE",
"282 688 CURVE SMOOTH",
"294 683 OFFCURVE",
"305 694 OFFCURVE",
"306 706 CURVE SMOOTH",
"307 718 OFFCURVE",
"297 724 OFFCURVE",
"284 728 CURVE SMOOTH",
"202 752 OFFCURVE",
"124 717 OFFCURVE",
"124 615 CURVE SMOOTH"
);
}
);
width = 326.069;
}
);
leftKerningGroup = f;
rightKerningGroup = f;
unicode = 0066;
},
{
glyphname = g;
lastChange = "2013-12-18 08:31:49 +0400";
layers = (
{
anchors = (
{
name = top;
position = "{313, 515}";
}
);
layerId = "6A4EEAE7-E2C6-4FA4-83F5-ABDB5FD8E17B";
name = Light;
paths = (
{
closed = 1;
nodes = (
"509 414 LINE SMOOTH",
"509 409 OFFCURVE",
"506 408 OFFCURVE",
"503 412 CURVE",
"457 480 OFFCURVE",
"382 525 OFFCURVE",
"297 525 CURVE SMOOTH",
"158 525 OFFCURVE",
"45 406 OFFCURVE",
"45 258 CURVE SMOOTH",
"45 110 OFFCURVE",
"158 -10 OFFCURVE",
"297 -10 CURVE SMOOTH",
"382 -10 OFFCURVE",
"457 35 OFFCURVE",
"503 104 CURVE",
"506 108 OFFCURVE",
"509 107 OFFCURVE",
"509 102 CURVE SMOOTH",
"509 49 LINE SMOOTH",
"509 -77 OFFCURVE",
"431 -162 OFFCURVE",
"305 -162 CURVE SMOOTH",
"238 -162 OFFCURVE",
"179 -137 OFFCURVE",
"156 -126 CURVE SMOOTH",
"146 -121 OFFCURVE",
"135 -125 OFFCURVE",
"130 -135 CURVE",
"125 -146 OFFCURVE",
"131 -156 OFFCURVE",
"141 -162 CURVE SMOOTH",
"172 -180 OFFCURVE",
"231 -200 OFFCURVE",
"303 -200 CURVE SMOOTH",
"448 -200 OFFCURVE",
"549 -105 OFFCURVE",
"549 49 CURVE SMOOTH",
"549 495 LINE SMOOTH",
"549 506 OFFCURVE",
"541 515 OFFCURVE",
"529 515 CURVE SMOOTH",
"517 515 OFFCURVE",
"509 506 OFFCURVE",
"509 495 CURVE SMOOTH"
);
},
{
closed = 1;
nodes = (
"181 30 OFFCURVE",
"85 132 OFFCURVE",
"85 258 CURVE SMOOTH",
"85 384 OFFCURVE",
"181 485 OFFCURVE",
"297 485 CURVE SMOOTH",
"413 485 OFFCURVE",
"509 384 OFFCURVE",
"509 258 CURVE SMOOTH",
"509 132 OFFCURVE",
"413 30 OFFCURVE",
"297 30 CURVE SMOOTH"
);
}
);
width = 629;
}
);
leftKerningGroup = g;
rightKerningGroup = g;
unicode = 0067;
},
{
glyphname = gcommaaccent;
lastChange = "2013-12-18 08:31:49 +0400";
layers = (
{
components = (
{
name = g;
transform = "{1, 0, 0, 1, -27, 0}";
}
);
layerId = "6A4EEAE7-E2C6-4FA4-83F5-ABDB5FD8E17B";
name = Light;
paths = (
{
closed = 1;
nodes = (
"309 787 OFFCURVE",
"295 788 OFFCURVE",
"280 780 CURVE SMOOTH",
"240 757 OFFCURVE",
"224 726 OFFCURVE",
"224 674 CURVE SMOOTH",
"224 631 LINE SMOOTH",
"224 613 OFFCURVE",
"237 600 OFFCURVE",
"255 600 CURVE SMOOTH",
"259 600 LINE SMOOTH",
"277 600 OFFCURVE",
"290 613 OFFCURVE",
"290 631 CURVE SMOOTH",
"290 654 LINE SMOOTH",
"290 672 OFFCURVE",
"279 685 OFFCURVE",
"263 685 CURVE",
"261 715 OFFCURVE",
"270 735 OFFCURVE",
"295 753 CURVE SMOOTH",
"309 762 OFFCURVE",
"317 772 OFFCURVE",
"313 780 CURVE SMOOTH"
);
}
);
width = 570;
}
);
unicode = 0123;
},
{
glyphname = h;
lastChange = "2013-12-18 08:31:49 +0400";
layers = (
{
anchors = (
{
name = center;
position = "{270, 258}";
},
{
name = top;
position = "{270, 515}";
}
);
layerId = "6A4EEAE7-E2C6-4FA4-83F5-ABDB5FD8E17B";
name = Light;
paths = (
{
closed = 1;
nodes = (
"214 525 OFFCURVE",
"144 478 OFFCURVE",
"126 442 CURVE SMOOTH",
"124 437 OFFCURVE",
"120 440 OFFCURVE",
"120 444 CURVE SMOOTH",
"120 720 LINE SMOOTH",
"120 731 OFFCURVE",
"112 740 OFFCURVE",
"100 740 CURVE SMOOTH",
"89 740 OFFCURVE",
"80 731 OFFCURVE",
"80 720 CURVE SMOOTH",
"80 20 LINE SMOOTH",
"80 9 OFFCURVE",
"88 0 OFFCURVE",
"100 0 CURVE SMOOTH",
"111 0 OFFCURVE",
"120 9 OFFCURVE",
"120 20 CURVE SMOOTH",
"120 332 LINE SMOOTH",
"120 416 OFFCURVE",
"209 485 OFFCURVE",
"293 485 CURVE SMOOTH",
"388 485 OFFCURVE",
"426 416 OFFCURVE",
"426 332 CURVE SMOOTH",
"426 20 LINE SMOOTH",
"426 9 OFFCURVE",
"434 0 OFFCURVE",
"446 0 CURVE SMOOTH",
"457 0 OFFCURVE",
"466 9 OFFCURVE",
"466 20 CURVE SMOOTH",
"466 332 LINE SMOOTH",
"466 438 OFFCURVE",
"410 525 OFFCURVE",
"293 525 CURVE SMOOTH"
);
}
);
width = 536;
}
);
leftKerningGroup = b;
rightKerningGroup = h;
unicode = 0068;
},
{
glyphname = hbar;
lastChange = "2013-12-18 08:31:49 +0400";
layers = (
{
layerId = "6A4EEAE7-E2C6-4FA4-83F5-ABDB5FD8E17B";
name = Light;
paths = (
{
closed = 1;
nodes = (
"199 600 LINE SMOOTH",
"199 603 OFFCURVE",
"201 605 OFFCURVE",
"204 605 CURVE SMOOTH",
"353 605 LINE SMOOTH",
"364 605 OFFCURVE",
"373 613 OFFCURVE",
"373 625 CURVE SMOOTH",
"373 636 OFFCURVE",
"364 645 OFFCURVE",
"353 645 CURVE SMOOTH",
"204 645 LINE SMOOTH",
"201 645 OFFCURVE",
"199 647 OFFCURVE",
"199 650 CURVE SMOOTH",
"199 720 LINE SMOOTH",
"199 731 OFFCURVE",
"191 740 OFFCURVE",
"179 740 CURVE SMOOTH",
"168 740 OFFCURVE",
"159 731 OFFCURVE",
"159 720 CURVE SMOOTH",
"159 650 LINE SMOOTH",
"159 647 OFFCURVE",
"157 645 OFFCURVE",
"154 645 CURVE SMOOTH",
"70 645 LINE SMOOTH",
"59 645 OFFCURVE",
"50 637 OFFCURVE",
"50 625 CURVE SMOOTH",
"50 614 OFFCURVE",
"59 605 OFFCURVE",
"70 605 CURVE SMOOTH",
"154 605 LINE SMOOTH",
"157 605 OFFCURVE",
"159 603 OFFCURVE",
"159 600 CURVE SMOOTH",
"159 20 LINE SMOOTH",
"159 9 OFFCURVE",
"167 0 OFFCURVE",
"179 0 CURVE SMOOTH",
"190 0 OFFCURVE",
"199 9 OFFCURVE",
"199 20 CURVE SMOOTH",
"199 307 LINE SMOOTH",
"199 391 OFFCURVE",
"268 460 OFFCURVE",
"352 460 CURVE SMOOTH",
"437 460 OFFCURVE",
"505 391 OFFCURVE",
"505 307 CURVE SMOOTH",
"505 20 LINE SMOOTH",
"505 9 OFFCURVE",
"513 0 OFFCURVE",
"525 0 CURVE SMOOTH",
"536 0 OFFCURVE",
"545 9 OFFCURVE",
"545 20 CURVE SMOOTH",
"545 307 LINE SMOOTH",
"545 413 OFFCURVE",
"459 500 OFFCURVE",
"352 500 CURVE SMOOTH",
"273 500 OFFCURVE",
"230 453 OFFCURVE",
"205 412 CURVE SMOOTH",
"202 407 OFFCURVE",
"199 410 OFFCURVE",
"199 414 CURVE SMOOTH"
);
}
);
width = 588;
}
);
unicode = 0127;
},
{
glyphname = i;
lastChange = "2013-12-18 08:31:49 +0400";
layers = (
{
layerId = "6A4EEAE7-E2C6-4FA4-83F5-ABDB5FD8E17B";
name = Light;
paths = (
{
closed = 1;
nodes = (
"120 700 LINE SMOOTH",
"120 711 OFFCURVE",
"112 720 OFFCURVE",
"100 720 CURVE SMOOTH",
"89 720 OFFCURVE",
"80 711 OFFCURVE",
"80 700 CURVE SMOOTH",
"80 631 LINE SMOOTH",
"80 620 OFFCURVE",
"88 611 OFFCURVE",
"100 611 CURVE SMOOTH",
"111 611 OFFCURVE",
"120 620 OFFCURVE",
"120 631 CURVE SMOOTH"
);
},
{
closed = 1;
nodes = (
"125 495 LINE SMOOTH",
"125 506 OFFCURVE",
"117 515 OFFCURVE",
"105 515 CURVE SMOOTH",
"94 515 OFFCURVE",
"85 506 OFFCURVE",
"85 495 CURVE SMOOTH",
"85 20 LINE SMOOTH",
"85 9 OFFCURVE",
"93 0 OFFCURVE",
"105 0 CURVE SMOOTH",
"116 0 OFFCURVE",
"125 9 OFFCURVE",
"125 20 CURVE SMOOTH"
);
}
);
width = 205;
}
);
leftKerningGroup = i;
rightKerningGroup = i;
unicode = 0069;
},
{
glyphname = dotlessi;
lastChange = "2013-12-18 08:31:49 +0400";
layers = (
{
layerId = "6A4EEAE7-E2C6-4FA4-83F5-ABDB5FD8E17B";
name = Light;
paths = (
{
closed = 1;
nodes = (
"95 495 LINE SMOOTH",
"95 506 OFFCURVE",
"87 515 OFFCURVE",
"75 515 CURVE SMOOTH",
"64 515 OFFCURVE",
"55 506 OFFCURVE",
"55 495 CURVE SMOOTH",
"55 20 LINE SMOOTH",
"55 9 OFFCURVE",
"63 0 OFFCURVE",
"75 0 CURVE SMOOTH",
"86 0 OFFCURVE",
"95 9 OFFCURVE",
"95 20 CURVE SMOOTH"
);
}
);
width = 150;
}
);
unicode = 0131;
},
{
glyphname = j;
lastChange = "2013-12-18 08:31:49 +0400";
layers = (
{
layerId = "6A4EEAE7-E2C6-4FA4-83F5-ABDB5FD8E17B";
name = Light;
paths = (
{
closed = 1;
nodes = (
"141 700 LINE SMOOTH",
"141 711 OFFCURVE",
"133 720 OFFCURVE",
"121 720 CURVE SMOOTH",
"110 720 OFFCURVE",
"101 711 OFFCURVE",
"101 700 CURVE SMOOTH",
"101 631 LINE SMOOTH",
"101 620 OFFCURVE",
"109 611 OFFCURVE",
"121 611 CURVE SMOOTH",
"132 611 OFFCURVE",
"141 620 OFFCURVE",
"141 631 CURVE SMOOTH"
);
},
{
closed = 1;
nodes = (
"70 -190 OFFCURVE",
"141 -145 OFFCURVE",
"141 -58 CURVE SMOOTH",
"141 495 LINE SMOOTH",
"141 506 OFFCURVE",
"133 515 OFFCURVE",
"121 515 CURVE SMOOTH",
"109 515 OFFCURVE",
"101 506 OFFCURVE",
"101 495 CURVE SMOOTH",
"101 -58 LINE SMOOTH",
"101 -124 OFFCURVE",
"47 -152 OFFCURVE",
"3 -159 CURVE SMOOTH",
"-7 -160 OFFCURVE",
"-15 -168 OFFCURVE",
"-15 -178 CURVE SMOOTH",
"-15 -180 LINE SMOOTH",
"-15 -191 OFFCURVE",
"-6 -200 OFFCURVE",
"7 -198 CURVE SMOOTH"
);
}
);
width = 221;
}
);
leftKerningGroup = j;
rightKerningGroup = j;
unicode = 006A;
},
{
glyphname = dotlessj;
lastChange = "2013-12-18 08:31:49 +0400";
layers = (
{
layerId = "6A4EEAE7-E2C6-4FA4-83F5-ABDB5FD8E17B";
name = Light;
paths = (
{
closed = 1;
nodes = (
"100 -190 OFFCURVE",
"171 -145 OFFCURVE",
"171 -58 CURVE SMOOTH",
"171 480 LINE SMOOTH",
"171 491 OFFCURVE",
"163 500 OFFCURVE",
"151 500 CURVE SMOOTH",
"139 500 OFFCURVE",
"131 491 OFFCURVE",
"131 480 CURVE SMOOTH",
"131 -58 LINE SMOOTH",
"131 -124 OFFCURVE",
"77 -152 OFFCURVE",
"33 -159 CURVE SMOOTH",
"23 -160 OFFCURVE",
"15 -168 OFFCURVE",
"15 -178 CURVE SMOOTH",
"15 -180 LINE SMOOTH",
"15 -191 OFFCURVE",
"24 -200 OFFCURVE",
"37 -198 CURVE SMOOTH"
);
}
);
width = 186;
}
);
unicode = 0237;
},
{
glyphname = k;
lastChange = "2013-12-18 08:31:49 +0400";
layers = (
{
anchors = (
{
name = bottom;
position = "{241, 0}";
}
);
layerId = "6A4EEAE7-E2C6-4FA4-83F5-ABDB5FD8E17B";
name = Light;
paths = (
{
closed = 1;
nodes = (
"239 278 LINE SMOOTH",
"237 280 OFFCURVE",
"237 283 OFFCURVE",
"239 285 CURVE SMOOTH",
"460 485 LINE SMOOTH",
"469 493 OFFCURVE",
"470 505 OFFCURVE",
"462 514 CURVE",
"454 522 OFFCURVE",
"442 523 OFFCURVE",
"434 515 CURVE",
"126 239 LINE SMOOTH",
"123 236 OFFCURVE",
"120 237 OFFCURVE",
"120 241 CURVE SMOOTH",
"120 720 LINE SMOOTH",
"120 731 OFFCURVE",
"112 740 OFFCURVE",
"100 740 CURVE SMOOTH",
"88 740 OFFCURVE",
"80 731 OFFCURVE",
"80 720 CURVE SMOOTH",
"80 20 LINE SMOOTH",
"80 9 OFFCURVE",
"88 0 OFFCURVE",
"100 0 CURVE SMOOTH",
"112 0 OFFCURVE",
"120 9 OFFCURVE",
"120 20 CURVE SMOOTH",
"120 177 LINE SMOOTH",
"120 179 OFFCURVE",
"121 181 OFFCURVE",
"123 183 CURVE SMOOTH",
"202 252 LINE SMOOTH",
"204 254 OFFCURVE",
"207 254 OFFCURVE",
"209 251 CURVE SMOOTH",
"438 7 LINE SMOOTH",
"446 -1 OFFCURVE",
"457 -2 OFFCURVE",
"465 5 CURVE",
"467 6 LINE",
"475 13 OFFCURVE",
"475 27 OFFCURVE",
"467 35 CURVE SMOOTH"
);
}
);
width = 483.096;
}
);
leftKerningGroup = b;
rightKerningGroup = k;
unicode = 006B;
},
{
glyphname = l;
lastChange = "2013-12-18 08:31:49 +0400";
layers = (
{
anchors = (
{
name = bottom;
position = "{100, 0}";
},
{
name = top;
position = "{100, 515}";
},
{
name = topright;
position = "{181, 515}";
}
);
layerId = "6A4EEAE7-E2C6-4FA4-83F5-ABDB5FD8E17B";
name = Light;
paths = (
{
closed = 1;
nodes = (
"120 720 LINE SMOOTH",
"120 731 OFFCURVE",
"112 740 OFFCURVE",
"100 740 CURVE SMOOTH",
"89 740 OFFCURVE",
"80 731 OFFCURVE",
"80 720 CURVE SMOOTH",
"80 20 LINE SMOOTH",
"80 9 OFFCURVE",
"88 0 OFFCURVE",
"100 0 CURVE SMOOTH",
"111 0 OFFCURVE",
"120 9 OFFCURVE",
"120 20 CURVE SMOOTH"
);
}
);
width = 200;
}
);
leftKerningGroup = b;
rightKerningGroup = l;
unicode = 006C;
},
{
glyphname = lslash;
lastChange = "2013-12-18 08:31:49 +0400";
layers = (
{
components = (
{
name = l;
transform = "{1, 0, 0, 1, 128, 0}";
}
);
layerId = "6A4EEAE7-E2C6-4FA4-83F5-ABDB5FD8E17B";
name = Light;
paths = (
{
closed = 1;
nodes = (
"22 354 LINE SMOOTH",
"10 349 OFFCURVE",
"7 340 OFFCURVE",
"12 328 CURVE SMOOTH",
"17 316 OFFCURVE",
"26 313 OFFCURVE",
"38 318 CURVE SMOOTH",
"371 464 LINE SMOOTH",
"383 469 OFFCURVE",
"386 478 OFFCURVE",
"381 490 CURVE SMOOTH",
"376 502 OFFCURVE",
"367 505 OFFCURVE",
"355 500 CURVE SMOOTH"
);
}
);
width = 393;
}
);
unicode = 0142;
},
{
glyphname = m;
lastChange = "2013-12-18 08:31:49 +0400";
layers = (
{
layerId = "6A4EEAE7-E2C6-4FA4-83F5-ABDB5FD8E17B";
name = Light;
paths = (
{
closed = 1;
nodes = (
"120 495 LINE SMOOTH",
"120 506 OFFCURVE",
"112 515 OFFCURVE",
"100 515 CURVE SMOOTH",
"89 515 OFFCURVE",
"80 506 OFFCURVE",
"80 495 CURVE SMOOTH",
"80 20 LINE SMOOTH",
"80 9 OFFCURVE",
"88 0 OFFCURVE",
"100 0 CURVE SMOOTH",
"111 0 OFFCURVE",
"120 9 OFFCURVE",
"120 20 CURVE SMOOTH",
"120 332 LINE SMOOTH",
"120 416 OFFCURVE",
"209 485 OFFCURVE",
"293 485 CURVE SMOOTH",
"388 485 OFFCURVE",
"426 416 OFFCURVE",
"426 332 CURVE SMOOTH",
"426 20 LINE SMOOTH",
"426 9 OFFCURVE",
"434 0 OFFCURVE",
"446 0 CURVE SMOOTH",
"458 0 OFFCURVE",
"466 9 OFFCURVE",
"466 20 CURVE SMOOTH",
"466 327 LINE SMOOTH",
"466 414 OFFCURVE",
"557 485 OFFCURVE",
"644 485 CURVE SMOOTH",
"742 485 OFFCURVE",
"783 414 OFFCURVE",
"783 327 CURVE SMOOTH",
"783 20 LINE SMOOTH",
"783 9 OFFCURVE",
"791 0 OFFCURVE",
"803 0 CURVE SMOOTH",
"815 0 OFFCURVE",
"823 9 OFFCURVE",
"823 20 CURVE SMOOTH",
"823 327 LINE SMOOTH",
"823 436 OFFCURVE",
"764 525 OFFCURVE",
"644 525 CURVE SMOOTH",
"570 525 OFFCURVE",
"496 484 OFFCURVE",
"456 423 CURVE SMOOTH",
"454 420 OFFCURVE",
"451 420 OFFCURVE",
"449 424 CURVE SMOOTH",
"425 484 OFFCURVE",
"373 525 OFFCURVE",
"293 525 CURVE SMOOTH",
"214 525 OFFCURVE",
"144 478 OFFCURVE",
"126 442 CURVE",
"124 437 OFFCURVE",
"120 440 OFFCURVE",
"120 444 CURVE SMOOTH"
);
}
);
width = 893;
}
);
leftKerningGroup = m;
rightKerningGroup = h;
unicode = 006D;
},
{
glyphname = n;
lastChange = "2013-12-18 08:31:49 +0400";
layers = (
{
anchors = (
{
name = bottom;
position = "{270, 0}";
},
{
name = top;
position = "{270, 515}";
}
);
layerId = "6A4EEAE7-E2C6-4FA4-83F5-ABDB5FD8E17B";
name = Light;
paths = (
{
closed = 1;
nodes = (
"214 525 OFFCURVE",
"144 478 OFFCURVE",
"126 442 CURVE SMOOTH",
"124 437 OFFCURVE",
"120 440 OFFCURVE",
"120 444 CURVE SMOOTH",
"120 495 LINE SMOOTH",
"120 506 OFFCURVE",
"112 515 OFFCURVE",
"100 515 CURVE SMOOTH",
"89 515 OFFCURVE",
"80 506 OFFCURVE",
"80 495 CURVE SMOOTH",
"80 20 LINE SMOOTH",
"80 9 OFFCURVE",
"88 0 OFFCURVE",
"100 0 CURVE SMOOTH",
"111 0 OFFCURVE",
"120 9 OFFCURVE",
"120 20 CURVE SMOOTH",
"120 332 LINE SMOOTH",
"120 416 OFFCURVE",
"209 485 OFFCURVE",
"293 485 CURVE SMOOTH",
"388 485 OFFCURVE",
"426 416 OFFCURVE",
"426 332 CURVE SMOOTH",
"426 20 LINE SMOOTH",
"426 9 OFFCURVE",
"434 0 OFFCURVE",
"446 0 CURVE SMOOTH",
"457 0 OFFCURVE",
"466 9 OFFCURVE",
"466 20 CURVE SMOOTH",
"466 332 LINE SMOOTH",
"466 438 OFFCURVE",
"410 525 OFFCURVE",
"293 525 CURVE SMOOTH"
);
}
);
width = 536;
}
);
leftKerningGroup = m;
rightKerningGroup = h;
unicode = 006E;
},
{
glyphname = eng;
lastChange = "2013-12-18 08:31:49 +0400";
layers = (
{
components = (
{
name = n;
transform = "{1, 0, 0, 1, 0, 0}";
}
);
layerId = "6A4EEAE7-E2C6-4FA4-83F5-ABDB5FD8E17B";
name = Light;
paths = (
{
closed = 1;
nodes = (
"429 -200 OFFCURVE",
"463 -123 OFFCURVE",
"463 -44 CURVE SMOOTH",
"463 -13 OFFCURVE",
"464 13 OFFCURVE",
"464 42 CURVE",
"424 42 LINE",
"424 13 OFFCURVE",
"423 -13 OFFCURVE",
"423 -44 CURVE SMOOTH",
"423 -111 OFFCURVE",
"402 -160 OFFCURVE",
"287 -160 CURVE SMOOTH",
"275 -160 OFFCURVE",
"266 -168 OFFCURVE",
"266 -180 CURVE SMOOTH",
"266 -192 OFFCURVE",
"275 -200 OFFCURVE",
"288 -200 CURVE SMOOTH"
);
}
);
width = 494;
}
);
unicode = 014B;
},
{
glyphname = o;
lastChange = "2013-12-18 08:31:49 +0400";
layers = (
{
anchors = (
{
name = top;
position = "{297, 515}";
}
);
layerId = "6A4EEAE7-E2C6-4FA4-83F5-ABDB5FD8E17B";
name = Light;
paths = (
{
closed = 1;
nodes = (
"508 132 OFFCURVE",
"413 30 OFFCURVE",
"297 30 CURVE",
"181 30 OFFCURVE",
"85 132 OFFCURVE",
"85 257 CURVE",
"85 383 OFFCURVE",
"181 485 OFFCURVE",
"297 485 CURVE",
"413 485 OFFCURVE",
"508 383 OFFCURVE",
"508 257 CURVE"
);
},
{
closed = 1;
nodes = (
"548 405 OFFCURVE",
"436 525 OFFCURVE",
"297 525 CURVE",
"158 525 OFFCURVE",
"45 405 OFFCURVE",
"45 257 CURVE",
"45 110 OFFCURVE",
"158 -10 OFFCURVE",
"297 -10 CURVE",
"436 -10 OFFCURVE",
"548 110 OFFCURVE",
"548 257 CURVE"
);
}
);
width = 593;
}
);
leftKerningGroup = c;
rightKerningGroup = b;
unicode = 006F;
},
{
glyphname = oslash;
lastChange = "2013-12-18 08:31:49 +0400";
layers = (
{
anchors = (
{
name = top;
position = "{269, 515}";
}
);
layerId = "6A4EEAE7-E2C6-4FA4-83F5-ABDB5FD8E17B";
name = Light;
paths = (
{
closed = 1;
nodes = (
"507 505 LINE SMOOTH",
"515 514 OFFCURVE",
"514 526 OFFCURVE",
"505 534 CURVE",
"496 541 OFFCURVE",
"484 540 OFFCURVE",
"477 531 CURVE",
"427 472 LINE SMOOTH",
"425 470 OFFCURVE",
"422 470 OFFCURVE",
"420 472 CURVE SMOOTH",
"378 505 OFFCURVE",
"326 525 OFFCURVE",
"269 525 CURVE SMOOTH",
"130 525 OFFCURVE",
"17 405 OFFCURVE",
"17 257 CURVE SMOOTH",
"17 188 OFFCURVE",
"42 125 OFFCURVE",
"82 77 CURVE SMOOTH",
"84 75 OFFCURVE",
"84 73 OFFCURVE",
"82 70 CURVE SMOOTH",
"30 9 LINE SMOOTH",
"22 0 OFFCURVE",
"23 -12 OFFCURVE",
"32 -20 CURVE",
"41 -27 OFFCURVE",
"53 -26 OFFCURVE",
"60 -17 CURVE",
"111 42 LINE SMOOTH",
"113 45 OFFCURVE",
"115 45 OFFCURVE",
"118 43 CURVE SMOOTH",
"160 9 OFFCURVE",
"212 -11 OFFCURVE",
"269 -11 CURVE SMOOTH",
"408 -11 OFFCURVE",
"520 110 OFFCURVE",
"520 257 CURVE SMOOTH",
"520 326 OFFCURVE",
"495 390 OFFCURVE",
"455 437 CURVE SMOOTH",
"453 440 OFFCURVE",
"453 442 OFFCURVE",
"455 444 CURVE SMOOTH"
);
},
{
closed = 1;
nodes = (
"57 383 OFFCURVE",
"153 485 OFFCURVE",
"269 485 CURVE SMOOTH",
"315 485 OFFCURVE",
"358 469 OFFCURVE",
"393 441 CURVE SMOOTH",
"396 439 OFFCURVE",
"396 437 OFFCURVE",
"394 434 CURVE SMOOTH",
"116 109 LINE SMOOTH",
"113 106 OFFCURVE",
"111 106 OFFCURVE",
"109 109 CURVE SMOOTH",
"77 149 OFFCURVE",
"57 201 OFFCURVE",
"57 257 CURVE SMOOTH"
);
},
{
closed = 1;
nodes = (
"223 30 OFFCURVE",
"179 46 OFFCURVE",
"144 74 CURVE SMOOTH",
"142 76 OFFCURVE",
"142 78 OFFCURVE",
"144 81 CURVE SMOOTH",
"422 406 LINE SMOOTH",
"424 408 OFFCURVE",
"427 408 OFFCURVE",
"429 406 CURVE SMOOTH",
"461 366 OFFCURVE",
"480 314 OFFCURVE",
"480 257 CURVE SMOOTH",
"480 132 OFFCURVE",
"385 29.9999 OFFCURVE",
"269 29.9999 CURVE SMOOTH"
);
}
);
width = 591;
}
);
unicode = 00F8;
},
{
glyphname = oe;
lastChange = "2013-12-18 08:31:49 +0400";
layers = (
{
anchors = (
{
name = bottom;
position = "{728, 0}";
},
{
name = ogonek;
position = "{953, 10}";
},
{
name = top;
position = "{728, 515}";
}
);
layerId = "6A4EEAE7-E2C6-4FA4-83F5-ABDB5FD8E17B";
name = Light;
paths = (
{
closed = 1;
nodes = (
"645 525 OFFCURVE",
"552 468 OFFCURVE",
"511 368 CURVE SMOOTH",
"509 363 OFFCURVE",
"506 362 OFFCURVE",
"504 367 CURVE SMOOTH",
"465 460 OFFCURVE",
"377 525 OFFCURVE",
"275 525 CURVE SMOOTH",
"136 525 OFFCURVE",
"22.9999 405 OFFCURVE",
"22.9999 257 CURVE SMOOTH",
"22.9999 110 OFFCURVE",
"136 -10 OFFCURVE",
"275 -10 CURVE SMOOTH",
"375 -10 OFFCURVE",
"462 53 OFFCURVE",
"502 143 CURVE SMOOTH",
"504 147 OFFCURVE",
"507 147 OFFCURVE",
"508 143 CURVE SMOOTH",
"546 47 OFFCURVE",
"635 -10 OFFCURVE",
"750 -10 CURVE SMOOTH",
"839 -10 OFFCURVE",
"916 38 OFFCURVE",
"962 98 CURVE",
"969 108 OFFCURVE",
"966 121 OFFCURVE",
"956 127 CURVE",
"955 128 LINE",
"945 134 OFFCURVE",
"934 131 OFFCURVE",
"927 122 CURVE",
"892 72 OFFCURVE",
"828 30 OFFCURVE",
"750 30 CURVE SMOOTH",
"629 30 OFFCURVE",
"545 98 OFFCURVE",
"531 221 CURVE",
"531 224 OFFCURVE",
"532 226 OFFCURVE",
"535 226 CURVE SMOOTH",
"971 226 LINE SMOOTH",
"982 226 OFFCURVE",
"991 235 OFFCURVE",
"991 247 CURVE",
"986 439 OFFCURVE",
"866 525 OFFCURVE",
"740 525 CURVE SMOOTH"
);
},
{
closed = 1;
nodes = (
"159 30 OFFCURVE",
"63 132 OFFCURVE",
"63 257 CURVE SMOOTH",
"63 383 OFFCURVE",
"159 485 OFFCURVE",
"275 485 CURVE SMOOTH",
"391 485 OFFCURVE",
"486 383 OFFCURVE",
"486 257 CURVE SMOOTH",
"486 132 OFFCURVE",
"391 30 OFFCURVE",
"275 30 CURVE SMOOTH"
);
},
{
closed = 1;
nodes = (
"534 266 LINE SMOOTH",
"531 266 OFFCURVE",
"529 268 OFFCURVE",
"529 271 CURVE",
"540 413 OFFCURVE",
"642 485 OFFCURVE",
"740 485 CURVE SMOOTH",
"836 485 OFFCURVE",
"938 415 OFFCURVE",
"950 271 CURVE",
"950 268 OFFCURVE",
"948 266 OFFCURVE",
"945 266 CURVE SMOOTH"
);
}
);
width = 970;
}
);
unicode = 0153;
},
{
glyphname = p;
lastChange = "2013-12-18 08:31:49 +0400";
layers = (
{
layerId = "6A4EEAE7-E2C6-4FA4-83F5-ABDB5FD8E17B";
name = Light;
paths = (
{
closed = 1;
nodes = (
"112 -200 OFFCURVE",
"120 -191 OFFCURVE",
"120 -180 CURVE SMOOTH",
"120 101 LINE SMOOTH",
"120 106 OFFCURVE",
"123 107 OFFCURVE",
"126 103 CURVE SMOOTH",
"172 35 OFFCURVE",
"247 -10 OFFCURVE",
"332 -10 CURVE SMOOTH",
"471 -10 OFFCURVE",
"584 109 OFFCURVE",
"584 257 CURVE SMOOTH",
"584 405 OFFCURVE",
"471 525 OFFCURVE",
"332 525 CURVE SMOOTH",
"247 525 OFFCURVE",
"172 480 OFFCURVE",
"126 411 CURVE SMOOTH",
"123 407 OFFCURVE",
"120 408 OFFCURVE",
"120 413 CURVE SMOOTH",
"120 495 LINE SMOOTH",
"120 506 OFFCURVE",
"112 515 OFFCURVE",
"100 515 CURVE SMOOTH",
"89 515 OFFCURVE",
"80 506 OFFCURVE",
"80 495 CURVE SMOOTH",
"80 -180 LINE SMOOTH",
"80 -191 OFFCURVE",
"88 -200 OFFCURVE",
"100 -200 CURVE SMOOTH"
);
},
{
closed = 1;
nodes = (
"448 485 OFFCURVE",
"544 383 OFFCURVE",
"544 257 CURVE SMOOTH",
"544 131 OFFCURVE",
"448 30 OFFCURVE",
"332 30 CURVE SMOOTH",
"216 30 OFFCURVE",
"120 131 OFFCURVE",
"120 257 CURVE SMOOTH",
"120 383 OFFCURVE",
"216 485 OFFCURVE",
"332 485 CURVE SMOOTH"
);
}
);
width = 629;
}
);
leftKerningGroup = p;
rightKerningGroup = b;
unicode = 0070;
},
{
glyphname = thorn;
lastChange = "2013-12-18 08:31:49 +0400";
layers = (
{
layerId = "6A4EEAE7-E2C6-4FA4-83F5-ABDB5FD8E17B";
name = Light;
paths = (
{
closed = 1;
nodes = (
"78 720 LINE SMOOTH",
"78 731 OFFCURVE",
"70 740 OFFCURVE",
"58 740 CURVE SMOOTH",
"47 740 OFFCURVE",
"38 731 OFFCURVE",
"38 720 CURVE SMOOTH",
"38 20 LINE SMOOTH",
"38 9 OFFCURVE",
"46 0 OFFCURVE",
"58 0 CURVE SMOOTH",
"69 0 OFFCURVE",
"78 9 OFFCURVE",
"78 20 CURVE SMOOTH",
"78 220 LINE SMOOTH",
"78 224 OFFCURVE",
"81 225 OFFCURVE",
"84 221 CURVE SMOOTH",
"127 160 OFFCURVE",
"195 120 OFFCURVE",
"273 120 CURVE SMOOTH",
"403 120 OFFCURVE",
"508 232 OFFCURVE",
"508 370 CURVE SMOOTH",
"508 508 OFFCURVE",
"403 620 OFFCURVE",
"273 620 CURVE SMOOTH",
"195 620 OFFCURVE",
"127 580 OFFCURVE",
"84 519 CURVE SMOOTH",
"81 515 OFFCURVE",
"78 516 OFFCURVE",
"78 520 CURVE SMOOTH"
);
},
{
closed = 1;
nodes = (
"166 160 OFFCURVE",
"78 254 OFFCURVE",
"78 370 CURVE SMOOTH",
"78 486 OFFCURVE",
"166 580 OFFCURVE",
"273 580 CURVE SMOOTH",
"380 580 OFFCURVE",
"468 486 OFFCURVE",
"468 370 CURVE SMOOTH",
"468 254 OFFCURVE",
"380 160 OFFCURVE",
"273 160 CURVE SMOOTH"
);
}
);
width = 558;
}
);
unicode = 00FE;
},
{
glyphname = q;
lastChange = "2013-12-18 08:31:49 +0400";
layers = (
{
layerId = "6A4EEAE7-E2C6-4FA4-83F5-ABDB5FD8E17B";
name = Light;
paths = (
{
closed = 1;
nodes = (
"541 -200 OFFCURVE",
"549 -191 OFFCURVE",
"549 -180 CURVE SMOOTH",
"549 495 LINE SMOOTH",
"549 506 OFFCURVE",
"540 515 OFFCURVE",
"529 515 CURVE SMOOTH",
"517 515 OFFCURVE",
"509 506 OFFCURVE",
"509 495 CURVE SMOOTH",
"509 413 LINE SMOOTH",
"509 408 OFFCURVE",
"506 407 OFFCURVE",
"503 411 CURVE SMOOTH",
"457 480 OFFCURVE",
"382 525 OFFCURVE",
"297 525 CURVE SMOOTH",
"158 525 OFFCURVE",
"45 405 OFFCURVE",
"45 257 CURVE SMOOTH",
"45 109 OFFCURVE",
"158 -10 OFFCURVE",
"297 -10 CURVE SMOOTH",
"382 -10 OFFCURVE",
"457 35 OFFCURVE",
"503 103 CURVE SMOOTH",
"506 107 OFFCURVE",
"509 106 OFFCURVE",
"509 101 CURVE SMOOTH",
"509 -180 LINE SMOOTH",
"509 -191 OFFCURVE",
"517 -200 OFFCURVE",
"529 -200 CURVE SMOOTH"
);
},
{
closed = 1;
nodes = (
"413 485 OFFCURVE",
"509 383 OFFCURVE",
"509 257 CURVE SMOOTH",
"509 131 OFFCURVE",
"413 30 OFFCURVE",
"297 30 CURVE SMOOTH",
"181 30 OFFCURVE",
"85 131 OFFCURVE",
"85 257 CURVE SMOOTH",
"85 383 OFFCURVE",
"181 485 OFFCURVE",
"297 485 CURVE SMOOTH"
);
}
);
width = 629;
}
);
leftKerningGroup = c;
rightKerningGroup = q;
unicode = 0071;
},
{
glyphname = r;
lastChange = "2013-12-18 08:31:49 +0400";
layers = (
{
anchors = (
{
name = bottom;
position = "{181, 0}";
},
{
name = top;
position = "{181, 515}";
}
);
layerId = "6A4EEAE7-E2C6-4FA4-83F5-ABDB5FD8E17B";
name = Light;
paths = (
{
closed = 1;
nodes = (
"246 516 OFFCURVE",
"170 444 OFFCURVE",
"126 375 CURVE SMOOTH",
"123 371 OFFCURVE",
"120 372 OFFCURVE",
"120 377 CURVE SMOOTH",
"120 495 LINE SMOOTH",
"120 506 OFFCURVE",
"112 515 OFFCURVE",
"100 515 CURVE SMOOTH",
"89 515 OFFCURVE",
"80 506 OFFCURVE",
"80 495 CURVE SMOOTH",
"80 20 LINE SMOOTH",
"80 9 OFFCURVE",
"88 0 OFFCURVE",
"100 0 CURVE SMOOTH",
"111 0 OFFCURVE",
"120 9 OFFCURVE",
"120 20 CURVE SMOOTH",
"120 249 LINE SMOOTH",
"120 344 OFFCURVE",
"218 473 OFFCURVE",
"335 485 CURVE SMOOTH",
"346 486 OFFCURVE",
"354 493 OFFCURVE",
"354 504 CURVE SMOOTH",
"354 517 OFFCURVE",
"345 526 OFFCURVE",
"332 525 CURVE SMOOTH"
);
}
);
width = 362;
}
);
leftKerningGroup = m;
rightKerningGroup = r;
unicode = 0072;
},
{
glyphname = s;
lastChange = "2013-12-18 08:31:49 +0400";
layers = (
{
anchors = (
{
name = bottom;
position = "{221, 0}";
},
{
name = top;
position = "{221, 515}";
}
);
layerId = "6A4EEAE7-E2C6-4FA4-83F5-ABDB5FD8E17B";
name = Light;
paths = (
{
closed = 1;
nodes = (
"59 56 OFFCURVE",
"121 -10 OFFCURVE",
"220 -10 CURVE SMOOTH",
"323 -10 OFFCURVE",
"403 46 OFFCURVE",
"403 122 CURVE SMOOTH",
"403 216 OFFCURVE",
"321 246 OFFCURVE",
"237 275 CURVE SMOOTH",
"149 305 OFFCURVE",
"81 318 OFFCURVE",
"81 387 CURVE SMOOTH",
"81 432 OFFCURVE",
"127 485 OFFCURVE",
"206 485 CURVE SMOOTH",
"279 485 OFFCURVE",
"309 455 OFFCURVE",
"336 431 CURVE SMOOTH",
"343 424 OFFCURVE",
"354 425 OFFCURVE",
"361 432 CURVE SMOOTH",
"370 441 OFFCURVE",
"369 454 OFFCURVE",
"359 462 CURVE SMOOTH",
"327 490 OFFCURVE",
"286 525 OFFCURVE",
"206 525 CURVE SMOOTH",
"103 525 OFFCURVE",
"41 458 OFFCURVE",
"41 387 CURVE SMOOTH",
"41 288 OFFCURVE",
"139 266 OFFCURVE",
"225 237 CURVE SMOOTH",
"307 209 OFFCURVE",
"363 186 OFFCURVE",
"363 122 CURVE SMOOTH",
"363 70 OFFCURVE",
"309 28 OFFCURVE",
"220 28 CURVE SMOOTH",
"128 28 OFFCURVE",
"82 93 OFFCURVE",
"70 106 CURVE SMOOTH",
"62 114 OFFCURVE",
"49 114 OFFCURVE",
"42 107 CURVE SMOOTH",
"33 98 OFFCURVE",
"33 89 OFFCURVE",
"44 75 CURVE SMOOTH"
);
}
);
width = 448;
}
);
leftKerningGroup = s;
rightKerningGroup = s;
unicode = 0073;
},
{
glyphname = germandbls;
lastChange = "2013-12-18 08:31:49 +0400";
layers = (
{
layerId = "6A4EEAE7-E2C6-4FA4-83F5-ABDB5FD8E17B";
name = Light;
paths = (
{
closed = 1;
nodes = (
"367 0 OFFCURVE",
"497 56 OFFCURVE",
"497 192 CURVE SMOOTH",
"497 306 OFFCURVE",
"423 355 OFFCURVE",
"350 372 CURVE SMOOTH",
"346 373 OFFCURVE",
"345 376 OFFCURVE",
"349 379 CURVE SMOOTH",
"434 433 OFFCURVE",
"452 507 OFFCURVE",
"452 558 CURVE SMOOTH",
"452 620 OFFCURVE",
"403 726 OFFCURVE",
"273 726 CURVE SMOOTH",
"109 726 OFFCURVE",
"59 599 OFFCURVE",
"59 513 CURVE SMOOTH",
"59 434 OFFCURVE",
"58 194 OFFCURVE",
"57 24 CURVE SMOOTH",
"57 11 OFFCURVE",
"64 4 OFFCURVE",
"77 4 CURVE SMOOTH",
"90 4 OFFCURVE",
"97 11 OFFCURVE",
"97 24 CURVE SMOOTH",
"98 193 OFFCURVE",
"99 434 OFFCURVE",
"99 513 CURVE SMOOTH",
"99 589 OFFCURVE",
"139 686 OFFCURVE",
"273 686 CURVE SMOOTH",
"375 686 OFFCURVE",
"412 609 OFFCURVE",
"412 558 CURVE SMOOTH",
"412 498 OFFCURVE",
"375 420 OFFCURVE",
"278 391 CURVE SMOOTH",
"254 384 OFFCURVE",
"256 351 OFFCURVE",
"282 347 CURVE SMOOTH",
"343 338 OFFCURVE",
"457 310 OFFCURVE",
"457 192 CURVE SMOOTH",
"457 86 OFFCURVE",
"355 40 OFFCURVE",
"275 40 CURVE SMOOTH",
"262 40 OFFCURVE",
"255 32 OFFCURVE",
"255 19 CURVE SMOOTH",
"255 6 OFFCURVE",
"262 0 OFFCURVE",
"275 0 CURVE SMOOTH"
);
}
);
width = 525;
}
);
unicode = 00DF;
},
{
glyphname = t;
lastChange = "2013-12-18 08:31:49 +0400";
layers = (
{
anchors = (
{
name = bottom;
position = "{148, 0}";
},
{
name = center;
position = "{148, 258}";
}
);
layerId = "6A4EEAE7-E2C6-4FA4-83F5-ABDB5FD8E17B";
name = Light;
paths = (
{
closed = 1;
nodes = (
"166 515 LINE SMOOTH",
"163 515 OFFCURVE",
"161 517 OFFCURVE",
"161 520 CURVE SMOOTH",
"161 630 LINE SMOOTH",
"161 641 OFFCURVE",
"153 650 OFFCURVE",
"141 650 CURVE SMOOTH",
"130 650 OFFCURVE",
"121 641 OFFCURVE",
"121 630 CURVE SMOOTH",
"121 520 LINE SMOOTH",
"121 517 OFFCURVE",
"119 515 OFFCURVE",
"116 515 CURVE SMOOTH",
"30 515 LINE SMOOTH",
"19 515 OFFCURVE",
"10 507 OFFCURVE",
"10 495 CURVE SMOOTH",
"10 484 OFFCURVE",
"19 475 OFFCURVE",
"30 475 CURVE SMOOTH",
"116 475 LINE SMOOTH",
"119 475 OFFCURVE",
"121 473 OFFCURVE",
"121 470 CURVE SMOOTH",
"121 107 LINE SMOOTH",
"121 -11 OFFCURVE",
"199 0 OFFCURVE",
"236 0 CURVE SMOOTH",
"248 0 OFFCURVE",
"257 9 OFFCURVE",
"257 20 CURVE SMOOTH",
"257 30 OFFCURVE",
"249 39 OFFCURVE",
"237 39 CURVE SMOOTH",
"216 39 OFFCURVE",
"161 22 OFFCURVE",
"161 109 CURVE SMOOTH",
"161 470 LINE SMOOTH",
"161 473 OFFCURVE",
"163 475 OFFCURVE",
"166 475 CURVE SMOOTH",
"260 475 LINE SMOOTH",
"271 475 OFFCURVE",
"280 483 OFFCURVE",
"280 495 CURVE SMOOTH",
"280 506 OFFCURVE",
"271 515 OFFCURVE",
"260 515 CURVE SMOOTH"
);
}
);
width = 295;
}
);
leftKerningGroup = t;
rightKerningGroup = t;
unicode = 0074;
},
{
glyphname = tbar;
lastChange = "2013-12-18 08:31:49 +0400";
layers = (
{
anchors = (
{
name = _top;
position = "{145, 200}";
}
);
components = (
{
name = t;
transform = "{1, 0, 0, 1, 0, 0}";
}
);
layerId = "6A4EEAE7-E2C6-4FA4-83F5-ABDB5FD8E17B";
name = Light;
paths = (
{
closed = 1;
nodes = (
"231 286 LINE SMOOTH",
"244 286 OFFCURVE",
"251 293 OFFCURVE",
"251 306 CURVE SMOOTH",
"251 307 LINE SMOOTH",
"251 320 OFFCURVE",
"244 327 OFFCURVE",
"231 327 CURVE SMOOTH",
"51 327 LINE SMOOTH",
"38 327 OFFCURVE",
"31 320 OFFCURVE",
"31 307 CURVE SMOOTH",
"31 306 LINE SMOOTH",
"31 293 OFFCURVE",
"38 286 OFFCURVE",
"51 286 CURVE SMOOTH"
);
}
);
width = 427;
}
);
unicode = 0167;
},
{
glyphname = u;
lastChange = "2013-12-18 08:31:49 +0400";
layers = (
{
anchors = (
{
name = ogonek;
position = "{490, 10}";
},
{
name = top;
position = "{272, 515}";
}
);
layerId = "6A4EEAE7-E2C6-4FA4-83F5-ABDB5FD8E17B";
name = Light;
paths = (
{
closed = 1;
nodes = (
"435 515 OFFCURVE",
"427 506 OFFCURVE",
"427 495 CURVE SMOOTH",
"427 188 LINE SMOOTH",
"427 101 OFFCURVE",
"356 30 OFFCURVE",
"268 30 CURVE SMOOTH",
"181 30 OFFCURVE",
"110 101 OFFCURVE",
"110 188 CURVE SMOOTH",
"110 495 LINE SMOOTH",
"110 506 OFFCURVE",
"102 515 OFFCURVE",
"90 515 CURVE SMOOTH",
"79 515 OFFCURVE",
"70 506 OFFCURVE",
"70 495 CURVE SMOOTH",
"70 188 LINE SMOOTH",
"70 79 OFFCURVE",
"159 -10 OFFCURVE",
"268 -10 CURVE SMOOTH",
"378 -10 OFFCURVE",
"467 79 OFFCURVE",
"467 188 CURVE SMOOTH",
"467 495 LINE SMOOTH",
"467 506 OFFCURVE",
"459 515 OFFCURVE",
"447 515 CURVE SMOOTH"
);
}
);
width = 547;
}
);
leftKerningGroup = u;
rightKerningGroup = u;
unicode = 0075;
},
{
glyphname = v;
lastChange = "2013-12-18 08:31:49 +0400";
layers = (
{
layerId = "6A4EEAE7-E2C6-4FA4-83F5-ABDB5FD8E17B";
name = Light;
paths = (
{
closed = 1;
nodes = (
"453 520 OFFCURVE",
"442 515 OFFCURVE",
"437 504 CURVE SMOOTH",
"259 77 LINE SMOOTH",
"257 73 OFFCURVE",
"254 73 OFFCURVE",
"252 77 CURVE SMOOTH",
"74 504 LINE SMOOTH",
"69 515 OFFCURVE",
"58 520 OFFCURVE",
"48 515 CURVE",
"37 510 OFFCURVE",
"32 499 OFFCURVE",
"37 488 CURVE SMOOTH",
"237 13 LINE SMOOTH",
"240 5 OFFCURVE",
"248 0 OFFCURVE",
"256 0 CURVE",
"264 0 OFFCURVE",
"272 5 OFFCURVE",
"275 13 CURVE SMOOTH",
"474 489 LINE SMOOTH",
"478 499 OFFCURVE",
"474 510 OFFCURVE",
"464 515 CURVE"
);
}
);
width = 511;
}
);
leftKerningGroup = v;
rightKerningGroup = v;
unicode = 0076;
},
{
glyphname = w;
lastChange = "2013-12-18 08:31:49 +0400";
layers = (
{
anchors = (
{
name = top;
position = "{366, 515}";
}
);
layerId = "6A4EEAE7-E2C6-4FA4-83F5-ABDB5FD8E17B";
name = Light;
paths = (
{
closed = 1;
nodes = (
"682 520 OFFCURVE",
"670 515 OFFCURVE",
"666 504 CURVE SMOOTH",
"509 71 LINE",
"389 385 LINE SMOOTH",
"386 393 OFFCURVE",
"378 398 OFFCURVE",
"370 398 CURVE",
"362 398 OFFCURVE",
"354 393 OFFCURVE",
"351 385 CURVE SMOOTH",
"231 71 LINE",
"74 504 LINE SMOOTH",
"70 515 OFFCURVE",
"58 520 OFFCURVE",
"48 515 CURVE",
"37 510 OFFCURVE",
"33 499 OFFCURVE",
"37 488 CURVE SMOOTH",
"212 13 LINE SMOOTH",
"215 5 OFFCURVE",
"223 0 OFFCURVE",
"231 0 CURVE",
"239 0 OFFCURVE",
"247 5 OFFCURVE",
"250 13 CURVE SMOOTH",
"370 327 LINE",
"490 13 LINE",
"494 5 OFFCURVE",
"501 0 OFFCURVE",
"509 0 CURVE SMOOTH",
"517 0 OFFCURVE",
"524 5 OFFCURVE",
"528 13 CURVE",
"703 488 LINE SMOOTH",
"707 499 OFFCURVE",
"703 510 OFFCURVE",
"692 515 CURVE"
);
}
);
width = 740;
}
);
leftKerningGroup = w;
rightKerningGroup = w;
unicode = 0077;
},
{
glyphname = x;
lastChange = "2013-12-18 08:31:49 +0400";
layers = (
{
layerId = "6A4EEAE7-E2C6-4FA4-83F5-ABDB5FD8E17B";
name = Light;
paths = (
{
closed = 1;
nodes = (
"254 254 LINE SMOOTH",
"252 256 OFFCURVE",
"252 259 OFFCURVE",
"254 261 CURVE SMOOTH",
"414 487 LINE SMOOTH",
"421 496 OFFCURVE",
"419 508 OFFCURVE",
"410 515 CURVE",
"400 522 OFFCURVE",
"388 520 OFFCURVE",
"381 510 CURVE SMOOTH",
"230 297 LINE SMOOTH",
"228 294 OFFCURVE",
"225 294 OFFCURVE",
"223 297 CURVE SMOOTH",
"72 510 LINE SMOOTH",
"65 520 OFFCURVE",
"53 522 OFFCURVE",
"44 515 CURVE",
"34 508 OFFCURVE",
"32 496 OFFCURVE",
"39 486 CURVE SMOOTH",
"199 261 LINE SMOOTH",
"200 259 OFFCURVE",
"200 257 OFFCURVE",
"199 255 CURVE SMOOTH",
"39 29 LINE SMOOTH",
"32 19 OFFCURVE",
"34 7 OFFCURVE",
"44 0 CURVE",
"53 -7 OFFCURVE",
"65 -5 OFFCURVE",
"72 4 CURVE SMOOTH",
"223 219 LINE SMOOTH",
"225 222 OFFCURVE",
"228 222 OFFCURVE",
"230 219 CURVE SMOOTH",
"381 5 LINE SMOOTH",
"388 -5 OFFCURVE",
"400 -7 OFFCURVE",
"409 0 CURVE SMOOTH",
"418 7 OFFCURVE",
"420 19 OFFCURVE",
"413 28 CURVE SMOOTH"
);
}
);
width = 453;
}
);
leftKerningGroup = x;
rightKerningGroup = x;
unicode = 0078;
},
{
glyphname = y;
lastChange = "2013-12-18 08:31:49 +0400";
layers = (
{
anchors = (
{
name = top;
position = "{286, 515}";
}
);
layerId = "6A4EEAE7-E2C6-4FA4-83F5-ABDB5FD8E17B";
name = Light;
paths = (
{
closed = 1;
nodes = (
"464 515 OFFCURVE",
"456 506 OFFCURVE",
"456 495 CURVE SMOOTH",
"456 203 LINE SMOOTH",
"456 96 OFFCURVE",
"360 30 OFFCURVE",
"263 30 CURVE SMOOTH",
"157 30 OFFCURVE",
"110 106 OFFCURVE",
"110 203 CURVE SMOOTH",
"110 495 LINE SMOOTH",
"110 506 OFFCURVE",
"102 515 OFFCURVE",
"90 515 CURVE SMOOTH",
"78 515 OFFCURVE",
"70 506 OFFCURVE",
"70 495 CURVE SMOOTH",
"70 203 LINE SMOOTH",
"70 88 OFFCURVE",
"139 -10 OFFCURVE",
"263 -10 CURVE SMOOTH",
"330 -10 OFFCURVE",
"407 22 OFFCURVE",
"450 82 CURVE SMOOTH",
"453 86 OFFCURVE",
"456 85 OFFCURVE",
"456 80 CURVE SMOOTH",
"456 49 LINE SMOOTH",
"456 -77 OFFCURVE",
"378 -162 OFFCURVE",
"262 -162 CURVE SMOOTH",
"205 -162 OFFCURVE",
"156 -140 OFFCURVE",
"133 -126 CURVE SMOOTH",
"123 -120 OFFCURVE",
"112 -125 OFFCURVE",
"107 -135 CURVE",
"102 -146 OFFCURVE",
"108 -155 OFFCURVE",
"118 -162 CURVE SMOOTH",
"149 -183 OFFCURVE",
"198 -200 OFFCURVE",
"260 -200 CURVE SMOOTH",
"395 -200 OFFCURVE",
"496 -105 OFFCURVE",
"496 49 CURVE SMOOTH",
"496 495 LINE SMOOTH",
"496 506 OFFCURVE",
"488 515 OFFCURVE",
"476 515 CURVE SMOOTH"
);
}
);
width = 576;
}
);
leftKerningGroup = y;
rightKerningGroup = y;
unicode = 0079;
},
{
glyphname = z;
lastChange = "2013-12-18 08:31:49 +0400";
layers = (
{
anchors = (
{
name = top;
position = "{230, 515}";
}
);
layerId = "6A4EEAE7-E2C6-4FA4-83F5-ABDB5FD8E17B";
name = Light;
paths = (
{
closed = 1;
nodes = (
"87 515 LINE SMOOTH",
"76 515 OFFCURVE",
"67 507 OFFCURVE",
"67 495 CURVE SMOOTH",
"67 484 OFFCURVE",
"76 475 OFFCURVE",
"87 475 CURVE SMOOTH",
"365 475 LINE SMOOTH",
"370 475 OFFCURVE",
"371 472 OFFCURVE",
"368 469 CURVE SMOOTH",
"41 33 LINE SMOOTH",
"34 25 OFFCURVE",
"34 15 OFFCURVE",
"42 7 CURVE",
"44 5 LINE",
"48 1 OFFCURVE",
"52 0 OFFCURVE",
"57 0 CURVE SMOOTH",
"393 0 LINE SMOOTH",
"404 0 OFFCURVE",
"413 8 OFFCURVE",
"413 20 CURVE SMOOTH",
"413 31 OFFCURVE",
"404 40 OFFCURVE",
"393 40 CURVE SMOOTH",
"105 40 LINE SMOOTH",
"100 40 OFFCURVE",
"99 43 OFFCURVE",
"102 46 CURVE SMOOTH",
"428 481 LINE SMOOTH",
"431 485 OFFCURVE",
"433 490 OFFCURVE",
"433 495 CURVE SMOOTH",
"432 506 OFFCURVE",
"424 515 OFFCURVE",
"413 515 CURVE SMOOTH"
);
}
);
width = 460.044;
}
);
leftKerningGroup = z;
rightKerningGroup = z;
unicode = 007A;
},
{
glyphname = fi;
lastChange = "2013-12-18 08:31:49 +0400";
layers = (
{
layerId = "6A4EEAE7-E2C6-4FA4-83F5-ABDB5FD8E17B";
name = Light;
paths = (
{
closed = 1;
nodes = (
"151 515 LINE SMOOTH",
"148 515 OFFCURVE",
"146 517 OFFCURVE",
"146 520 CURVE SMOOTH",
"146 577 LINE SMOOTH",
"146 680 OFFCURVE",
"238 746 OFFCURVE",
"373 625 CURVE SMOOTH",
"384 615 OFFCURVE",
"396 610 OFFCURVE",
"407 620 CURVE",
"417 630 OFFCURVE",
"415 644 OFFCURVE",
"403 656 CURVE SMOOTH",
"271 782 OFFCURVE",
"106 738 OFFCURVE",
"106 585 CURVE SMOOTH",
"106 520 LINE SMOOTH",
"106 517 OFFCURVE",
"104 515 OFFCURVE",
"101 515 CURVE SMOOTH",
"27 515 LINE SMOOTH",
"16 515 OFFCURVE",
"7 507 OFFCURVE",
"7 495 CURVE SMOOTH",
"7 484 OFFCURVE",
"16 475 OFFCURVE",
"27 475 CURVE SMOOTH",
"101 475 LINE SMOOTH",
"104 475 OFFCURVE",
"106 473 OFFCURVE",
"106 470 CURVE SMOOTH",
"106 20 LINE SMOOTH",
"106 9 OFFCURVE",
"114 0 OFFCURVE",
"126 0 CURVE SMOOTH",
"137 0 OFFCURVE",
"146 9 OFFCURVE",
"146 20 CURVE SMOOTH",
"146 470 LINE SMOOTH",
"146 473 OFFCURVE",
"148 475 OFFCURVE",
"151 475 CURVE SMOOTH",
"367 475 LINE SMOOTH",
"370 475 OFFCURVE",
"372 473 OFFCURVE",
"372 470 CURVE SMOOTH",
"372 20 LINE SMOOTH",
"372 9 OFFCURVE",
"380 0 OFFCURVE",
"392 0 CURVE SMOOTH",
"403 0 OFFCURVE",
"412 9 OFFCURVE",
"412 20 CURVE SMOOTH",
"412 495 LINE SMOOTH",
"412 506 OFFCURVE",
"404 515 OFFCURVE",
"392 515 CURVE SMOOTH"
);
}
);
width = 469;
}
);
leftMetricsKey = f;
rightMetricsKey = i;
unicode = FB01;
},
{
glyphname = fl;
lastChange = "2013-12-18 08:31:49 +0400";
layers = (
{
layerId = "6A4EEAE7-E2C6-4FA4-83F5-ABDB5FD8E17B";
name = Light;
paths = (
{
closed = 1;
nodes = (
"412 720 LINE",
"412 731 OFFCURVE",
"404 740 OFFCURVE",
"392 740 CURVE SMOOTH",
"381 740 OFFCURVE",
"372 731 OFFCURVE",
"372 720 CURVE SMOOTH",
"372 698 LINE",
"246 763 OFFCURVE",
"106 753 OFFCURVE",
"106 611 CURVE SMOOTH",
"106 505 LINE SMOOTH",
"106 502 OFFCURVE",
"104 500 OFFCURVE",
"101 500 CURVE SMOOTH",
"27 500 LINE SMOOTH",
"16 500 OFFCURVE",
"7 492 OFFCURVE",
"7 480 CURVE SMOOTH",
"7 469 OFFCURVE",
"16 460 OFFCURVE",
"27 460 CURVE SMOOTH",
"101 460 LINE SMOOTH",
"104 460 OFFCURVE",
"106 458 OFFCURVE",
"106 455 CURVE SMOOTH",
"106 20 LINE SMOOTH",
"106 9 OFFCURVE",
"114 0 OFFCURVE",
"126 0 CURVE SMOOTH",
"137 0 OFFCURVE",
"146 9 OFFCURVE",
"146 20 CURVE SMOOTH",
"146 455 LINE SMOOTH",
"146 458 OFFCURVE",
"148 460 OFFCURVE",
"151 460 CURVE SMOOTH",
"262 460 LINE SMOOTH",
"273 460 OFFCURVE",
"282 468 OFFCURVE",
"282 480 CURVE SMOOTH",
"282 492 OFFCURVE",
"273 500 OFFCURVE",
"262 500 CURVE SMOOTH",
"151 500 LINE SMOOTH",
"148 500 OFFCURVE",
"146 502 OFFCURVE",
"146 505 CURVE SMOOTH",
"146 613 LINE SMOOTH",
"146 716 OFFCURVE",
"237 728 OFFCURVE",
"372 650 CURVE",
"372 20 LINE SMOOTH",
"372 9 OFFCURVE",
"380 0 OFFCURVE",
"392 0 CURVE SMOOTH",
"403 0 OFFCURVE",
"412 9 OFFCURVE",
"412 20 CURVE"
);
}
);
width = 468;
}
);
leftMetricsKey = f;
rightMetricsKey = l;
unicode = FB02;
},
{
glyphname = ordfeminine;
lastChange = "2013-12-18 08:31:49 +0400";
layers = (
{
layerId = "6A4EEAE7-E2C6-4FA4-83F5-ABDB5FD8E17B";
name = Light;
paths = (
{
closed = 1;
nodes = (
"334 700 LINE",
"334 649 LINE SMOOTH",
"334 645 OFFCURVE",
"331 643 OFFCURVE",
"328 647 CURVE SMOOTH",
"298 680 OFFCURVE",
"256 700 OFFCURVE",
"210 700 CURVE SMOOTH",
"119 700 OFFCURVE",
"45 622 OFFCURVE",
"45 525 CURVE SMOOTH",
"45 428 OFFCURVE",
"119 350 OFFCURVE",
"210 350 CURVE SMOOTH",
"256 350 OFFCURVE",
"298 370 OFFCURVE",
"328 403 CURVE SMOOTH",
"331 407 OFFCURVE",
"334 405 OFFCURVE",
"334 401 CURVE SMOOTH",
"334 350 LINE",
"374 350 LINE",
"374 700 LINE"
);
},
{
closed = 1;
nodes = (
"142 390 OFFCURVE",
"85 450 OFFCURVE",
"85 525 CURVE SMOOTH",
"85 600 OFFCURVE",
"142 660 OFFCURVE",
"210 660 CURVE SMOOTH",
"278 660 OFFCURVE",
"334 600 OFFCURVE",
"334 525 CURVE SMOOTH",
"334 450 OFFCURVE",
"278 390 OFFCURVE",
"210 390 CURVE SMOOTH"
);
}
);
width = 454;
}
);
unicode = 00AA;
},
{
glyphname = ordmasculine;
lastChange = "2013-12-18 08:31:49 +0400";
layers = (
{
layerId = "6A4EEAE7-E2C6-4FA4-83F5-ABDB5FD8E17B";
name = Light;
paths = (
{
closed = 1;
nodes = (
"334 450 OFFCURVE",
"277 390 OFFCURVE",
"209 390 CURVE",
"141 390 OFFCURVE",
"85 450 OFFCURVE",
"85 525 CURVE",
"85 600 OFFCURVE",
"141 660 OFFCURVE",
"209 660 CURVE",
"277 660 OFFCURVE",
"334 600 OFFCURVE",
"334 525 CURVE"
);
},
{
closed = 1;
nodes = (
"374 622 OFFCURVE",
"300 700 OFFCURVE",
"209 700 CURVE",
"118 700 OFFCURVE",
"45 622 OFFCURVE",
"45 525 CURVE",
"45 428 OFFCURVE",
"118 350 OFFCURVE",
"209 350 CURVE",
"300 350 OFFCURVE",
"374 428 OFFCURVE",
"374 525 CURVE"
);
}
);
width = 419;
}
);
unicode = 00BA;
},
{
glyphname = pi;
lastChange = "2013-12-18 08:31:49 +0400";
layers = (
{
layerId = "6A4EEAE7-E2C6-4FA4-83F5-ABDB5FD8E17B";
name = Light;
paths = (
{
closed = 1;
nodes = (
"561 507 OFFCURVE",
"552 515 OFFCURVE",
"541 515 CURVE SMOOTH",
"52 515 LINE SMOOTH",
"41 515 OFFCURVE",
"32 507 OFFCURVE",
"32 495 CURVE SMOOTH",
"32 483 OFFCURVE",
"41 475 OFFCURVE",
"52 475 CURVE SMOOTH",
"111 475 LINE SMOOTH",
"114 475 OFFCURVE",
"116 473 OFFCURVE",
"116 470 CURVE SMOOTH",
"116 20 LINE SMOOTH",
"116 9 OFFCURVE",
"124 0 OFFCURVE",
"136 0 CURVE SMOOTH",
"148 0 OFFCURVE",
"156 9 OFFCURVE",
"156 20 CURVE SMOOTH",
"156 470 LINE SMOOTH",
"156 473 OFFCURVE",
"158 475 OFFCURVE",
"161 475 CURVE SMOOTH",
"431 475 LINE SMOOTH",
"434 475 OFFCURVE",
"436 473 OFFCURVE",
"436 470 CURVE SMOOTH",
"436 20 LINE SMOOTH",
"436 9 OFFCURVE",
"444 0 OFFCURVE",
"456 0 CURVE SMOOTH",
"468 0 OFFCURVE",
"476 9 OFFCURVE",
"476 20 CURVE SMOOTH",
"476 470 LINE SMOOTH",
"476 473 OFFCURVE",
"478 475 OFFCURVE",
"481 475 CURVE SMOOTH",
"541 475 LINE SMOOTH",
"552 475 OFFCURVE",
"561 483 OFFCURVE",
"561 495 CURVE SMOOTH"
);
}
);
width = 600;
}
);
unicode = 03C0;
},
{
glyphname = zero;
lastChange = "2013-12-18 08:31:49 +0400";
layers = (
{
layerId = "6A4EEAE7-E2C6-4FA4-83F5-ABDB5FD8E17B";
name = Light;
paths = (
{
closed = 1;
nodes = (
"488 172 OFFCURVE",
"422 40 OFFCURVE",
"294 40 CURVE",
"166 40 OFFCURVE",
"100 172 OFFCURVE",
"100 350 CURVE",
"100 528 OFFCURVE",
"166 660 OFFCURVE",
"294 660 CURVE",
"422 660 OFFCURVE",
"488 528 OFFCURVE",
"488 350 CURVE"
);
},
{
closed = 1;
nodes = (
"528 543 OFFCURVE",
"453 700 OFFCURVE",
"294 700 CURVE",
"135 700 OFFCURVE",
"60 543 OFFCURVE",
"60 350 CURVE",
"60 157 OFFCURVE",
"135 0 OFFCURVE",
"294 0 CURVE",
"453 0 OFFCURVE",
"528 157 OFFCURVE",
"528 350 CURVE"
);
}
);
width = 588;
}
);
unicode = 0030;
},
{
glyphname = one;
lastChange = "2013-12-18 08:31:49 +0400";
layers = (
{
layerId = "6A4EEAE7-E2C6-4FA4-83F5-ABDB5FD8E17B";
name = Light;
paths = (
{
closed = 1;
nodes = (
"51 583 LINE SMOOTH",
"40 576 OFFCURVE",
"37 565 OFFCURVE",
"43 555 CURVE SMOOTH",
"49 545 OFFCURVE",
"60 542 OFFCURVE",
"70 548 CURVE SMOOTH",
"227 642 LINE SMOOTH",
"230 644 OFFCURVE",
"233 642 OFFCURVE",
"233 638 CURVE SMOOTH",
"233 20 LINE SMOOTH",
"233 9 OFFCURVE",
"241 0 OFFCURVE",
"253 0 CURVE SMOOTH",
"264 0 OFFCURVE",
"273 9 OFFCURVE",
"273 20 CURVE SMOOTH",
"273 680 LINE SMOOTH",
"273 690 OFFCURVE",
"267 698 OFFCURVE",
"258 700 CURVE",
"253 701 OFFCURVE",
"247 701 OFFCURVE",
"241 697 CURVE SMOOTH"
);
}
);
width = 363;
}
);
unicode = 0031;
},
{
glyphname = two;
lastChange = "2013-12-18 08:31:49 +0400";
layers = (
{
layerId = "6A4EEAE7-E2C6-4FA4-83F5-ABDB5FD8E17B";
name = Light;
paths = (
{
closed = 1;
nodes = (
"118 40 LINE",
"330 253 LINE SMOOTH",
"419 343 OFFCURVE",
"551 460 OFFCURVE",
"437 615 CURVE SMOOTH",
"355 726 OFFCURVE",
"195 727 OFFCURVE",
"99 640 CURVE SMOOTH",
"77 620 LINE SMOOTH",
"68 612 OFFCURVE",
"67 600 OFFCURVE",
"75 592 CURVE",
"82 583 OFFCURVE",
"94 582 OFFCURVE",
"103 590 CURVE SMOOTH",
"126 610 LINE SMOOTH",
"208 685 OFFCURVE",
"337 679 OFFCURVE",
"406 586 CURVE SMOOTH",
"501 457 OFFCURVE",
"366 352 OFFCURVE",
"303 283 CURVE",
"58 37 LINE",
"55 34 LINE SMOOTH",
"52 30 OFFCURVE",
"50 26 OFFCURVE",
"50 21 CURVE SMOOTH",
"50 18 OFFCURVE",
"50 15 OFFCURVE",
"51 12 CURVE SMOOTH",
"54 7 OFFCURVE",
"58 3 OFFCURVE",
"64 1 CURVE",
"68 -1 OFFCURVE",
"71 -1 OFFCURVE",
"75 0 CURVE",
"487 0 LINE SMOOTH",
"498 0 OFFCURVE",
"507 8 OFFCURVE",
"507 20 CURVE SMOOTH",
"507 31 OFFCURVE",
"498 40 OFFCURVE",
"487 40 CURVE SMOOTH"
);
}
);
width = 577;
}
);
unicode = 0032;
},
{
glyphname = three;
lastChange = "2013-12-18 08:31:49 +0400";
layers = (
{
layerId = "6A4EEAE7-E2C6-4FA4-83F5-ABDB5FD8E17B";
name = Light;
paths = (
{
closed = 1;
nodes = (
"431 665 LINE SMOOTH",
"436 671 OFFCURVE",
"438 678 OFFCURVE",
"436 684 CURVE",
"434 693 OFFCURVE",
"426 700 OFFCURVE",
"416 700 CURVE SMOOTH",
"70 700 LINE SMOOTH",
"59 700 OFFCURVE",
"50 692 OFFCURVE",
"50 680 CURVE SMOOTH",
"50 669 OFFCURVE",
"59 660 OFFCURVE",
"70 660 CURVE SMOOTH",
"364 660 LINE SMOOTH",
"369 660 OFFCURVE",
"370 657 OFFCURVE",
"367 654 CURVE SMOOTH",
"171 434 LINE SMOOTH",
"163 425 OFFCURVE",
"164 413 OFFCURVE",
"173 405 CURVE SMOOTH",
"178 400 OFFCURVE",
"184 399 OFFCURVE",
"189 400 CURVE SMOOTH",
"285 416 OFFCURVE",
"409 376 OFFCURVE",
"409 228 CURVE SMOOTH",
"409 123 OFFCURVE",
"326 40 OFFCURVE",
"222 40 CURVE SMOOTH",
"170 40 OFFCURVE",
"127 52 OFFCURVE",
"94 83 CURVE",
"86 90 OFFCURVE",
"75 91 OFFCURVE",
"67 84 CURVE SMOOTH",
"58 76 OFFCURVE",
"57 63 OFFCURVE",
"66 54 CURVE",
"107 17 OFFCURVE",
"165 0 OFFCURVE",
"222 0 CURVE SMOOTH",
"344 0 OFFCURVE",
"449 105 OFFCURVE",
"449 228 CURVE SMOOTH",
"449 368 OFFCURVE",
"342 434 OFFCURVE",
"242 444 CURVE SMOOTH",
"238 444 OFFCURVE",
"236 447 OFFCURVE",
"239 450 CURVE SMOOTH"
);
}
);
width = 519;
}
);
unicode = 0033;
},
{
glyphname = four;
lastChange = "2013-12-18 08:31:49 +0400";
layers = (
{
layerId = "6A4EEAE7-E2C6-4FA4-83F5-ABDB5FD8E17B";
name = Light;
paths = (
{
closed = 1;
nodes = (
"470 215 LINE SMOOTH",
"467 215 OFFCURVE",
"465 217 OFFCURVE",
"465 220 CURVE SMOOTH",
"465 680 LINE SMOOTH",
"465 691 OFFCURVE",
"457 700 OFFCURVE",
"445 700 CURVE SMOOTH",
"443 700 OFFCURVE",
"441 700 OFFCURVE",
"439 699 CURVE",
"435 698 OFFCURVE",
"431 696 OFFCURVE",
"428 692 CURVE SMOOTH",
"56 209 LINE SMOOTH",
"50 202 OFFCURVE",
"49 194 OFFCURVE",
"53 187 CURVE",
"56 180 OFFCURVE",
"63 175 OFFCURVE",
"71 175 CURVE SMOOTH",
"420 175 LINE SMOOTH",
"423 175 OFFCURVE",
"425 173 OFFCURVE",
"425 170 CURVE SMOOTH",
"425 20 LINE SMOOTH",
"425 9 OFFCURVE",
"433 0 OFFCURVE",
"445 0 CURVE SMOOTH",
"456 0 OFFCURVE",
"465 9 OFFCURVE",
"465 20 CURVE SMOOTH",
"465 170 LINE SMOOTH",
"465 173 OFFCURVE",
"467 175 OFFCURVE",
"470 175 CURVE SMOOTH",
"541 175 LINE SMOOTH",
"552 175 OFFCURVE",
"561 183 OFFCURVE",
"561 195 CURVE SMOOTH",
"561 206 OFFCURVE",
"552 215 OFFCURVE",
"541 215 CURVE SMOOTH"
);
},
{
closed = 1;
nodes = (
"119 215 LINE SMOOTH",
"114 215 OFFCURVE",
"113 218 OFFCURVE",
"116 221 CURVE SMOOTH",
"419 614 LINE SMOOTH",
"422 617 OFFCURVE",
"425 616 OFFCURVE",
"425 612 CURVE SMOOTH",
"425 220 LINE SMOOTH",
"425 217 OFFCURVE",
"423 215 OFFCURVE",
"420 215 CURVE SMOOTH"
);
}
);
width = 641;
}
);
unicode = 0034;
},
{
glyphname = five;
lastChange = "2013-12-18 08:31:49 +0400";
layers = (
{
layerId = "6A4EEAE7-E2C6-4FA4-83F5-ABDB5FD8E17B";
name = Light;
paths = (
{
closed = 1;
nodes = (
"131 655 LINE SMOOTH",
"131 658 OFFCURVE",
"133 660 OFFCURVE",
"136 660 CURVE SMOOTH",
"411 660 LINE SMOOTH",
"422 660 OFFCURVE",
"431 668 OFFCURVE",
"431 680 CURVE SMOOTH",
"431 691 OFFCURVE",
"422 700 OFFCURVE",
"411 700 CURVE SMOOTH",
"116 700 LINE",
"110 701 OFFCURVE",
"105 699 OFFCURVE",
"101 696 CURVE SMOOTH",
"99 694 OFFCURVE",
"97 691 OFFCURVE",
"95 688 CURVE",
"94 683 LINE",
"55 427 LINE SMOOTH",
"53 419 OFFCURVE",
"56 412 OFFCURVE",
"62 408 CURVE",
"70 401 OFFCURVE",
"81 401 OFFCURVE",
"89 408 CURVE SMOOTH",
"172 477 OFFCURVE",
"293 473 OFFCURVE",
"370 396 CURVE SMOOTH",
"452 314 OFFCURVE",
"452 183 OFFCURVE",
"369 101 CURVE SMOOTH",
"292 23 OFFCURVE",
"171 18 OFFCURVE",
"88 87 CURVE SMOOTH",
"80 94 OFFCURVE",
"69 95 OFFCURVE",
"61 87 CURVE SMOOTH",
"52 78 OFFCURVE",
"52 65 OFFCURVE",
"62 57 CURVE SMOOTH",
"158 -23 OFFCURVE",
"307 -18 OFFCURVE",
"398 72 CURVE SMOOTH",
"493 168 OFFCURVE",
"493 329 OFFCURVE",
"398 424 CURVE SMOOTH",
"321 501 OFFCURVE",
"202 516 OFFCURVE",
"108 469 CURVE SMOOTH",
"105 467 OFFCURVE",
"102 469 OFFCURVE",
"103 473 CURVE SMOOTH"
);
}
);
width = 539.25;
}
);
unicode = 0035;
},
{
glyphname = six;
lastChange = "2013-12-18 08:31:49 +0400";
layers = (
{
layerId = "6A4EEAE7-E2C6-4FA4-83F5-ABDB5FD8E17B";
name = Light;
paths = (
{
closed = 1;
nodes = (
"405 697 OFFCURVE",
"394 703 OFFCURVE",
"382 700 CURVE SMOOTH",
"38 622 OFFCURVE",
"61 225 OFFCURVE",
"61 212 CURVE SMOOTH",
"61 90 OFFCURVE",
"161 -10 OFFCURVE",
"284 -10 CURVE SMOOTH",
"407 -10 OFFCURVE",
"506 90 OFFCURVE",
"506 212 CURVE SMOOTH",
"506 335 OFFCURVE",
"407 434 OFFCURVE",
"284 434 CURVE SMOOTH",
"221 434 OFFCURVE",
"165 408 OFFCURVE",
"124 367 CURVE SMOOTH",
"121 363 OFFCURVE",
"117 365 OFFCURVE",
"118 370 CURVE SMOOTH",
"145 479 OFFCURVE",
"215 621 OFFCURVE",
"391 661 CURVE SMOOTH",
"403 664 OFFCURVE",
"409 673 OFFCURVE",
"407 684 CURVE SMOOTH"
);
},
{
closed = 1;
nodes = (
"385 394 OFFCURVE",
"466 313 OFFCURVE",
"466 212 CURVE SMOOTH",
"466 112 OFFCURVE",
"384 30 OFFCURVE",
"284 30 CURVE SMOOTH",
"183 30 OFFCURVE",
"101 112 OFFCURVE",
"101 212 CURVE SMOOTH",
"101 312 OFFCURVE",
"183 394 OFFCURVE",
"284 394 CURVE SMOOTH"
);
}
);
width = 556;
}
);
unicode = 0036;
},
{
glyphname = seven;
lastChange = "2013-12-18 08:31:49 +0400";
layers = (
{
layerId = "6A4EEAE7-E2C6-4FA4-83F5-ABDB5FD8E17B";
name = Light;
paths = (
{
closed = 1;
nodes = (
"80 700 LINE SMOOTH",
"69 700 OFFCURVE",
"60 692 OFFCURVE",
"60 680 CURVE SMOOTH",
"60 669 OFFCURVE",
"69 660 OFFCURVE",
"80 660 CURVE SMOOTH",
"414 660 LINE SMOOTH",
"418 660 OFFCURVE",
"420 658 OFFCURVE",
"418 654 CURVE SMOOTH",
"153 26 LINE SMOOTH",
"149 16 OFFCURVE",
"153 5 OFFCURVE",
"163 0 CURVE",
"174 -5 OFFCURVE",
"185 0 OFFCURVE",
"190 11 CURVE SMOOTH",
"469 672 LINE SMOOTH",
"473 682 OFFCURVE",
"469 693 OFFCURVE",
"459 698 CURVE",
"454 700 LINE",
"450 700 LINE"
);
}
);
width = 540.533;
}
);
unicode = 0037;
},
{
glyphname = eight;
lastChange = "2013-12-18 08:31:49 +0400";
layers = (
{
layerId = "6A4EEAE7-E2C6-4FA4-83F5-ABDB5FD8E17B";
name = Light;
paths = (
{
closed = 1;
nodes = (
"397 433 OFFCURVE",
"429 482 OFFCURVE",
"429 539 CURVE SMOOTH",
"429 629 OFFCURVE",
"348 700 OFFCURVE",
"268 700 CURVE SMOOTH",
"187 700 OFFCURVE",
"106 629 OFFCURVE",
"106 539 CURVE SMOOTH",
"106 482 OFFCURVE",
"138 432 OFFCURVE",
"182 404 CURVE SMOOTH",
"186 401 OFFCURVE",
"185 399 OFFCURVE",
"182 397 CURVE SMOOTH",
"112 364 OFFCURVE",
"60 293 OFFCURVE",
"60 209 CURVE SMOOTH",
"60 92 OFFCURVE",
"161 0 OFFCURVE",
"268 0 CURVE SMOOTH",
"375 0 OFFCURVE",
"477 92 OFFCURVE",
"477 209 CURVE SMOOTH",
"477 293 OFFCURVE",
"424 364 OFFCURVE",
"354 397 CURVE SMOOTH",
"350 399 OFFCURVE",
"350 402 OFFCURVE",
"353 404 CURVE SMOOTH"
);
},
{
closed = 1;
nodes = (
"146 611 OFFCURVE",
"205 660 OFFCURVE",
"268 660 CURVE SMOOTH",
"330 660 OFFCURVE",
"389 611 OFFCURVE",
"389 539 CURVE SMOOTH",
"389 466 OFFCURVE",
"330 417 OFFCURVE",
"268 417 CURVE SMOOTH",
"205 417 OFFCURVE",
"146 466 OFFCURVE",
"146 539 CURVE"
);
},
{
closed = 1;
nodes = (
"179 40 OFFCURVE",
"100 110 OFFCURVE",
"100 209 CURVE SMOOTH",
"100 307 OFFCURVE",
"179 377 OFFCURVE",
"268 377 CURVE SMOOTH",
"357 377 OFFCURVE",
"437 307 OFFCURVE",
"437 209 CURVE SMOOTH",
"437 110 OFFCURVE",
"357 40 OFFCURVE",
"268 40 CURVE SMOOTH"
);
}
);
width = 537;
}
);
unicode = 0038;
},
{
glyphname = nine;
lastChange = "2013-12-18 08:31:49 +0400";
layers = (
{
layerId = "6A4EEAE7-E2C6-4FA4-83F5-ABDB5FD8E17B";
name = Light;
paths = (
{
closed = 1;
nodes = (
"151 3 OFFCURVE",
"162 -3 OFFCURVE",
"174 0 CURVE SMOOTH",
"518 78 OFFCURVE",
"495 475 OFFCURVE",
"495 488 CURVE SMOOTH",
"495 610 OFFCURVE",
"395 710 OFFCURVE",
"272 710 CURVE SMOOTH",
"149 710 OFFCURVE",
"50 610 OFFCURVE",
"50 488 CURVE SMOOTH",
"50 365 OFFCURVE",
"149 266 OFFCURVE",
"272 266 CURVE SMOOTH",
"335 266 OFFCURVE",
"391 292 OFFCURVE",
"432 333 CURVE SMOOTH",
"435 337 OFFCURVE",
"439 335 OFFCURVE",
"438 330 CURVE SMOOTH",
"411 221 OFFCURVE",
"341 79 OFFCURVE",
"165 39 CURVE SMOOTH",
"153 36 OFFCURVE",
"147 27 OFFCURVE",
"149 16 CURVE SMOOTH"
);
},
{
closed = 1;
nodes = (
"171 306 OFFCURVE",
"90 387 OFFCURVE",
"90 488 CURVE SMOOTH",
"90 588 OFFCURVE",
"172 670 OFFCURVE",
"272 670 CURVE SMOOTH",
"373 670 OFFCURVE",
"455 588 OFFCURVE",
"455 488 CURVE SMOOTH",
"455 388 OFFCURVE",
"373 306 OFFCURVE",
"272 306 CURVE SMOOTH"
);
}
);
width = 555.32;
}
);
unicode = 0039;
},
{
glyphname = fraction;
lastChange = "2013-12-18 08:31:49 +0400";
layers = (
{
layerId = "6A4EEAE7-E2C6-4FA4-83F5-ABDB5FD8E17B";
name = Light;
paths = (
{
closed = 1;
nodes = (
"484 706 OFFCURVE",
"472 704 OFFCURVE",
"466 694 CURVE SMOOTH",
"28 28 LINE SMOOTH",
"22 18 OFFCURVE",
"24 6 OFFCURVE",
"33 0 CURVE SMOOTH",
"43 -6 OFFCURVE",
"55 -4 OFFCURVE",
"61 6 CURVE SMOOTH",
"499 672 LINE SMOOTH",
"505 682 OFFCURVE",
"503 694 OFFCURVE",
"494 700 CURVE SMOOTH"
);
}
);
width = 527.43;
}
);
unicode = 2044;
},
{
glyphname = onehalf;
lastChange = "2013-12-18 08:31:49 +0400";
layers = (
{
layerId = "6A4EEAE7-E2C6-4FA4-83F5-ABDB5FD8E17B";
leftMetricsKey = one;
rightMetricsKey = two;
name = Light;
paths = (
{
closed = 1;
nodes = (
"586 706 OFFCURVE",
"574 704 OFFCURVE",
"568 694 CURVE SMOOTH",
"130 28 LINE SMOOTH",
"124 18 OFFCURVE",
"126 6 OFFCURVE",
"135 0 CURVE SMOOTH",
"145 -6 OFFCURVE",
"157 -4 OFFCURVE",
"163 6 CURVE SMOOTH",
"601 672 LINE SMOOTH",
"607 682 OFFCURVE",
"605 694 OFFCURVE",
"596 700 CURVE SMOOTH"
);
},
{
closed = 1;
nodes = (
"51 626 LINE SMOOTH",
"40 619 OFFCURVE",
"37 608 OFFCURVE",
"43 598 CURVE SMOOTH",
"49 588 OFFCURVE",
"60 585 OFFCURVE",
"70 591 CURVE SMOOTH",
"153 641 LINE SMOOTH",
"156 643 OFFCURVE",
"159 641 OFFCURVE",
"159 637 CURVE SMOOTH",
"159 321 LINE SMOOTH",
"159 310 OFFCURVE",
"167 301 OFFCURVE",
"179 301 CURVE SMOOTH",
"190 301 OFFCURVE",
"199 310 OFFCURVE",
"199 321 CURVE SMOOTH",
"199 679 LINE SMOOTH",
"199 689 OFFCURVE",
"193 697 OFFCURVE",
"184 699 CURVE",
"179 700 OFFCURVE",
"173 700 OFFCURVE",
"167 696 CURVE SMOOTH"
);
},
{
closed = 1;
nodes = (
"593 40 LINE SMOOTH",
"588 40 OFFCURVE",
"587 43 OFFCURVE",
"590 46 CURVE SMOOTH",
"616 71 OFFCURVE",
"643 97 OFFCURVE",
"657 112 CURVE SMOOTH",
"706 163 OFFCURVE",
"766 204 OFFCURVE",
"766 278 CURVE SMOOTH",
"766 333 OFFCURVE",
"720 400 OFFCURVE",
"632 400 CURVE SMOOTH",
"577 400 OFFCURVE",
"533 375 OFFCURVE",
"507 345 CURVE SMOOTH",
"498 335 OFFCURVE",
"500 323 OFFCURVE",
"509 315 CURVE",
"518 308 OFFCURVE",
"528 309 OFFCURVE",
"536 317 CURVE SMOOTH",
"559 339 OFFCURVE",
"587 360 OFFCURVE",
"632 360 CURVE SMOOTH",
"696 360 OFFCURVE",
"726 311 OFFCURVE",
"726 278 CURVE SMOOTH",
"726 220 OFFCURVE",
"678 189 OFFCURVE",
"629 140 CURVE SMOOTH",
"607 118 OFFCURVE",
"555 68 OFFCURVE",
"524 37 CURVE",
"521 34 LINE",
"518 31 OFFCURVE",
"516 26 OFFCURVE",
"516 20 CURVE SMOOTH",
"516 9 OFFCURVE",
"525 0 OFFCURVE",
"536 0 CURVE SMOOTH",
"764 0 LINE SMOOTH",
"775 0 OFFCURVE",
"784 8 OFFCURVE",
"784 20 CURVE SMOOTH",
"784 31 OFFCURVE",
"775 40 OFFCURVE",
"764 40 CURVE SMOOTH"
);
}
);
width = 854;
}
);
leftMetricsKey = one.numr;
rightMetricsKey = one.numr;
unicode = 00BD;
},
{
glyphname = onequarter;
lastChange = "2013-12-18 08:31:49 +0400";
layers = (
{
layerId = "6A4EEAE7-E2C6-4FA4-83F5-ABDB5FD8E17B";
rightMetricsKey = four;
name = Light;
paths = (
{
closed = 1;
nodes = (
"586 706 OFFCURVE",
"574 704 OFFCURVE",
"568 694 CURVE SMOOTH",
"130 28 LINE SMOOTH",
"124 18 OFFCURVE",
"126 6 OFFCURVE",
"135 0 CURVE SMOOTH",
"145 -6 OFFCURVE",
"157 -4 OFFCURVE",
"163 6 CURVE SMOOTH",
"601 672 LINE SMOOTH",
"607 682 OFFCURVE",
"605 694 OFFCURVE",
"596 700 CURVE SMOOTH"
);
},
{
closed = 1;
nodes = (
"51 626 LINE SMOOTH",
"40 619 OFFCURVE",
"37 608 OFFCURVE",
"43 598 CURVE SMOOTH",
"49 588 OFFCURVE",
"60 585 OFFCURVE",
"70 591 CURVE SMOOTH",
"153 641 LINE SMOOTH",
"156 643 OFFCURVE",
"159 641 OFFCURVE",
"159 637 CURVE SMOOTH",
"159 321 LINE SMOOTH",
"159 310 OFFCURVE",
"167 301 OFFCURVE",
"179 301 CURVE SMOOTH",
"190 301 OFFCURVE",
"199 310 OFFCURVE",
"199 321 CURVE SMOOTH",
"199 679 LINE SMOOTH",
"199 689 OFFCURVE",
"193 697 OFFCURVE",
"184 699 CURVE SMOOTH",
"179 700 OFFCURVE",
"173 700 OFFCURVE",
"167 696 CURVE SMOOTH"
);
},
{
closed = 1;
nodes = (
"631 135 LINE SMOOTH",
"628 135 OFFCURVE",
"626 137 OFFCURVE",
"626 140 CURVE SMOOTH",
"626 382 LINE SMOOTH",
"626 392.125 OFFCURVE",
"619.222 400.555 OFFCURVE",
"608.786 401.832 CURVE",
"601.585 403.298 OFFCURVE",
"594.011 400.443 OFFCURVE",
"589 394 CURVE SMOOTH",
"381 127 LINE SMOOTH",
"373 117 OFFCURVE",
"375 106 OFFCURVE",
"384 99 CURVE SMOOTH",
"388.5 95.5 OFFCURVE",
"393.75 94.25 OFFCURVE",
"398.75 95 CURVE",
"581 95 LINE SMOOTH",
"584 95 OFFCURVE",
"586 93 OFFCURVE",
"586 90 CURVE SMOOTH",
"586 20 LINE SMOOTH",
"586 9 OFFCURVE",
"594 0 OFFCURVE",
"606 0 CURVE SMOOTH",
"618 0 OFFCURVE",
"626 9 OFFCURVE",
"626 20 CURVE SMOOTH",
"626 90 LINE SMOOTH",
"626 93 OFFCURVE",
"628 95 OFFCURVE",
"631 95 CURVE SMOOTH",
"648 95 LINE SMOOTH",
"659 95 OFFCURVE",
"668 103 OFFCURVE",
"668 115 CURVE SMOOTH",
"668 127 OFFCURVE",
"659 135 OFFCURVE",
"648 135 CURVE SMOOTH"
);
},
{
closed = 1;
nodes = (
"445 135 LINE SMOOTH",
"440 135 OFFCURVE",
"439 138 OFFCURVE",
"442 141 CURVE SMOOTH",
"580 318 LINE SMOOTH",
"583 322 OFFCURVE",
"586 321 OFFCURVE",
"586 316 CURVE SMOOTH",
"586 140 LINE SMOOTH",
"586 137 OFFCURVE",
"584 135 OFFCURVE",
"581 135 CURVE SMOOTH"
);
}
);
width = 748;
}
);
leftMetricsKey = one.numr;
rightMetricsKey = one.numr;
unicode = 00BC;
},
{
glyphname = threequarters;
lastChange = "2013-12-18 08:31:49 +0400";
layers = (
{
layerId = "6A4EEAE7-E2C6-4FA4-83F5-ABDB5FD8E17B";
leftMetricsKey = three;
rightMetricsKey = four;
name = Light;
paths = (
{
closed = 1;
nodes = (
"674 135 LINE SMOOTH",
"671 135 OFFCURVE",
"669 137 OFFCURVE",
"669 140 CURVE SMOOTH",
"669 382 LINE SMOOTH",
"669 392 OFFCURVE",
"662 401 OFFCURVE",
"652 402 CURVE",
"645 403 OFFCURVE",
"637 400 OFFCURVE",
"632 394 CURVE SMOOTH",
"424 127 LINE SMOOTH",
"416 117 OFFCURVE",
"418 106 OFFCURVE",
"427 99 CURVE SMOOTH",
"432 96 OFFCURVE",
"437 94 OFFCURVE",
"442 95 CURVE",
"624 95 LINE SMOOTH",
"627 95 OFFCURVE",
"629 93 OFFCURVE",
"629 90 CURVE SMOOTH",
"629 20 LINE SMOOTH",
"629 9 OFFCURVE",
"637 0 OFFCURVE",
"649 0 CURVE SMOOTH",
"661 0 OFFCURVE",
"669 9 OFFCURVE",
"669 20 CURVE SMOOTH",
"669 90 LINE SMOOTH",
"669 93 OFFCURVE",
"671 95 OFFCURVE",
"674 95 CURVE SMOOTH",
"691 95 LINE SMOOTH",
"702 95 OFFCURVE",
"711 103 OFFCURVE",
"711 115 CURVE SMOOTH",
"711 127 OFFCURVE",
"702 135 OFFCURVE",
"691 135 CURVE SMOOTH"
);
},
{
closed = 1;
nodes = (
"488 135 LINE SMOOTH",
"483 135 OFFCURVE",
"482 138 OFFCURVE",
"485 141 CURVE SMOOTH",
"623 318 LINE SMOOTH",
"626 322 OFFCURVE",
"629 321 OFFCURVE",
"629 316 CURVE SMOOTH",
"629 140 LINE SMOOTH",
"629 137 OFFCURVE",
"627 135 OFFCURVE",
"624 135 CURVE SMOOTH"
);
},
{
closed = 1;
nodes = (
"629 706 OFFCURVE",
"617 704 OFFCURVE",
"611 694 CURVE SMOOTH",
"173 28 LINE SMOOTH",
"167 18 OFFCURVE",
"169 6 OFFCURVE",
"178 0 CURVE SMOOTH",
"188 -6 OFFCURVE",
"200 -4 OFFCURVE",
"206 6 CURVE SMOOTH",
"644 672 LINE SMOOTH",
"650 682 OFFCURVE",
"648 694 OFFCURVE",
"639 700 CURVE SMOOTH"
);
},
{
closed = 1;
nodes = (
"272 666 LINE SMOOTH",
"279 674 OFFCURVE",
"280 684 OFFCURVE",
"273 692 CURVE",
"270 697 OFFCURVE",
"264 700 OFFCURVE",
"257 700 CURVE SMOOTH",
"70 700 LINE SMOOTH",
"59 700 OFFCURVE",
"50 692 OFFCURVE",
"50 680 CURVE SMOOTH",
"50 669 OFFCURVE",
"59 660 OFFCURVE",
"70 660 CURVE SMOOTH",
"203 660 LINE SMOOTH",
"208 660 OFFCURVE",
"209 657 OFFCURVE",
"206 654 CURVE SMOOTH",
"118 558 LINE SMOOTH",
"112 551 OFFCURVE",
"110 543 OFFCURVE",
"114 536 CURVE",
"117 529 OFFCURVE",
"124 525 OFFCURVE",
"131 524 CURVE SMOOTH",
"135 524 LINE",
"136 524 LINE SMOOTH",
"213 531 OFFCURVE",
"252 492 OFFCURVE",
"252 437 CURVE SMOOTH",
"252 374 OFFCURVE",
"196 340 OFFCURVE",
"154 340 CURVE SMOOTH",
"120 340 OFFCURVE",
"101 349 OFFCURVE",
"86 362 CURVE",
"78 368 OFFCURVE",
"68 369 OFFCURVE",
"60 363 CURVE",
"59 362 LINE",
"50 354 OFFCURVE",
"48 341 OFFCURVE",
"58 332 CURVE SMOOTH",
"78 314 OFFCURVE",
"103 300 OFFCURVE",
"154 300 CURVE SMOOTH",
"212 300 OFFCURVE",
"292 350 OFFCURVE",
"292 437 CURVE SMOOTH",
"292 500 OFFCURVE",
"256 552 OFFCURVE",
"186 563 CURVE SMOOTH",
"182 564 OFFCURVE",
"180 566 OFFCURVE",
"183 569 CURVE SMOOTH"
);
}
);
width = 791;
}
);
leftMetricsKey = three.numr;
rightMetricsKey = three.numr;
unicode = 00BE;
},
{
glyphname = onesuperior;
lastChange = "2013-12-18 08:31:49 +0400";
layers = (
{
layerId = "6A4EEAE7-E2C6-4FA4-83F5-ABDB5FD8E17B";
rightMetricsKey = one;
name = Light;
paths = (
{
closed = 1;
nodes = (
"41 627 LINE SMOOTH",
"30 620 OFFCURVE",
"27 609 OFFCURVE",
"33 599 CURVE SMOOTH",
"39 589 OFFCURVE",
"50 586 OFFCURVE",
"60 592 CURVE SMOOTH",
"143 642 LINE SMOOTH",
"146 644 OFFCURVE",
"149 642 OFFCURVE",
"149 638 CURVE SMOOTH",
"149 322 LINE SMOOTH",
"149 311 OFFCURVE",
"157 302 OFFCURVE",
"169 302 CURVE SMOOTH",
"180 302 OFFCURVE",
"189 311 OFFCURVE",
"189 322 CURVE SMOOTH",
"189 680 LINE SMOOTH",
"189 690 OFFCURVE",
"183 698 OFFCURVE",
"174 700 CURVE",
"169 701 OFFCURVE",
"163 701 OFFCURVE",
"157 697 CURVE SMOOTH"
);
}
);
width = 249.038;
}
);
rightMetricsKey = one;
unicode = 00B9;
},
{
glyphname = twosuperior;
lastChange = "2013-12-18 08:31:49 +0400";
layers = (
{
layerId = "6A4EEAE7-E2C6-4FA4-83F5-ABDB5FD8E17B";
leftMetricsKey = two;
rightMetricsKey = two;
name = Light;
paths = (
{
closed = 1;
nodes = (
"142 340 LINE SMOOTH",
"137 340 OFFCURVE",
"136 343 OFFCURVE",
"139 346 CURVE SMOOTH",
"165 371 OFFCURVE",
"192 397 OFFCURVE",
"206 412 CURVE SMOOTH",
"255 463 OFFCURVE",
"315 504 OFFCURVE",
"315 578 CURVE SMOOTH",
"315 633 OFFCURVE",
"269 700 OFFCURVE",
"181 700 CURVE SMOOTH",
"126 700 OFFCURVE",
"82 675 OFFCURVE",
"56 645 CURVE SMOOTH",
"47 635 OFFCURVE",
"49 623 OFFCURVE",
"58 615 CURVE",
"67 608 OFFCURVE",
"77 609 OFFCURVE",
"85 617 CURVE SMOOTH",
"108 639 OFFCURVE",
"136 660 OFFCURVE",
"181 660 CURVE SMOOTH",
"245 660 OFFCURVE",
"275 611 OFFCURVE",
"275 578 CURVE SMOOTH",
"275 520 OFFCURVE",
"227 489 OFFCURVE",
"178 440 CURVE SMOOTH",
"156 418 OFFCURVE",
"104 368 OFFCURVE",
"73 337 CURVE",
"70 334 LINE",
"67 331 OFFCURVE",
"65 326 OFFCURVE",
"65 320 CURVE SMOOTH",
"65 309 OFFCURVE",
"74 300 OFFCURVE",
"85 300 CURVE SMOOTH",
"313 300 LINE SMOOTH",
"324 300 OFFCURVE",
"333 308 OFFCURVE",
"333 320 CURVE SMOOTH",
"333 331 OFFCURVE",
"324 340 OFFCURVE",
"313 340 CURVE SMOOTH"
);
}
);
width = 403;
}
);
leftMetricsKey = two;
rightMetricsKey = two;
unicode = 00B2;
},
{
glyphname = threesuperior;
lastChange = "2013-12-18 08:31:49 +0400";
layers = (
{
layerId = "6A4EEAE7-E2C6-4FA4-83F5-ABDB5FD8E17B";
leftMetricsKey = three;
rightMetricsKey = three;
name = Light;
paths = (
{
closed = 1;
nodes = (
"272 666 LINE SMOOTH",
"279 674 OFFCURVE",
"280 684 OFFCURVE",
"273 692 CURVE",
"270 697 OFFCURVE",
"264 700 OFFCURVE",
"257 700 CURVE SMOOTH",
"70 700 LINE SMOOTH",
"59 700 OFFCURVE",
"50 692 OFFCURVE",
"50 680 CURVE SMOOTH",
"50 669 OFFCURVE",
"59 660 OFFCURVE",
"70 660 CURVE SMOOTH",
"203 660 LINE SMOOTH",
"208 660 OFFCURVE",
"209 657 OFFCURVE",
"206 654 CURVE SMOOTH",
"118 558 LINE SMOOTH",
"112 551 OFFCURVE",
"110 543 OFFCURVE",
"114 536 CURVE",
"117 529 OFFCURVE",
"124 525 OFFCURVE",
"131 524 CURVE SMOOTH",
"135 524 LINE",
"136 524 LINE SMOOTH",
"213 531 OFFCURVE",
"252 492 OFFCURVE",
"252 437 CURVE SMOOTH",
"252 374 OFFCURVE",
"196 340 OFFCURVE",
"154 340 CURVE SMOOTH",
"120 340 OFFCURVE",
"101 349 OFFCURVE",
"86 362 CURVE",
"78 368 OFFCURVE",
"68 369 OFFCURVE",
"60 363 CURVE",
"59 362 LINE",
"50 354 OFFCURVE",
"48 341 OFFCURVE",
"58 332 CURVE SMOOTH",
"78 314 OFFCURVE",
"103 300 OFFCURVE",
"154 300 CURVE SMOOTH",
"212 300 OFFCURVE",
"292 350 OFFCURVE",
"292 437 CURVE SMOOTH",
"292 500 OFFCURVE",
"256 552 OFFCURVE",
"186 563 CURVE SMOOTH",
"182 564 OFFCURVE",
"180 566 OFFCURVE",
"183 569 CURVE SMOOTH"
);
}
);
width = 362;
}
);
leftMetricsKey = three;
rightMetricsKey = three;
unicode = 00B3;
},
{
glyphname = asterisk;
lastChange = "2013-12-18 08:31:49 +0400";
layers = (
{
layerId = "6A4EEAE7-E2C6-4FA4-83F5-ABDB5FD8E17B";
name = Light;
paths = (
{
closed = 1;
nodes = (
"281 490 OFFCURVE",
"277 502 OFFCURVE",
"265 508 CURVE SMOOTH",
"175 551 LINE SMOOTH",
"171 552 OFFCURVE",
"171 556 OFFCURVE",
"175 557 CURVE SMOOTH",
"265 600 LINE SMOOTH",
"277 606 OFFCURVE",
"281 618 OFFCURVE",
"275 628 CURVE SMOOTH",
"269 639 OFFCURVE",
"256 642 OFFCURVE",
"246 635 CURVE SMOOTH",
"164 579 LINE SMOOTH",
"161 577 OFFCURVE",
"158 579 OFFCURVE",
"159 583 CURVE SMOOTH",
"165 680 LINE SMOOTH",
"166 692 OFFCURVE",
"158 702 OFFCURVE",
"147 702 CURVE SMOOTH",
"135 702 OFFCURVE",
"126 692 OFFCURVE",
"127 680 CURVE SMOOTH",
"133 583 LINE SMOOTH",
"134 579 OFFCURVE",
"131 577 OFFCURVE",
"128 579 CURVE SMOOTH",
"46 635 LINE SMOOTH",
"36 642 OFFCURVE",
"24 640 OFFCURVE",
"18 630 CURVE SMOOTH",
"11 619 OFFCURVE",
"15 606 OFFCURVE",
"27 600 CURVE SMOOTH",
"117 557 LINE SMOOTH",
"121 556 OFFCURVE",
"121 552 OFFCURVE",
"117 551 CURVE SMOOTH",
"27 508 LINE SMOOTH",
"15 502 OFFCURVE",
"11 490 OFFCURVE",
"17 480 CURVE SMOOTH",
"23 469 OFFCURVE",
"36 466 OFFCURVE",
"46 473 CURVE SMOOTH",
"128 529 LINE SMOOTH",
"131 531 OFFCURVE",
"134 529 OFFCURVE",
"133 525 CURVE SMOOTH",
"127 428 LINE SMOOTH",
"126 416 OFFCURVE",
"134 406 OFFCURVE",
"145 406 CURVE SMOOTH",
"157 406 OFFCURVE",
"166 416 OFFCURVE",
"165 428 CURVE SMOOTH",
"159 525 LINE SMOOTH",
"158 529 OFFCURVE",
"161 531 OFFCURVE",
"164 529 CURVE SMOOTH",
"246 473 LINE SMOOTH",
"256 466 OFFCURVE",
"269 469 OFFCURVE",
"275 480 CURVE SMOOTH"
);
}
);
width = 291;
}
);
unicode = 002A;
},
{
glyphname = backslash;
lastChange = "2013-12-18 08:31:49 +0400";
layers = (
{
layerId = "6A4EEAE7-E2C6-4FA4-83F5-ABDB5FD8E17B";
name = Light;
paths = (
{
closed = 1;
nodes = (
"4 798 OFFCURVE",
"-1 788 OFFCURVE",
"6 774 CURVE SMOOTH",
"459 -114 LINE SMOOTH",
"464 -124 OFFCURVE",
"471 -128 OFFCURVE",
"482 -128 CURVE SMOOTH",
"488 -128 LINE SMOOTH",
"504 -128 OFFCURVE",
"510 -118 OFFCURVE",
"503 -104 CURVE SMOOTH",
"50 784 LINE SMOOTH",
"45 794 OFFCURVE",
"38 798 OFFCURVE",
"27 798 CURVE SMOOTH",
"18 798 LINE SMOOTH"
);
}
);
width = 486;
}
);
unicode = 005C;
},
{
glyphname = bullet;
lastChange = "2013-12-18 08:31:49 +0400";
layers = (
{
layerId = "6A4EEAE7-E2C6-4FA4-83F5-ABDB5FD8E17B";
name = Light;
paths = (
{
closed = 1;
nodes = (
"294 420 OFFCURVE",
"238 476 OFFCURVE",
"170 476 CURVE SMOOTH",
"102 476 OFFCURVE",
"46 420 OFFCURVE",
"46 352 CURVE SMOOTH",
"46 284 OFFCURVE",
"102 228 OFFCURVE",
"170 228 CURVE SMOOTH",
"238 228 OFFCURVE",
"294 284 OFFCURVE",
"294 352 CURVE SMOOTH"
);
}
);
width = 340;
}
);
unicode = 2022;
},
{
glyphname = colon;
lastChange = "2013-12-18 08:31:49 +0400";
layers = (
{
layerId = "6A4EEAE7-E2C6-4FA4-83F5-ABDB5FD8E17B";
name = Light;
paths = (
{
closed = 1;
nodes = (
"73 425 LINE SMOOTH",
"91 425 OFFCURVE",
"104 438 OFFCURVE",
"104 456 CURVE SMOOTH",
"104 479 LINE SMOOTH",
"104 497 OFFCURVE",
"91 510 OFFCURVE",
"73 510 CURVE SMOOTH",
"69 510 LINE SMOOTH",
"51 510 OFFCURVE",
"38 497 OFFCURVE",
"38 479 CURVE SMOOTH",
"38 456 LINE SMOOTH",
"38 438 OFFCURVE",
"51 425 OFFCURVE",
"69 425 CURVE SMOOTH"
);
},
{
closed = 1;
nodes = (
"73 0 LINE SMOOTH",
"91 0 OFFCURVE",
"104 13 OFFCURVE",
"104 31 CURVE SMOOTH",
"104 54 LINE SMOOTH",
"104 72 OFFCURVE",
"91 85 OFFCURVE",
"73 85 CURVE SMOOTH",
"69 85 LINE SMOOTH",
"51 85 OFFCURVE",
"38 72 OFFCURVE",
"38 54 CURVE SMOOTH",
"38 31 LINE SMOOTH",
"38 13 OFFCURVE",
"51 0 OFFCURVE",
"69 0 CURVE SMOOTH"
);
}
);
width = 142;
}
);
unicode = 003A;
},
{
glyphname = comma;
lastChange = "2013-12-18 08:31:49 +0400";
layers = (
{
layerId = "6A4EEAE7-E2C6-4FA4-83F5-ABDB5FD8E17B";
name = Light;
paths = (
{
closed = 1;
nodes = (
"44 -101 OFFCURVE",
"53 -104 OFFCURVE",
"64 -98 CURVE SMOOTH",
"111 -75 OFFCURVE",
"129 -43 OFFCURVE",
"129 12 CURVE SMOOTH",
"129 56 LINE SMOOTH",
"129 76 OFFCURVE",
"119 86 OFFCURVE",
"99 86 CURVE SMOOTH",
"93 86 LINE SMOOTH",
"74 86 OFFCURVE",
"63 75 OFFCURVE",
"63 56 CURVE SMOOTH",
"63 31 LINE SMOOTH",
"63 14 OFFCURVE",
"70 3 OFFCURVE",
"85 1 CURVE SMOOTH",
"88 1 OFFCURVE",
"90 -1 OFFCURVE",
"90 -4 CURVE SMOOTH",
"92 -33 OFFCURVE",
"80 -53 OFFCURVE",
"51 -71 CURVE SMOOTH",
"40 -78 OFFCURVE",
"36 -85 OFFCURVE",
"40 -93 CURVE SMOOTH"
);
}
);
width = 167;
}
);
unicode = 002C;
},
{
glyphname = ellipsis;
lastChange = "2013-12-18 08:31:49 +0400";
layers = (
{
layerId = "6A4EEAE7-E2C6-4FA4-83F5-ABDB5FD8E17B";
name = Light;
paths = (
{
closed = 1;
nodes = (
"523 0 LINE SMOOTH",
"541 0 OFFCURVE",
"554 13 OFFCURVE",
"554 31 CURVE SMOOTH",
"554 52 LINE SMOOTH",
"554 70 OFFCURVE",
"541 83 OFFCURVE",
"523 83 CURVE SMOOTH",
"521 83 LINE SMOOTH",
"503 83 OFFCURVE",
"490 70 OFFCURVE",
"490 52 CURVE SMOOTH",
"490 31 LINE SMOOTH",
"490 13 OFFCURVE",
"503 0 OFFCURVE",
"521 0 CURVE SMOOTH"
);
},
{
closed = 1;
nodes = (
"297 0 LINE SMOOTH",
"315 0 OFFCURVE",
"328 13 OFFCURVE",
"328 31 CURVE SMOOTH",
"328 52 LINE SMOOTH",
"328 70 OFFCURVE",
"315 83 OFFCURVE",
"297 83 CURVE SMOOTH",
"295 83 LINE SMOOTH",
"277 83 OFFCURVE",
"264 70 OFFCURVE",
"264 52 CURVE SMOOTH",
"264 31 LINE SMOOTH",
"264 13 OFFCURVE",
"277 0 OFFCURVE",
"295 0 CURVE SMOOTH"
);
},
{
closed = 1;
nodes = (
"71 0 LINE SMOOTH",
"89 0 OFFCURVE",
"102 13 OFFCURVE",
"102 31 CURVE SMOOTH",
"102 52 LINE SMOOTH",
"102 70 OFFCURVE",
"89 83 OFFCURVE",
"71 83 CURVE SMOOTH",
"69 83 LINE SMOOTH",
"51 83 OFFCURVE",
"38 70 OFFCURVE",
"38 52 CURVE SMOOTH",
"38 31 LINE SMOOTH",
"38 13 OFFCURVE",
"51 0 OFFCURVE",
"69 0 CURVE SMOOTH"
);
}
);
width = 592;
}
);
unicode = 2026;
},
{
glyphname = exclam;
lastChange = "2013-12-18 08:31:49 +0400";
layers = (
{
layerId = "6A4EEAE7-E2C6-4FA4-83F5-ABDB5FD8E17B";
name = Light;
paths = (
{
closed = 1;
nodes = (
"62 700 OFFCURVE",
"50 687 OFFCURVE",
"50 669 CURVE SMOOTH",
"50 630 LINE",
"64 203 LINE SMOOTH",
"65 191 OFFCURVE",
"71 183 OFFCURVE",
"79 183 CURVE SMOOTH",
"87 183 OFFCURVE",
"93 191 OFFCURVE",
"94 203 CURVE SMOOTH",
"108 630 LINE",
"108 669 LINE SMOOTH",
"108 687 OFFCURVE",
"96 700 OFFCURVE",
"79 700 CURVE SMOOTH"
);
},
{
closed = 1;
nodes = (
"81 0 LINE SMOOTH",
"99 0 OFFCURVE",
"112 13 OFFCURVE",
"112 31 CURVE SMOOTH",
"112 54 LINE SMOOTH",
"112 72 OFFCURVE",
"99 85 OFFCURVE",
"81 85 CURVE SMOOTH",
"77 85 LINE SMOOTH",
"59 85 OFFCURVE",
"46 72 OFFCURVE",
"46 54 CURVE SMOOTH",
"46 31 LINE SMOOTH",
"46 13 OFFCURVE",
"59 0 OFFCURVE",
"77 0 CURVE SMOOTH"
);
}
);
width = 157;
}
);
unicode = 0021;
},
{
glyphname = exclamdown;
lastChange = "2013-12-18 08:31:49 +0400";
layers = (
{
layerId = "6A4EEAE7-E2C6-4FA4-83F5-ABDB5FD8E17B";
name = Light;
paths = (
{
closed = 1;
nodes = (
"96 -200 OFFCURVE",
"108 -187 OFFCURVE",
"108 -169 CURVE SMOOTH",
"108 -130 LINE",
"94 297 LINE SMOOTH",
"93 309 OFFCURVE",
"87 317 OFFCURVE",
"79 317 CURVE SMOOTH",
"71 317 OFFCURVE",
"65 309 OFFCURVE",
"64 297 CURVE SMOOTH",
"50 -130 LINE",
"50 -169 LINE SMOOTH",
"50 -187 OFFCURVE",
"62 -200 OFFCURVE",
"79 -200 CURVE SMOOTH"
);
},
{
closed = 1;
nodes = (
"59 500 OFFCURVE",
"46 487 OFFCURVE",
"46 469 CURVE SMOOTH",
"46 446 LINE SMOOTH",
"46 428 OFFCURVE",
"59 415 OFFCURVE",
"77 415 CURVE SMOOTH",
"81 415 LINE SMOOTH",
"99 415 OFFCURVE",
"112 428 OFFCURVE",
"112 446 CURVE SMOOTH",
"112 469 LINE SMOOTH",
"112 487 OFFCURVE",
"99 500 OFFCURVE",
"81 500 CURVE SMOOTH",
"77 500 LINE SMOOTH"
);
}
);
width = 157;
}
);
unicode = 00A1;
},
{
glyphname = numbersign;
lastChange = "2013-12-18 08:31:49 +0400";
layers = (
{
layerId = "6A4EEAE7-E2C6-4FA4-83F5-ABDB5FD8E17B";
name = Light;
paths = (
{
closed = 1;
nodes = (
"596 470 LINE SMOOTH",
"610 470 OFFCURVE",
"621 479 OFFCURVE",
"621 492 CURVE SMOOTH",
"621 506 OFFCURVE",
"610 517 OFFCURVE",
"596 517 CURVE SMOOTH",
"506 517 LINE SMOOTH",
"503 517 OFFCURVE",
"501 519 OFFCURVE",
"502 522 CURVE SMOOTH",
"527 669 LINE SMOOTH",
"530 686 OFFCURVE",
"520 700 OFFCURVE",
"504 700 CURVE SMOOTH",
"492 700 OFFCURVE",
"483 692 OFFCURVE",
"481 680 CURVE SMOOTH",
"454 522 LINE SMOOTH",
"453 519 OFFCURVE",
"451 517 OFFCURVE",
"448 517 CURVE SMOOTH",
"251 517 LINE SMOOTH",
"248 517 OFFCURVE",
"246 519 OFFCURVE",
"247 522 CURVE SMOOTH",
"272 669 LINE SMOOTH",
"275 686 OFFCURVE",
"265 700 OFFCURVE",
"249 700 CURVE SMOOTH",
"237 700 OFFCURVE",
"228 692 OFFCURVE",
"226 680 CURVE SMOOTH",
"199 522 LINE SMOOTH",
"198 519 OFFCURVE",
"196 517 OFFCURVE",
"193 517 CURVE SMOOTH",
"85 517 LINE SMOOTH",
"71 517 OFFCURVE",
"60 508 OFFCURVE",
"60 495 CURVE SMOOTH",
"60 481 OFFCURVE",
"71 470 OFFCURVE",
"86 470 CURVE SMOOTH",
"185 470 LINE SMOOTH",
"188 470 OFFCURVE",
"190 468 OFFCURVE",
"189 465 CURVE SMOOTH",
"150 239 LINE SMOOTH",
"149 236 OFFCURVE",
"147 234 OFFCURVE",
"144 234 CURVE SMOOTH",
"45 234 LINE SMOOTH",
"31 234 OFFCURVE",
"20 225 OFFCURVE",
"20 212 CURVE SMOOTH",
"20 198 OFFCURVE",
"31 187 OFFCURVE",
"45 187 CURVE SMOOTH",
"136 187 LINE SMOOTH",
"139 187 OFFCURVE",
"141 185 OFFCURVE",
"140 182 CURVE SMOOTH",
"114 32 LINE SMOOTH",
"111 14 OFFCURVE",
"121 0 OFFCURVE",
"137 0 CURVE SMOOTH",
"149 0 OFFCURVE",
"158 8 OFFCURVE",
"160 20 CURVE SMOOTH",
"188 182 LINE SMOOTH",
"189 185 OFFCURVE",
"191 187 OFFCURVE",
"194 187 CURVE SMOOTH",
"391 187 LINE SMOOTH",
"394 187 OFFCURVE",
"396 185 OFFCURVE",
"395 182 CURVE SMOOTH",
"369 32 LINE SMOOTH",
"366 14 OFFCURVE",
"376 0 OFFCURVE",
"392 0 CURVE SMOOTH",
"404 0 OFFCURVE",
"413 8 OFFCURVE",
"415 20 CURVE SMOOTH",
"443 182 LINE SMOOTH",
"444 185 OFFCURVE",
"446 187 OFFCURVE",
"449 187 CURVE SMOOTH",
"556 187 LINE SMOOTH",
"570 187 OFFCURVE",
"581 196 OFFCURVE",
"581 209 CURVE SMOOTH",
"581 223 OFFCURVE",
"570 234 OFFCURVE",
"556 234 CURVE SMOOTH",
"457 234 LINE SMOOTH",
"454 234 OFFCURVE",
"452 236 OFFCURVE",
"453 239 CURVE SMOOTH",
"492 465 LINE SMOOTH",
"493 468 OFFCURVE",
"495 470 OFFCURVE",
"498 470 CURVE SMOOTH"
);
},
{
closed = 1;
nodes = (
"440 470 LINE SMOOTH",
"443 470 OFFCURVE",
"445 468 OFFCURVE",
"444 465 CURVE SMOOTH",
"405 239 LINE SMOOTH",
"404 236 OFFCURVE",
"402 234 OFFCURVE",
"399 234 CURVE SMOOTH",
"202 234 LINE SMOOTH",
"199 234 OFFCURVE",
"197 236 OFFCURVE",
"198 239 CURVE SMOOTH",
"237 465 LINE SMOOTH",
"238 468 OFFCURVE",
"240 470 OFFCURVE",
"243 470 CURVE SMOOTH"
);
}
);
width = 641;
}
);
unicode = 0023;
},
{
glyphname = period;
lastChange = "2013-12-18 08:31:49 +0400";
layers = (
{
layerId = "6A4EEAE7-E2C6-4FA4-83F5-ABDB5FD8E17B";
name = Light;
paths = (
{
closed = 1;
nodes = (
"80 0 LINE SMOOTH",
"98 0 OFFCURVE",
"111 13 OFFCURVE",
"111 31 CURVE SMOOTH",
"111 54 LINE SMOOTH",
"111 72 OFFCURVE",
"98 85 OFFCURVE",
"80 85 CURVE SMOOTH",
"76 85 LINE SMOOTH",
"58 85 OFFCURVE",
"45 72 OFFCURVE",
"45 54 CURVE SMOOTH",
"45 31 LINE SMOOTH",
"45 13 OFFCURVE",
"58 0 OFFCURVE",
"76 0 CURVE SMOOTH"
);
}
);
width = 156;
}
);
unicode = 002E;
},
{
glyphname = periodcentered;
lastChange = "2013-12-18 08:31:49 +0400";
layers = (
{
layerId = "6A4EEAE7-E2C6-4FA4-83F5-ABDB5FD8E17B";
name = Light;
paths = (
{
closed = 1;
nodes = (
"76 255 LINE SMOOTH",
"94 255 OFFCURVE",
"107 268 OFFCURVE",
"107 286 CURVE SMOOTH",
"107 309 LINE SMOOTH",
"107 327 OFFCURVE",
"94 340 OFFCURVE",
"76 340 CURVE SMOOTH",
"72 340 LINE SMOOTH",
"54 340 OFFCURVE",
"41 327 OFFCURVE",
"41 309 CURVE SMOOTH",
"41 286 LINE SMOOTH",
"41 268 OFFCURVE",
"54 255 OFFCURVE",
"72 255 CURVE SMOOTH"
);
}
);
width = 149;
}
);
unicode = 00B7;
},
{
glyphname = question;
lastChange = "2013-12-18 08:31:49 +0400";
layers = (
{
layerId = "6A4EEAE7-E2C6-4FA4-83F5-ABDB5FD8E17B";
name = Light;
paths = (
{
closed = 1;
nodes = (
"216 209 LINE SMOOTH",
"216 198 OFFCURVE",
"224 189 OFFCURVE",
"236 189 CURVE SMOOTH",
"247 189 OFFCURVE",
"256 198 OFFCURVE",
"256 209 CURVE SMOOTH",
"256 281 LINE SMOOTH",
"256 284 OFFCURVE",
"257 286 OFFCURVE",
"260 286 CURVE SMOOTH",
"363 308 OFFCURVE",
"443 401 OFFCURVE",
"443 509 CURVE SMOOTH",
"443 631 OFFCURVE",
"339 735 OFFCURVE",
"217 735 CURVE SMOOTH",
"143 735 OFFCURVE",
"73 696 OFFCURVE",
"33 640 CURVE",
"25 630 OFFCURVE",
"29 617 OFFCURVE",
"40 611 CURVE SMOOTH",
"49 606 OFFCURVE",
"60 609 OFFCURVE",
"66 618 CURVE",
"100 665 OFFCURVE",
"155 695 OFFCURVE",
"217 695 CURVE SMOOTH",
"320 695 OFFCURVE",
"403 612 OFFCURVE",
"403 509 CURVE SMOOTH",
"403 411 OFFCURVE",
"330 332 OFFCURVE",
"236 323 CURVE",
"225 323 OFFCURVE",
"216 314 OFFCURVE",
"216 303 CURVE SMOOTH"
);
},
{
closed = 1;
nodes = (
"216 20 LINE SMOOTH",
"216 9 OFFCURVE",
"224 0 OFFCURVE",
"236 0 CURVE SMOOTH",
"247 0 OFFCURVE",
"256 9 OFFCURVE",
"256 20 CURVE SMOOTH",
"256 61 LINE SMOOTH",
"256 72 OFFCURVE",
"248 81 OFFCURVE",
"236 81 CURVE SMOOTH",
"225 81 OFFCURVE",
"216 72 OFFCURVE",
"216 61 CURVE SMOOTH"
);
}
);
width = 471;
}
);
unicode = 003F;
},
{
glyphname = questiondown;
lastChange = "2013-12-18 08:31:49 +0400";
layers = (
{
layerId = "6A4EEAE7-E2C6-4FA4-83F5-ABDB5FD8E17B";
name = Light;
paths = (
{
closed = 1;
nodes = (
"255 346 LINE SMOOTH",
"255 357 OFFCURVE",
"247 366 OFFCURVE",
"235 366 CURVE SMOOTH",
"224 366 OFFCURVE",
"215 357 OFFCURVE",
"215 346 CURVE SMOOTH",
"215 274 LINE SMOOTH",
"215 271 OFFCURVE",
"214 269 OFFCURVE",
"211 269 CURVE SMOOTH",
"108 247 OFFCURVE",
"28 154 OFFCURVE",
"28 46 CURVE SMOOTH",
"28 -76 OFFCURVE",
"132 -180 OFFCURVE",
"254 -180 CURVE SMOOTH",
"328 -180 OFFCURVE",
"398 -141 OFFCURVE",
"438 -85 CURVE",
"446 -75 OFFCURVE",
"442 -62 OFFCURVE",
"431 -56 CURVE SMOOTH",
"422 -51 OFFCURVE",
"411 -54 OFFCURVE",
"405 -63 CURVE",
"371 -110 OFFCURVE",
"316 -140 OFFCURVE",
"254 -140 CURVE SMOOTH",
"151 -140 OFFCURVE",
"68 -57 OFFCURVE",
"68 46 CURVE SMOOTH",
"68 144 OFFCURVE",
"141 223 OFFCURVE",
"235 232 CURVE",
"246 232 OFFCURVE",
"255 241 OFFCURVE",
"255 252 CURVE SMOOTH"
);
},
{
closed = 1;
nodes = (
"255 535 LINE SMOOTH",
"255 546 OFFCURVE",
"247 555 OFFCURVE",
"235 555 CURVE SMOOTH",
"224 555 OFFCURVE",
"215 546 OFFCURVE",
"215 535 CURVE SMOOTH",
"215 494 LINE SMOOTH",
"215 483 OFFCURVE",
"223 474 OFFCURVE",
"235 474 CURVE SMOOTH",
"246 474 OFFCURVE",
"255 483 OFFCURVE",
"255 494 CURVE SMOOTH"
);
}
);
width = 471;
}
);
unicode = 00BF;
},
{
glyphname = quotedbl;
lastChange = "2013-12-18 08:31:49 +0400";
layers = (
{
layerId = "6A4EEAE7-E2C6-4FA4-83F5-ABDB5FD8E17B";
name = Light;
paths = (
{
closed = 1;
nodes = (
"227 467 LINE SMOOTH",
"225 454 OFFCURVE",
"228 446 OFFCURVE",
"235 446 CURVE SMOOTH",
"247 446 OFFCURVE",
"255 451 OFFCURVE",
"258 463 CURVE SMOOTH",
"320 681 LINE SMOOTH",
"323 691 OFFCURVE",
"321 699 OFFCURVE",
"311 700 CURVE SMOOTH",
"309 700 OFFCURVE",
"306 700 OFFCURVE",
"304 700 CURVE SMOOTH",
"278 700 LINE SMOOTH",
"265 700 OFFCURVE",
"258 694 OFFCURVE",
"256 681 CURVE SMOOTH"
);
},
{
closed = 1;
nodes = (
"47 467 LINE SMOOTH",
"45 454 OFFCURVE",
"48 446 OFFCURVE",
"55 446 CURVE SMOOTH",
"67 446 OFFCURVE",
"75 451 OFFCURVE",
"78 463 CURVE SMOOTH",
"140 681 LINE SMOOTH",
"143 691 OFFCURVE",
"141 699 OFFCURVE",
"131 700 CURVE SMOOTH",
"129 700 OFFCURVE",
"126 700 OFFCURVE",
"124 700 CURVE SMOOTH",
"98 700 LINE SMOOTH",
"85 700 OFFCURVE",
"78 694 OFFCURVE",
"76 681 CURVE SMOOTH"
);
}
);
width = 367;
}
);
unicode = 0022;
},
{
glyphname = quotesingle;
lastChange = "2013-12-18 08:31:49 +0400";
layers = (
{
layerId = "6A4EEAE7-E2C6-4FA4-83F5-ABDB5FD8E17B";
name = Light;
paths = (
{
closed = 1;
nodes = (
"47 467 LINE SMOOTH",
"45 454 OFFCURVE",
"48 446 OFFCURVE",
"55 446 CURVE SMOOTH",
"67 446 OFFCURVE",
"75 451 OFFCURVE",
"78 463 CURVE SMOOTH",
"140 681 LINE SMOOTH",
"143 691 OFFCURVE",
"141 699 OFFCURVE",
"131 700 CURVE SMOOTH",
"129 700 OFFCURVE",
"126 700 OFFCURVE",
"124 700 CURVE SMOOTH",
"98 700 LINE SMOOTH",
"85 700 OFFCURVE",
"78 694 OFFCURVE",
"76 681 CURVE SMOOTH"
);
}
);
width = 187;
}
);
unicode = 0027;
},
{
glyphname = semicolon;
lastChange = "2013-12-18 08:31:49 +0400";
layers = (
{
layerId = "6A4EEAE7-E2C6-4FA4-83F5-ABDB5FD8E17B";
name = Light;
paths = (
{
closed = 1;
nodes = (
"98 425 LINE SMOOTH",
"116 425 OFFCURVE",
"129 438 OFFCURVE",
"129 456 CURVE SMOOTH",
"129 479 LINE SMOOTH",
"129 497 OFFCURVE",
"116 510 OFFCURVE",
"98 510 CURVE SMOOTH",
"94 510 LINE SMOOTH",
"76 510 OFFCURVE",
"63 497 OFFCURVE",
"63 479 CURVE SMOOTH",
"63 456 LINE SMOOTH",
"63 438 OFFCURVE",
"76 425 OFFCURVE",
"94 425 CURVE SMOOTH"
);
},
{
closed = 1;
nodes = (
"44 -102 OFFCURVE",
"53 -105 OFFCURVE",
"64 -99 CURVE SMOOTH",
"111 -76 OFFCURVE",
"129 -44 OFFCURVE",
"129 11 CURVE SMOOTH",
"129 55 LINE SMOOTH",
"129 75 OFFCURVE",
"119 85 OFFCURVE",
"99 85 CURVE SMOOTH",
"93 85 LINE SMOOTH",
"74 85 OFFCURVE",
"63 74 OFFCURVE",
"63 55 CURVE SMOOTH",
"63 30 LINE SMOOTH",
"63 13 OFFCURVE",
"70 2 OFFCURVE",
"85 0 CURVE SMOOTH",
"88 0 OFFCURVE",
"90 -2 OFFCURVE",
"90 -5 CURVE SMOOTH",
"92 -34 OFFCURVE",
"80 -54 OFFCURVE",
"51 -72 CURVE SMOOTH",
"40 -79 OFFCURVE",
"36 -86 OFFCURVE",
"40 -94 CURVE SMOOTH"
);
}
);
width = 167;
}
);
unicode = 003B;
},
{
glyphname = slash;
lastChange = "2013-12-18 08:31:49 +0400";
layers = (
{
layerId = "6A4EEAE7-E2C6-4FA4-83F5-ABDB5FD8E17B";
name = Light;
paths = (
{
closed = 1;
nodes = (
"459 798 LINE SMOOTH",
"448 798 OFFCURVE",
"441 794 OFFCURVE",
"436 784 CURVE SMOOTH",
"-17 -104 LINE SMOOTH",
"-24 -118 OFFCURVE",
"-18 -128 OFFCURVE",
"-2 -128 CURVE SMOOTH",
"4 -128 LINE SMOOTH",
"15 -128 OFFCURVE",
"22 -124 OFFCURVE",
"27 -114 CURVE SMOOTH",
"480 774 LINE SMOOTH",
"487 788 OFFCURVE",
"482 798 OFFCURVE",
"468 798 CURVE SMOOTH"
);
}
);
width = 486;
}
);
unicode = 002F;
},
{
glyphname = underscore;
lastChange = "2013-12-18 08:31:49 +0400";
layers = (
{
layerId = "6A4EEAE7-E2C6-4FA4-83F5-ABDB5FD8E17B";
name = Light;
paths = (
{
closed = 1;
nodes = (
"42 -116 LINE SMOOTH",
"29 -116 OFFCURVE",
"20 -125 OFFCURVE",
"20 -138 CURVE SMOOTH",
"20 -151 OFFCURVE",
"29 -160 OFFCURVE",
"42 -160 CURVE SMOOTH",
"602 -160 LINE SMOOTH",
"615 -160 OFFCURVE",
"624 -151 OFFCURVE",
"624 -138 CURVE SMOOTH",
"624 -125 OFFCURVE",
"615 -116 OFFCURVE",
"602 -116 CURVE SMOOTH"
);
}
);
width = 644;
}
);
unicode = 005F;
},
{
glyphname = braceleft;
lastChange = "2013-12-18 08:31:49 +0400";
layers = (
{
layerId = "6A4EEAE7-E2C6-4FA4-83F5-ABDB5FD8E17B";
name = Light;
paths = (
{
closed = 1;
nodes = (
"386 768 OFFCURVE",
"376 774 OFFCURVE",
"364 771 CURVE SMOOTH",
"203 736 OFFCURVE",
"173 672 OFFCURVE",
"173 572 CURVE SMOOTH",
"173 493 LINE SMOOTH",
"173 415 OFFCURVE",
"147 336 OFFCURVE",
"53 336 CURVE SMOOTH",
"47 336 LINE SMOOTH",
"36 336 OFFCURVE",
"27 328 OFFCURVE",
"27 318 CURVE SMOOTH",
"27 307 OFFCURVE",
"36 298 OFFCURVE",
"47 298 CURVE SMOOTH",
"53 298 LINE SMOOTH",
"147 298 OFFCURVE",
"173 219 OFFCURVE",
"173 141 CURVE SMOOTH",
"173 62 LINE SMOOTH",
"173 -38 OFFCURVE",
"203 -102 OFFCURVE",
"364 -137 CURVE SMOOTH",
"376 -139 OFFCURVE",
"385 -136 OFFCURVE",
"387 -128 CURVE SMOOTH",
"389 -117 OFFCURVE",
"383 -107 OFFCURVE",
"372 -104 CURVE SMOOTH",
"237 -67 OFFCURVE",
"222 -29 OFFCURVE",
"222 68 CURVE SMOOTH",
"222 143 LINE SMOOTH",
"222 229 OFFCURVE",
"188 290 OFFCURVE",
"126 314 CURVE SMOOTH",
"122 316 OFFCURVE",
"122 318 OFFCURVE",
"126 320 CURVE SMOOTH",
"184 341 OFFCURVE",
"222 406 OFFCURVE",
"222 491 CURVE SMOOTH",
"222 566 LINE SMOOTH",
"222 663 OFFCURVE",
"237 701 OFFCURVE",
"372 738 CURVE SMOOTH",
"383 741 OFFCURVE",
"390 750 OFFCURVE",
"388 759 CURVE SMOOTH"
);
}
);
width = 432;
}
);
unicode = 007B;
},
{
glyphname = braceright;
lastChange = "2013-12-18 08:31:49 +0400";
layers = (
{
layerId = "6A4EEAE7-E2C6-4FA4-83F5-ABDB5FD8E17B";
name = Light;
paths = (
{
closed = 1;
nodes = (
"41 750 OFFCURVE",
"48 741 OFFCURVE",
"59 738 CURVE SMOOTH",
"194 701 OFFCURVE",
"209 663 OFFCURVE",
"209 566 CURVE SMOOTH",
"209 491 LINE SMOOTH",
"209 406 OFFCURVE",
"247 341 OFFCURVE",
"305 320 CURVE SMOOTH",
"309 318 OFFCURVE",
"309 316 OFFCURVE",
"305 314 CURVE SMOOTH",
"243 290 OFFCURVE",
"209 229 OFFCURVE",
"209 143 CURVE SMOOTH",
"209 68 LINE SMOOTH",
"209 -29 OFFCURVE",
"194 -67 OFFCURVE",
"59 -104 CURVE SMOOTH",
"48 -107 OFFCURVE",
"42 -117 OFFCURVE",
"44 -128 CURVE SMOOTH",
"46 -136 OFFCURVE",
"55 -139 OFFCURVE",
"67 -137 CURVE SMOOTH",
"228 -102 OFFCURVE",
"258 -38 OFFCURVE",
"258 62 CURVE SMOOTH",
"258 141 LINE SMOOTH",
"258 219 OFFCURVE",
"284 298 OFFCURVE",
"378 298 CURVE SMOOTH",
"384 298 LINE SMOOTH",
"395 298 OFFCURVE",
"404 307 OFFCURVE",
"404 318 CURVE SMOOTH",
"404 328 OFFCURVE",
"395 336 OFFCURVE",
"384 336 CURVE SMOOTH",
"378 336 LINE SMOOTH",
"284 336 OFFCURVE",
"258 415 OFFCURVE",
"258 493 CURVE SMOOTH",
"258 572 LINE SMOOTH",
"258 672 OFFCURVE",
"228 736 OFFCURVE",
"67 771 CURVE SMOOTH",
"55 774 OFFCURVE",
"45 768 OFFCURVE",
"43 759 CURVE SMOOTH"
);
}
);
width = 431;
}
);
unicode = 007D;
},
{
glyphname = bracketleft;
lastChange = "2013-12-18 08:31:49 +0400";
layers = (
{
layerId = "6A4EEAE7-E2C6-4FA4-83F5-ABDB5FD8E17B";
name = Light;
paths = (
{
closed = 1;
nodes = (
"339 752 OFFCURVE",
"330 760 OFFCURVE",
"319 760 CURVE SMOOTH",
"86 760 LINE SMOOTH",
"75 760 OFFCURVE",
"66 751 OFFCURVE",
"66 740 CURVE SMOOTH",
"66 -110 LINE SMOOTH",
"66 -121 OFFCURVE",
"75 -130 OFFCURVE",
"86 -130 CURVE SMOOTH",
"319 -130 LINE SMOOTH",
"330 -130 OFFCURVE",
"339 -122 OFFCURVE",
"339 -112 CURVE SMOOTH",
"339 -101 OFFCURVE",
"330 -92 OFFCURVE",
"319 -92 CURVE SMOOTH",
"117 -92 LINE SMOOTH",
"114 -92 OFFCURVE",
"112 -90 OFFCURVE",
"112 -87 CURVE SMOOTH",
"112 717 LINE SMOOTH",
"112 720 OFFCURVE",
"114 722 OFFCURVE",
"117 722 CURVE SMOOTH",
"319 722 LINE SMOOTH",
"330 722 OFFCURVE",
"339 730 OFFCURVE",
"339 741 CURVE SMOOTH"
);
}
);
width = 383;
}
);
unicode = 005B;
},
{
glyphname = bracketright;
lastChange = "2013-12-18 08:31:49 +0400";
layers = (
{
layerId = "6A4EEAE7-E2C6-4FA4-83F5-ABDB5FD8E17B";
name = Light;
paths = (
{
closed = 1;
nodes = (
"43 730 OFFCURVE",
"52 722 OFFCURVE",
"63 722 CURVE SMOOTH",
"265 722 LINE SMOOTH",
"268 722 OFFCURVE",
"270 720 OFFCURVE",
"270 717 CURVE SMOOTH",
"270 -87 LINE SMOOTH",
"270 -90 OFFCURVE",
"268 -92 OFFCURVE",
"265 -92 CURVE SMOOTH",
"63 -92 LINE SMOOTH",
"52 -92 OFFCURVE",
"43 -101 OFFCURVE",
"43 -112 CURVE SMOOTH",
"43 -122 OFFCURVE",
"52 -130 OFFCURVE",
"63 -130 CURVE SMOOTH",
"296 -130 LINE SMOOTH",
"307 -130 OFFCURVE",
"316 -121 OFFCURVE",
"316 -110 CURVE SMOOTH",
"316 740 LINE SMOOTH",
"316 751 OFFCURVE",
"307 760 OFFCURVE",
"296 760 CURVE SMOOTH",
"63 760 LINE SMOOTH",
"52 760 OFFCURVE",
"43 752 OFFCURVE",
"43 741 CURVE SMOOTH"
);
}
);
width = 382;
}
);
unicode = 005D;
},
{
glyphname = parenleft;
lastChange = "2013-12-18 08:31:49 +0400";
layers = (
{
layerId = "6A4EEAE7-E2C6-4FA4-83F5-ABDB5FD8E17B";
name = Light;
paths = (
{
closed = 1;
nodes = (
"328 760 LINE SMOOTH",
"322 769 OFFCURVE",
"311 771 OFFCURVE",
"302 766 CURVE SMOOTH",
"136 666 OFFCURVE",
"41 492 OFFCURVE",
"41 317 CURVE SMOOTH",
"41 142 OFFCURVE",
"135 -31 OFFCURVE",
"301 -131 CURVE SMOOTH",
"311 -137 OFFCURVE",
"322 -134 OFFCURVE",
"328 -125 CURVE SMOOTH",
"334 -115 OFFCURVE",
"332 -104 OFFCURVE",
"322 -97 CURVE SMOOTH",
"175 -1 OFFCURVE",
"93 156 OFFCURVE",
"93 317 CURVE SMOOTH",
"93 478 OFFCURVE",
"175 635 OFFCURVE",
"322 731 CURVE SMOOTH",
"332 738 OFFCURVE",
"335 749 OFFCURVE",
"329 759 CURVE SMOOTH"
);
}
);
width = 358;
}
);
unicode = 0028;
},
{
glyphname = parenright;
lastChange = "2013-12-18 08:31:49 +0400";
layers = (
{
layerId = "6A4EEAE7-E2C6-4FA4-83F5-ABDB5FD8E17B";
name = Light;
paths = (
{
closed = 1;
nodes = (
"23 749 OFFCURVE",
"26 738 OFFCURVE",
"36 731 CURVE SMOOTH",
"183 635 OFFCURVE",
"265 478 OFFCURVE",
"265 317 CURVE SMOOTH",
"265 156 OFFCURVE",
"183 -1 OFFCURVE",
"36 -97 CURVE SMOOTH",
"26 -104 OFFCURVE",
"24 -115 OFFCURVE",
"30 -125 CURVE SMOOTH",
"36 -134 OFFCURVE",
"47 -137 OFFCURVE",
"57 -131 CURVE SMOOTH",
"223 -31 OFFCURVE",
"317 142 OFFCURVE",
"317 317 CURVE SMOOTH",
"317 492 OFFCURVE",
"222 666 OFFCURVE",
"56 766 CURVE SMOOTH",
"47 771 OFFCURVE",
"36 769 OFFCURVE",
"30 760 CURVE SMOOTH",
"29 759 LINE SMOOTH"
);
}
);
width = 358;
}
);
unicode = 0029;
},
{
glyphname = emdash;
lastChange = "2013-12-18 08:31:49 +0400";
layers = (
{
layerId = "6A4EEAE7-E2C6-4FA4-83F5-ABDB5FD8E17B";
name = Light;
paths = (
{
closed = 1;
nodes = (
"790 271 LINE SMOOTH",
"804 271 OFFCURVE",
"815 282 OFFCURVE",
"815 296 CURVE SMOOTH",
"815 298 LINE SMOOTH",
"815 312 OFFCURVE",
"804 323 OFFCURVE",
"790 323 CURVE SMOOTH",
"82 323 LINE SMOOTH",
"68 323 OFFCURVE",
"57 312 OFFCURVE",
"57 298 CURVE SMOOTH",
"57 296 LINE SMOOTH",
"57 282 OFFCURVE",
"68 271 OFFCURVE",
"82 271 CURVE SMOOTH"
);
}
);
width = 872;
}
);
unicode = 2014;
},
{
glyphname = endash;
lastChange = "2013-12-18 08:31:49 +0400";
layers = (
{
layerId = "6A4EEAE7-E2C6-4FA4-83F5-ABDB5FD8E17B";
name = Light;
paths = (
{
closed = 1;
nodes = (
"420 271 LINE SMOOTH",
"434 271 OFFCURVE",
"445 282 OFFCURVE",
"445 296 CURVE SMOOTH",
"445 298 LINE SMOOTH",
"445 312 OFFCURVE",
"434 323 OFFCURVE",
"420 323 CURVE SMOOTH",
"82 323 LINE SMOOTH",
"68 323 OFFCURVE",
"57 312 OFFCURVE",
"57 298 CURVE SMOOTH",
"57 296 LINE SMOOTH",
"57 282 OFFCURVE",
"68 271 OFFCURVE",
"82 271 CURVE SMOOTH"
);
}
);
width = 502;
}
);
unicode = 2013;
},
{
glyphname = hyphen;
lastChange = "2013-12-18 08:31:49 +0400";
layers = (
{
layerId = "6A4EEAE7-E2C6-4FA4-83F5-ABDB5FD8E17B";
name = Light;
paths = (
{
closed = 1;
nodes = (
"296 269 LINE SMOOTH",
"313 269 OFFCURVE",
"325 280 OFFCURVE",
"325 296 CURVE SMOOTH",
"325 313 OFFCURVE",
"313 325 OFFCURVE",
"296 325 CURVE SMOOTH",
"86 325 LINE SMOOTH",
"69 325 OFFCURVE",
"57 314 OFFCURVE",
"57 298 CURVE SMOOTH",
"57 281 OFFCURVE",
"69 269 OFFCURVE",
"86 269 CURVE SMOOTH"
);
}
);
width = 382;
}
);
unicode = 002D;
},
{
glyphname = guillemetleft;
lastChange = "2013-12-18 08:31:49 +0400";
layers = (
{
layerId = "6A4EEAE7-E2C6-4FA4-83F5-ABDB5FD8E17B";
name = Light;
paths = (
{
closed = 1;
nodes = (
"425 457 LINE SMOOTH",
"414 463 OFFCURVE",
"402 461 OFFCURVE",
"394 451 CURVE SMOOTH",
"260 272 LINE SMOOTH",
"252 262 OFFCURVE",
"252 248 OFFCURVE",
"260 238 CURVE SMOOTH",
"394 59 LINE SMOOTH",
"402 49 OFFCURVE",
"414 47 OFFCURVE",
"425 53 CURVE SMOOTH",
"426 54 LINE SMOOTH",
"436 61 OFFCURVE",
"438 75 OFFCURVE",
"429 86 CURVE SMOOTH",
"310 252 LINE SMOOTH",
"308 255 OFFCURVE",
"308 257 OFFCURVE",
"310 259 CURVE SMOOTH",
"429 424 LINE SMOOTH",
"438 435 OFFCURVE",
"436 449 OFFCURVE",
"426 456 CURVE SMOOTH"
);
},
{
closed = 1;
nodes = (
"221 457 LINE SMOOTH",
"210 463 OFFCURVE",
"198 461 OFFCURVE",
"190 451 CURVE SMOOTH",
"56 272 LINE SMOOTH",
"48 262 OFFCURVE",
"48 248 OFFCURVE",
"56 238 CURVE SMOOTH",
"190 59 LINE SMOOTH",
"198 49 OFFCURVE",
"210 47 OFFCURVE",
"221 53 CURVE SMOOTH",
"222 54 LINE SMOOTH",
"232 61 OFFCURVE",
"234 75 OFFCURVE",
"225 86 CURVE SMOOTH",
"106 252 LINE SMOOTH",
"104 255 OFFCURVE",
"104 257 OFFCURVE",
"106 259 CURVE SMOOTH",
"225 424 LINE SMOOTH",
"234 435 OFFCURVE",
"232 449 OFFCURVE",
"222 456 CURVE SMOOTH"
);
}
);
width = 485;
}
);
unicode = 00AB;
},
{
glyphname = guillemetright;
lastChange = "2013-12-18 08:31:49 +0400";
layers = (
{
layerId = "6A4EEAE7-E2C6-4FA4-83F5-ABDB5FD8E17B";
name = Light;
paths = (
{
closed = 1;
nodes = (
"49 449 OFFCURVE",
"47 435 OFFCURVE",
"56 424 CURVE SMOOTH",
"175 259 LINE SMOOTH",
"177 257 OFFCURVE",
"177 255 OFFCURVE",
"175 252 CURVE SMOOTH",
"56 86 LINE SMOOTH",
"47 75 OFFCURVE",
"49 61 OFFCURVE",
"59 54 CURVE SMOOTH",
"60 53 LINE SMOOTH",
"71 47 OFFCURVE",
"83 49 OFFCURVE",
"91 59 CURVE SMOOTH",
"225 238 LINE SMOOTH",
"233 248 OFFCURVE",
"233 262 OFFCURVE",
"225 272 CURVE SMOOTH",
"91 451 LINE SMOOTH",
"83 461 OFFCURVE",
"71 463 OFFCURVE",
"60 457 CURVE SMOOTH",
"59 456 LINE SMOOTH"
);
},
{
closed = 1;
nodes = (
"253 449 OFFCURVE",
"251 435 OFFCURVE",
"260 424 CURVE SMOOTH",
"379 259 LINE SMOOTH",
"381 257 OFFCURVE",
"381 255 OFFCURVE",
"379 252 CURVE SMOOTH",
"260 86 LINE SMOOTH",
"251 75 OFFCURVE",
"253 61 OFFCURVE",
"263 54 CURVE SMOOTH",
"264 53 LINE SMOOTH",
"275 47 OFFCURVE",
"287 49 OFFCURVE",
"295 59 CURVE SMOOTH",
"429 238 LINE SMOOTH",
"437 248 OFFCURVE",
"437 262 OFFCURVE",
"429 272 CURVE SMOOTH",
"295 451 LINE SMOOTH",
"287 461 OFFCURVE",
"275 463 OFFCURVE",
"264 457 CURVE SMOOTH",
"263 456 LINE SMOOTH"
);
}
);
width = 485;
}
);
unicode = 00BB;
},
{
glyphname = guilsinglleft;
lastChange = "2013-12-18 08:31:49 +0400";
layers = (
{
layerId = "6A4EEAE7-E2C6-4FA4-83F5-ABDB5FD8E17B";
name = Light;
paths = (
{
closed = 1;
nodes = (
"217 457 LINE SMOOTH",
"206 463 OFFCURVE",
"194 461 OFFCURVE",
"186 451 CURVE SMOOTH",
"52 272 LINE SMOOTH",
"44 262 OFFCURVE",
"44 248 OFFCURVE",
"52 238 CURVE SMOOTH",
"186 59 LINE SMOOTH",
"194 49 OFFCURVE",
"206 47 OFFCURVE",
"217 53 CURVE SMOOTH",
"218 54 LINE SMOOTH",
"228 61 OFFCURVE",
"230 75 OFFCURVE",
"221 86 CURVE SMOOTH",
"102 252 LINE SMOOTH",
"100 255 OFFCURVE",
"100 257 OFFCURVE",
"102 259 CURVE SMOOTH",
"221 424 LINE SMOOTH",
"230 435 OFFCURVE",
"228 449 OFFCURVE",
"218 456 CURVE SMOOTH"
);
}
);
width = 273;
}
);
unicode = 2039;
},
{
glyphname = guilsinglright;
lastChange = "2013-12-18 08:31:49 +0400";
layers = (
{
layerId = "6A4EEAE7-E2C6-4FA4-83F5-ABDB5FD8E17B";
name = Light;
paths = (
{
closed = 1;
nodes = (
"45 449 OFFCURVE",
"43 435 OFFCURVE",
"52 424 CURVE SMOOTH",
"171 259 LINE SMOOTH",
"173 257 OFFCURVE",
"173 255 OFFCURVE",
"171 252 CURVE SMOOTH",
"52 86 LINE SMOOTH",
"43 75 OFFCURVE",
"45 61 OFFCURVE",
"55 54 CURVE SMOOTH",
"56 53 LINE SMOOTH",
"67 47 OFFCURVE",
"79 49 OFFCURVE",
"87 59 CURVE SMOOTH",
"221 238 LINE SMOOTH",
"229 248 OFFCURVE",
"229 262 OFFCURVE",
"221 272 CURVE SMOOTH",
"87 451 LINE SMOOTH",
"79 461 OFFCURVE",
"67 463 OFFCURVE",
"56 457 CURVE SMOOTH",
"55 456 LINE SMOOTH"
);
}
);
width = 273;
}
);
unicode = 203A;
},
{
glyphname = quotedblleft;
lastChange = "2013-12-18 08:31:49 +0400";
layers = (
{
layerId = "6A4EEAE7-E2C6-4FA4-83F5-ABDB5FD8E17B";
name = Light;
paths = (
{
closed = 1;
nodes = (
"123 700 OFFCURVE",
"114 703 OFFCURVE",
"103 697 CURVE SMOOTH",
"56 674 OFFCURVE",
"38 642 OFFCURVE",
"38 587 CURVE SMOOTH",
"38 543 LINE SMOOTH",
"38 523 OFFCURVE",
"48 513 OFFCURVE",
"68 513 CURVE SMOOTH",
"74 513 LINE SMOOTH",
"93 513 OFFCURVE",
"104 524 OFFCURVE",
"104 543 CURVE SMOOTH",
"104 568 LINE SMOOTH",
"104 585 OFFCURVE",
"97 596 OFFCURVE",
"82 598 CURVE SMOOTH",
"79 598 OFFCURVE",
"77 600 OFFCURVE",
"77 603 CURVE SMOOTH",
"75 632 OFFCURVE",
"87 652 OFFCURVE",
"116 670 CURVE SMOOTH",
"127 677 OFFCURVE",
"131 684 OFFCURVE",
"127 692 CURVE SMOOTH"
);
},
{
closed = 1;
nodes = (
"303 700 OFFCURVE",
"294 703 OFFCURVE",
"283 697 CURVE SMOOTH",
"236 674 OFFCURVE",
"218 642 OFFCURVE",
"218 587 CURVE SMOOTH",
"218 543 LINE SMOOTH",
"218 523 OFFCURVE",
"228 513 OFFCURVE",
"248 513 CURVE SMOOTH",
"254 513 LINE SMOOTH",
"273 513 OFFCURVE",
"284 524 OFFCURVE",
"284 543 CURVE SMOOTH",
"284 568 LINE SMOOTH",
"284 585 OFFCURVE",
"277 596 OFFCURVE",
"262 598 CURVE SMOOTH",
"259 598 OFFCURVE",
"257 600 OFFCURVE",
"257 603 CURVE SMOOTH",
"255 632 OFFCURVE",
"267 652 OFFCURVE",
"296 670 CURVE SMOOTH",
"307 677 OFFCURVE",
"311 684 OFFCURVE",
"307 692 CURVE SMOOTH"
);
}
);
width = 347;
}
);
unicode = 201C;
},
{
glyphname = quotedblright;
lastChange = "2013-12-18 08:31:49 +0400";
layers = (
{
layerId = "6A4EEAE7-E2C6-4FA4-83F5-ABDB5FD8E17B";
name = Light;
paths = (
{
closed = 1;
nodes = (
"224 513 OFFCURVE",
"233 510 OFFCURVE",
"244 516 CURVE SMOOTH",
"291 539 OFFCURVE",
"309 571 OFFCURVE",
"309 626 CURVE SMOOTH",
"309 670 LINE SMOOTH",
"309 690 OFFCURVE",
"299 700 OFFCURVE",
"279 700 CURVE SMOOTH",
"273 700 LINE SMOOTH",
"254 700 OFFCURVE",
"243 689 OFFCURVE",
"243 670 CURVE SMOOTH",
"243 645 LINE SMOOTH",
"243 628 OFFCURVE",
"250 617 OFFCURVE",
"265 615 CURVE SMOOTH",
"268 615 OFFCURVE",
"270 613 OFFCURVE",
"270 610 CURVE SMOOTH",
"272 581 OFFCURVE",
"260 561 OFFCURVE",
"231 543 CURVE SMOOTH",
"220 536 OFFCURVE",
"216 529 OFFCURVE",
"220 521 CURVE SMOOTH"
);
},
{
closed = 1;
nodes = (
"44 513 OFFCURVE",
"53 510 OFFCURVE",
"64 516 CURVE SMOOTH",
"111 539 OFFCURVE",
"129 571 OFFCURVE",
"129 626 CURVE SMOOTH",
"129 670 LINE SMOOTH",
"129 690 OFFCURVE",
"119 700 OFFCURVE",
"99 700 CURVE SMOOTH",
"93 700 LINE SMOOTH",
"74 700 OFFCURVE",
"63 689 OFFCURVE",
"63 670 CURVE SMOOTH",
"63 645 LINE SMOOTH",
"63 628 OFFCURVE",
"70 617 OFFCURVE",
"85 615 CURVE SMOOTH",
"88 615 OFFCURVE",
"90 613 OFFCURVE",
"90 610 CURVE SMOOTH",
"92 581 OFFCURVE",
"80 561 OFFCURVE",
"51 543 CURVE SMOOTH",
"40 536 OFFCURVE",
"36 529 OFFCURVE",
"40 521 CURVE SMOOTH"
);
}
);
width = 347;
}
);
unicode = 201D;
},
{
glyphname = quoteleft;
lastChange = "2013-12-18 08:31:49 +0400";
layers = (
{
layerId = "6A4EEAE7-E2C6-4FA4-83F5-ABDB5FD8E17B";
name = Light;
paths = (
{
closed = 1;
nodes = (
"123 700 OFFCURVE",
"114 703 OFFCURVE",
"103 697 CURVE SMOOTH",
"56 674 OFFCURVE",
"38 642 OFFCURVE",
"38 587 CURVE SMOOTH",
"38 543 LINE SMOOTH",
"38 523 OFFCURVE",
"48 513 OFFCURVE",
"68 513 CURVE SMOOTH",
"74 513 LINE SMOOTH",
"93 513 OFFCURVE",
"104 524 OFFCURVE",
"104 543 CURVE SMOOTH",
"104 568 LINE SMOOTH",
"104 585 OFFCURVE",
"97 596 OFFCURVE",
"82 598 CURVE SMOOTH",
"79 598 OFFCURVE",
"77 600 OFFCURVE",
"77 603 CURVE SMOOTH",
"75 632 OFFCURVE",
"87 652 OFFCURVE",
"116 670 CURVE SMOOTH",
"127 677 OFFCURVE",
"131 684 OFFCURVE",
"127 692 CURVE SMOOTH"
);
}
);
width = 167;
}
);
unicode = 2018;
},
{
glyphname = quoteright;
lastChange = "2013-12-18 08:31:49 +0400";
layers = (
{
layerId = "6A4EEAE7-E2C6-4FA4-83F5-ABDB5FD8E17B";
name = Light;
paths = (
{
closed = 1;
nodes = (
"44 513 OFFCURVE",
"53 510 OFFCURVE",
"64 516 CURVE SMOOTH",
"111 539 OFFCURVE",
"129 571 OFFCURVE",
"129 626 CURVE SMOOTH",
"129 670 LINE SMOOTH",
"129 690 OFFCURVE",
"119 700 OFFCURVE",
"99 700 CURVE SMOOTH",
"93 700 LINE SMOOTH",
"74 700 OFFCURVE",
"63 689 OFFCURVE",
"63 670 CURVE SMOOTH",
"63 645 LINE SMOOTH",
"63 628 OFFCURVE",
"70 617 OFFCURVE",
"85 615 CURVE SMOOTH",
"88 615 OFFCURVE",
"90 613 OFFCURVE",
"90 610 CURVE SMOOTH",
"92 581 OFFCURVE",
"80 561 OFFCURVE",
"51 543 CURVE SMOOTH",
"40 536 OFFCURVE",
"36 529 OFFCURVE",
"40 521 CURVE SMOOTH"
);
}
);
width = 167;
}
);
unicode = 2019;
},
{
glyphname = .notdef;
lastChange = "2013-12-18 08:31:49 +0400";
layers = (
{
layerId = "6A4EEAE7-E2C6-4FA4-83F5-ABDB5FD8E17B";
name = Light;
paths = (
{
closed = 1;
nodes = (
"40 35 LINE SMOOTH",
"40 12 OFFCURVE",
"52 0 OFFCURVE",
"75 0 CURVE SMOOTH",
"509 0 LINE SMOOTH",
"532 0 OFFCURVE",
"544 12 OFFCURVE",
"544 35 CURVE SMOOTH",
"544 665 LINE SMOOTH",
"544 688 OFFCURVE",
"532 700 OFFCURVE",
"509 700 CURVE SMOOTH",
"75 700 LINE SMOOTH",
"52 700 OFFCURVE",
"40 688 OFFCURVE",
"40 665 CURVE SMOOTH"
);
},
{
closed = 1;
nodes = (
"509 670 LINE SMOOTH",
"512 670 OFFCURVE",
"514 668 OFFCURVE",
"514 665 CURVE SMOOTH",
"514 67 LINE SMOOTH",
"514 62 OFFCURVE",
"511 61 OFFCURVE",
"508 65 CURVE SMOOTH",
"92 664 LINE SMOOTH",
"90 667 OFFCURVE",
"91 670 OFFCURVE",
"95 670 CURVE SMOOTH"
);
},
{
closed = 1;
nodes = (
"70 633 LINE SMOOTH",
"70 638 OFFCURVE",
"73 639 OFFCURVE",
"76 635 CURVE SMOOTH",
"491 36 LINE SMOOTH",
"493 33 OFFCURVE",
"492 30 OFFCURVE",
"488 30 CURVE SMOOTH",
"75 30 LINE SMOOTH",
"72 30 OFFCURVE",
"70 32 OFFCURVE",
"70 35 CURVE SMOOTH"
);
}
);
width = 584;
}
);
},
{
glyphname = florin;
lastChange = "2013-12-18 08:31:49 +0400";
layers = (
{
layerId = "6A4EEAE7-E2C6-4FA4-83F5-ABDB5FD8E17B";
name = Light;
paths = (
{
closed = 1;
nodes = (
"489 646 OFFCURVE",
"486 633 CURVE SMOOTH",
"484 623 OFFCURVE",
"476 618 OFFCURVE",
"462 620 CURVE SMOOTH",
"455 621 OFFCURVE",
"447 622 OFFCURVE",
"436 622 CURVE",
"362.323 622 OFFCURVE",
"323.222 580.203 OFFCURVE",
"313.253 518.174 CURVE",
"294 405 LINE",
"294 401 OFFCURVE",
"296 400 OFFCURVE",
"300 400 CURVE",
"411 400 LINE",
"421 400 OFFCURVE",
"427 390.433 OFFCURVE",
"427 381 CURVE",
"427 371.567 OFFCURVE",
"421 362 OFFCURVE",
"411 362 CURVE",
"292 362 LINE",
"287 362 OFFCURVE",
"286 359 OFFCURVE",
"285 354 CURVE",
"234.281 55.3433 LINE",
"218.535 -36 OFFCURVE",
"168.542 -96 OFFCURVE",
"69 -96 CURVE",
"53.6659 -96 OFFCURVE",
"40.9326 -95 OFFCURVE",
"28.9223 -92 CURVE",
"18 -90 OFFCURVE",
"12 -80 OFFCURVE",
"14 -71 CURVE SMOOTH",
"16 -61 OFFCURVE",
"24 -54 OFFCURVE",
"34.4192 -56 CURVE",
"44.8244 -59 OFFCURVE",
"57.0025 -60 OFFCURVE",
"69 -60 CURVE",
"137.866 -60 OFFCURVE",
"176.678 -17 OFFCURVE",
"187.689 44.4842 CURVE",
"241 354 LINE",
"242 360 OFFCURVE",
"240 362 OFFCURVE",
"236 362 CURVE",
"154 362 LINE",
"144 362 OFFCURVE",
"138 371.567 OFFCURVE",
"138 381 CURVE",
"138 390.433 OFFCURVE",
"144 400 OFFCURVE",
"154 400 CURVE",
"243 400 LINE",
"247 400 OFFCURVE",
"249 402 OFFCURVE",
"250 405 CURVE",
"267.728 507.712 LINE",
"282 599 OFFCURVE",
"333 659 OFFCURVE",
"428 659 CURVE SMOOTH",
"446 659 OFFCURVE",
"458 658 OFFCURVE",
"469 656 CURVE SMOOTH",
"481 654 OFFCURVE"
);
}
);
width = 600;
}
);
unicode = 0192;
},
{
glyphname = cent;
lastChange = "2013-12-18 08:31:49 +0400";
layers = (
{
anchors = (
{
name = bottom;
position = "{265, 101}";
},
{
name = top;
position = "{265, 601}";
}
);
layerId = "6A4EEAE7-E2C6-4FA4-83F5-ABDB5FD8E17B";
name = Light;
paths = (
{
closed = 1;
nodes = (
"401 155 OFFCURVE",
"357 141 OFFCURVE",
"307 141 CURVE SMOOTH",
"290 141 OFFCURVE",
"274 143 OFFCURVE",
"259 146 CURVE SMOOTH",
"256 146 OFFCURVE",
"255 148 OFFCURVE",
"255 152 CURVE SMOOTH",
"340 554 LINE SMOOTH",
"341 557 OFFCURVE",
"343 559 OFFCURVE",
"346 558 CURVE SMOOTH",
"380 553 OFFCURVE",
"411 540 OFFCURVE",
"439 522 CURVE SMOOTH",
"449 515 OFFCURVE",
"460 517 OFFCURVE",
"467 526 CURVE SMOOTH",
"474 535 OFFCURVE",
"472 547 OFFCURVE",
"462 554 CURVE SMOOTH",
"431 575 OFFCURVE",
"394 590 OFFCURVE",
"354 597 CURVE SMOOTH",
"351 598 OFFCURVE",
"350 600 OFFCURVE",
"350 603 CURVE SMOOTH",
"368 686 LINE",
"371 697 OFFCURVE",
"364 708 OFFCURVE",
"353 710 CURVE SMOOTH",
"342 712 OFFCURVE",
"332 706 OFFCURVE",
"329 694 CURVE",
"310 605 LINE SMOOTH",
"310 602 OFFCURVE",
"309 601 OFFCURVE",
"307 601 CURVE SMOOTH",
"157 601 OFFCURVE",
"50 477 OFFCURVE",
"50 351 CURVE SMOOTH",
"50 256 OFFCURVE",
"110 163 OFFCURVE",
"204 122 CURVE SMOOTH",
"207 121 OFFCURVE",
"208 119 OFFCURVE",
"207 116 CURVE SMOOTH",
"186 16 LINE",
"183 5 OFFCURVE",
"190 -6 OFFCURVE",
"201 -8 CURVE SMOOTH",
"212 -10 OFFCURVE",
"222 -4 OFFCURVE",
"225 8 CURVE",
"245 103 LINE SMOOTH",
"246 106 OFFCURVE",
"248 108 OFFCURVE",
"251 107 CURVE SMOOTH",
"269 103 OFFCURVE",
"288 101 OFFCURVE",
"307 101 CURVE SMOOTH",
"363 101 OFFCURVE",
"418 118 OFFCURVE",
"462 147 CURVE SMOOTH",
"472 154 OFFCURVE",
"474 166 OFFCURVE",
"467 175 CURVE SMOOTH",
"460 184 OFFCURVE",
"449 186 OFFCURVE",
"439 180 CURVE"
);
},
{
closed = 1;
nodes = (
"90 455 OFFCURVE",
"169 554 OFFCURVE",
"294 561 CURVE SMOOTH",
"298 561 OFFCURVE",
"300 559 OFFCURVE",
"300 555 CURVE SMOOTH",
"217 165 LINE SMOOTH",
"217 161 OFFCURVE",
"214 160 OFFCURVE",
"211 161 CURVE SMOOTH",
"135 197 OFFCURVE",
"90 272 OFFCURVE",
"90 351 CURVE"
);
}
);
width = 521;
}
);
unicode = 00A2;
},
{
glyphname = currency;
lastChange = "2013-12-18 08:31:49 +0400";
layers = (
{
layerId = "6A4EEAE7-E2C6-4FA4-83F5-ABDB5FD8E17B";
name = Light;
paths = (
{
closed = 1;
nodes = (
"415 156 OFFCURVE",
"416 146 OFFCURVE",
"409 138 CURVE",
"402 130 OFFCURVE",
"391 129 OFFCURVE",
"383 137 CURVE",
"333 183 LINE",
"303 158 OFFCURVE",
"271 144 OFFCURVE",
"232 144 CURVE",
"191 144 OFFCURVE",
"159 157 OFFCURVE",
"132 183 CURVE",
"81 137 LINE",
"73 129 OFFCURVE",
"62 130 OFFCURVE",
"55 138 CURVE",
"48 146 OFFCURVE",
"49 156 OFFCURVE",
"57 163 CURVE",
"107 210 LINE",
"92 234 OFFCURVE",
"83 262 OFFCURVE",
"83 292 CURVE",
"83 303 LINE",
"83 334 OFFCURVE",
"92 361 OFFCURVE",
"109 387 CURVE",
"57 435 LINE",
"49 442 OFFCURVE",
"48 452 OFFCURVE",
"55 460 CURVE",
"62 468 OFFCURVE",
"73 469 OFFCURVE",
"81 461 CURVE",
"133 415 LINE",
"160 440 OFFCURVE",
"194 454 OFFCURVE",
"233 454 CURVE",
"273 454 OFFCURVE",
"306 441 OFFCURVE",
"334 416 CURVE",
"383 461 LINE",
"391 469 OFFCURVE",
"402 468 OFFCURVE",
"409 460 CURVE",
"416 452 OFFCURVE",
"415 442 OFFCURVE",
"407 435 CURVE",
"356 389 LINE",
"373 363 OFFCURVE",
"382 336 OFFCURVE",
"382 306 CURVE",
"382 295 LINE",
"382 263 OFFCURVE",
"373 236 OFFCURVE",
"357 210 CURVE",
"407 163 LINE"
);
},
{
closed = 1;
nodes = (
"256 174 OFFCURVE",
"281 182 OFFCURVE",
"298 195 CURVE",
"335 218 OFFCURVE",
"347 263 OFFCURVE",
"347 290 CURVE",
"347 306 LINE",
"347 341 OFFCURVE",
"333 378 OFFCURVE",
"297 402 CURVE",
"279 415 OFFCURVE",
"256 423 OFFCURVE",
"232 423 CURVE",
"209 423 OFFCURVE",
"184 415 OFFCURVE",
"167 402 CURVE",
"131 377 OFFCURVE",
"118 341 OFFCURVE",
"118 306 CURVE",
"118 290 LINE",
"118 252 OFFCURVE",
"135 217 OFFCURVE",
"167 195 CURVE",
"185 182 OFFCURVE",
"208 174 OFFCURVE",
"233 174 CURVE"
);
}
);
width = 464;
}
);
unicode = 00A4;
},
{
glyphname = dollar;
lastChange = "2013-12-18 08:31:49 +0400";
layers = (
{
anchors = (
{
name = bottom;
position = "{298, 0}";
},
{
name = top;
position = "{298, 700}";
}
);
layerId = "6A4EEAE7-E2C6-4FA4-83F5-ABDB5FD8E17B";
name = Light;
paths = (
{
closed = 1;
nodes = (
"299 654 LINE SMOOTH",
"299 657 OFFCURVE",
"301 659 OFFCURVE",
"304 659 CURVE SMOOTH",
"376 653 OFFCURVE",
"419 626 OFFCURVE",
"449 606 CURVE SMOOTH",
"460 599 OFFCURVE",
"472 602 OFFCURVE",
"478 612 CURVE",
"484 621 OFFCURVE",
"481 632 OFFCURVE",
"472 638 CURVE SMOOTH",
"440 660 OFFCURVE",
"389 693 OFFCURVE",
"304 699 CURVE SMOOTH",
"301 699 OFFCURVE",
"299 701 OFFCURVE",
"299 704 CURVE SMOOTH",
"299 740 LINE SMOOTH",
"299 751 OFFCURVE",
"291 760 OFFCURVE",
"279 760 CURVE SMOOTH",
"267 760 OFFCURVE",
"259 751 OFFCURVE",
"259 740 CURVE SMOOTH",
"259 704 LINE SMOOTH",
"259 701 OFFCURVE",
"257 700 OFFCURVE",
"254 699 CURVE SMOOTH",
"133 691 OFFCURVE",
"45 605 OFFCURVE",
"45 518 CURVE SMOOTH",
"45 411 OFFCURVE",
"158 376 OFFCURVE",
"255 350 CURVE SMOOTH",
"258 349 OFFCURVE",
"259 347 OFFCURVE",
"259 344 CURVE SMOOTH",
"259 47 LINE SMOOTH",
"259 43 OFFCURVE",
"257 42 OFFCURVE",
"254 42 CURVE SMOOTH",
"177 50 OFFCURVE",
"116 78 OFFCURVE",
"72 117 CURVE SMOOTH",
"64 124 OFFCURVE",
"53 125 OFFCURVE",
"45 117 CURVE SMOOTH",
"36 108 OFFCURVE",
"36 96 OFFCURVE",
"45 87 CURVE",
"95 44 OFFCURVE",
"168 10 OFFCURVE",
"254 2 CURVE SMOOTH",
"257 2 OFFCURVE",
"259 0 OFFCURVE",
"259 -3 CURVE SMOOTH",
"259 -80 LINE SMOOTH",
"259 -91 OFFCURVE",
"267 -100 OFFCURVE",
"279 -100 CURVE SMOOTH",
"291 -100 OFFCURVE",
"299 -91 OFFCURVE",
"299 -80 CURVE SMOOTH",
"299 -5 LINE SMOOTH",
"299 -2 OFFCURVE",
"301 0 OFFCURVE",
"304 0 CURVE SMOOTH",
"415 4 OFFCURVE",
"534 80 OFFCURVE",
"534 192 CURVE SMOOTH",
"534 310 OFFCURVE",
"411 347 OFFCURVE",
"308 376 CURVE SMOOTH",
"303 377 LINE SMOOTH",
"300 378 OFFCURVE",
"299 380 OFFCURVE",
"299 383 CURVE SMOOTH"
);
},
{
closed = 1;
nodes = (
"259 395 LINE SMOOTH",
"259 392 OFFCURVE",
"257 390 OFFCURVE",
"253 391 CURVE SMOOTH",
"167 415 OFFCURVE",
"85 443 OFFCURVE",
"85 518 CURVE SMOOTH",
"85 586 OFFCURVE",
"150 652 OFFCURVE",
"254 659 CURVE SMOOTH",
"257 660 OFFCURVE",
"259 658 OFFCURVE",
"259 654 CURVE SMOOTH"
);
},
{
closed = 1;
nodes = (
"299 332 LINE SMOOTH",
"299 335 OFFCURVE",
"301 337 OFFCURVE",
"305 336 CURVE SMOOTH",
"405 308 OFFCURVE",
"494 278 OFFCURVE",
"494 192 CURVE SMOOTH",
"494 106 OFFCURVE",
"403 44 OFFCURVE",
"304 40 CURVE SMOOTH",
"301 40 OFFCURVE",
"299 42 OFFCURVE",
"299 45 CURVE SMOOTH"
);
}
);
width = 596;
}
);
unicode = 0024;
},
{
glyphname = euro;
lastChange = "2013-12-18 08:31:49 +0400";
layers = (
{
layerId = "6A4EEAE7-E2C6-4FA4-83F5-ABDB5FD8E17B";
name = Light;
paths = (
{
closed = 1;
nodes = (
"521 -10 OFFCURVE",
"589 44 OFFCURVE",
"641 118 CURVE SMOOTH",
"649 129 OFFCURVE",
"646 142 OFFCURVE",
"635 150 CURVE SMOOTH",
"624 157 OFFCURVE",
"610 153 OFFCURVE",
"602 141 CURVE SMOOTH",
"556 77 OFFCURVE",
"501 36 OFFCURVE",
"422 36 CURVE SMOOTH",
"312 36 OFFCURVE",
"227 117 OFFCURVE",
"194 239 CURVE SMOOTH",
"194 243 OFFCURVE",
"195 245 OFFCURVE",
"199 245 CURVE SMOOTH",
"454 245 LINE SMOOTH",
"468 245 OFFCURVE",
"479 255 OFFCURVE",
"479 269 CURVE SMOOTH",
"479 283 OFFCURVE",
"468 293 OFFCURVE",
"454 293 CURVE SMOOTH",
"189 293 LINE SMOOTH",
"186 293 OFFCURVE",
"184 295 OFFCURVE",
"184 298 CURVE SMOOTH",
"182 315 OFFCURVE",
"181 332 OFFCURVE",
"181 350 CURVE SMOOTH",
"181 352 LINE SMOOTH",
"181 372 OFFCURVE",
"183 394 OFFCURVE",
"185 411 CURVE SMOOTH",
"186 414 OFFCURVE",
"188 416 OFFCURVE",
"191 416 CURVE SMOOTH",
"454 416 LINE SMOOTH",
"468 416 OFFCURVE",
"479 426 OFFCURVE",
"479 440 CURVE SMOOTH",
"479 454 OFFCURVE",
"468 464 OFFCURVE",
"454 464 CURVE SMOOTH",
"201 464 LINE SMOOTH",
"197 464 OFFCURVE",
"196 466 OFFCURVE",
"197 470 CURVE SMOOTH",
"231 585 OFFCURVE",
"311 664 OFFCURVE",
"410 664 CURVE SMOOTH",
"496 664 OFFCURVE",
"548 630 OFFCURVE",
"597 565 CURVE SMOOTH",
"606 554 OFFCURVE",
"620 551 OFFCURVE",
"632 559 CURVE SMOOTH",
"644 566 OFFCURVE",
"646 581 OFFCURVE",
"637 593 CURVE SMOOTH",
"586 662 OFFCURVE",
"518 710 OFFCURVE",
"412 710 CURVE SMOOTH",
"284 710 OFFCURVE",
"182 609 OFFCURVE",
"145 468 CURVE SMOOTH",
"144 465 OFFCURVE",
"143 464 OFFCURVE",
"140 464 CURVE SMOOTH",
"75 464 LINE SMOOTH",
"61 464 OFFCURVE",
"50 454 OFFCURVE",
"50 440 CURVE SMOOTH",
"50 426 OFFCURVE",
"61 416 OFFCURVE",
"75 416 CURVE SMOOTH",
"130 416 LINE SMOOTH",
"133 416 OFFCURVE",
"135 414 OFFCURVE",
"134 411 CURVE SMOOTH",
"132 393 OFFCURVE",
"130 371 OFFCURVE",
"130 350 CURVE SMOOTH",
"130 348 LINE SMOOTH",
"130 331 OFFCURVE",
"131 315 OFFCURVE",
"132 298 CURVE SMOOTH",
"133 295 OFFCURVE",
"131 293 OFFCURVE",
"128 293 CURVE SMOOTH",
"75 293 LINE SMOOTH",
"61 293 OFFCURVE",
"50 283 OFFCURVE",
"50 269 CURVE SMOOTH",
"50 255 OFFCURVE",
"61 245 OFFCURVE",
"75 245 CURVE SMOOTH",
"136 245 LINE SMOOTH",
"139 245 OFFCURVE",
"140 244 OFFCURVE",
"141 241 CURVE SMOOTH",
"176 90 OFFCURVE",
"282 -10 OFFCURVE",
"419 -10 CURVE SMOOTH"
);
}
);
width = 696;
}
);
unicode = 20AC;
},
{
glyphname = sterling;
lastChange = "2013-12-18 08:31:49 +0400";
layers = (
{
layerId = "6A4EEAE7-E2C6-4FA4-83F5-ABDB5FD8E17B";
name = Light;
paths = (
{
closed = 1;
nodes = (
"50 5 OFFCURVE",
"59 0 OFFCURVE",
"70 0 CURVE SMOOTH",
"536 0 LINE SMOOTH",
"550 0 OFFCURVE",
"561 10 OFFCURVE",
"561 24 CURVE SMOOTH",
"561 37 OFFCURVE",
"550 47 OFFCURVE",
"535 47 CURVE SMOOTH",
"192 47 LINE SMOOTH",
"189 47 OFFCURVE",
"187 49 OFFCURVE",
"187 52 CURVE SMOOTH",
"187 300 LINE SMOOTH",
"187 303 OFFCURVE",
"189 305 OFFCURVE",
"192 305 CURVE SMOOTH",
"460 305 LINE SMOOTH",
"474 305 OFFCURVE",
"485 315 OFFCURVE",
"485 329 CURVE SMOOTH",
"485 343 OFFCURVE",
"474 353 OFFCURVE",
"460 353 CURVE SMOOTH",
"192 353 LINE SMOOTH",
"189 353 OFFCURVE",
"187 355 OFFCURVE",
"187 358 CURVE SMOOTH",
"187 472 LINE SMOOTH",
"187 536 OFFCURVE",
"204 587 OFFCURVE",
"237 620 CURVE SMOOTH",
"265 648 OFFCURVE",
"302 663 OFFCURVE",
"350 663 CURVE SMOOTH",
"423 663 OFFCURVE",
"468 633 OFFCURVE",
"505 592 CURVE SMOOTH",
"515 581 OFFCURVE",
"529 579 OFFCURVE",
"540 588 CURVE SMOOTH",
"541 589 LINE SMOOTH",
"553 597 OFFCURVE",
"554 613 OFFCURVE",
"544 624 CURVE SMOOTH",
"500 674 OFFCURVE",
"443 710 OFFCURVE",
"351 710 CURVE SMOOTH",
"290 710 OFFCURVE",
"238 689 OFFCURVE",
"201 652 CURVE SMOOTH",
"159 610 OFFCURVE",
"136 546 OFFCURVE",
"136 471 CURVE SMOOTH",
"136 358 LINE SMOOTH",
"136 355 OFFCURVE",
"134 353 OFFCURVE",
"131 353 CURVE SMOOTH",
"75 353 LINE SMOOTH",
"61 353 OFFCURVE",
"50 343 OFFCURVE",
"50 329 CURVE SMOOTH",
"50 315 OFFCURVE",
"61 305 OFFCURVE",
"75 305 CURVE SMOOTH",
"131 305 LINE SMOOTH",
"134 305 OFFCURVE",
"136 303 OFFCURVE",
"136 300 CURVE SMOOTH",
"136 49 LINE SMOOTH",
"136 46 OFFCURVE",
"135 45 OFFCURVE",
"132 44 CURVE SMOOTH",
"65 28 LINE SMOOTH",
"56 26 OFFCURVE",
"50 20 OFFCURVE",
"50 13 CURVE SMOOTH"
);
}
);
width = 611;
}
);
unicode = 00A3;
},
{
glyphname = yen;
lastChange = "2013-12-18 08:31:49 +0400";
layers = (
{
anchors = (
{
name = top;
position = "{304, 700}";
}
);
layerId = "6A4EEAE7-E2C6-4FA4-83F5-ABDB5FD8E17B";
name = Light;
paths = (
{
closed = 1;
nodes = (
"539 707 OFFCURVE",
"527 705 OFFCURVE",
"520 695 CURVE SMOOTH",
"307 404 LINE",
"304 401 OFFCURVE",
"302 401 OFFCURVE",
"299 404 CURVE",
"86 695 LINE SMOOTH",
"79 705 OFFCURVE",
"67 707 OFFCURVE",
"58 700 CURVE SMOOTH",
"49 693 OFFCURVE",
"47 681 OFFCURVE",
"54 672 CURVE SMOOTH",
"265 384 LINE SMOOTH",
"267 381 OFFCURVE",
"266 378 OFFCURVE",
"262 378 CURVE SMOOTH",
"100 378 LINE SMOOTH",
"86 378 OFFCURVE",
"76 372 OFFCURVE",
"76 358 CURVE SMOOTH",
"76 357 LINE SMOOTH",
"76 343 OFFCURVE",
"86 337 OFFCURVE",
"100 337 CURVE SMOOTH",
"278 337 LINE SMOOTH",
"281 337 OFFCURVE",
"283 335 OFFCURVE",
"283 332 CURVE SMOOTH",
"283 213 LINE SMOOTH",
"283 210 OFFCURVE",
"281 208 OFFCURVE",
"278 208 CURVE SMOOTH",
"99 208 LINE SMOOTH",
"85 208 OFFCURVE",
"76 202 OFFCURVE",
"76 188 CURVE SMOOTH",
"76 187 LINE SMOOTH",
"76 173 OFFCURVE",
"85 167 OFFCURVE",
"99 167 CURVE SMOOTH",
"278 167 LINE SMOOTH",
"281 167 OFFCURVE",
"283 165 OFFCURVE",
"283 162 CURVE SMOOTH",
"283 20 LINE SMOOTH",
"283 9 OFFCURVE",
"291 0 OFFCURVE",
"303 0 CURVE SMOOTH",
"314 0 OFFCURVE",
"323 9 OFFCURVE",
"323 20 CURVE SMOOTH",
"323 162 LINE SMOOTH",
"323 165 OFFCURVE",
"325 167 OFFCURVE",
"328 167 CURVE SMOOTH",
"507 167 LINE SMOOTH",
"521 167 OFFCURVE",
"530 173 OFFCURVE",
"530 187 CURVE SMOOTH",
"530 188 LINE SMOOTH",
"530 202 OFFCURVE",
"521 208 OFFCURVE",
"506 208 CURVE SMOOTH",
"328 208 LINE SMOOTH",
"325 208 OFFCURVE",
"323 210 OFFCURVE",
"323 213 CURVE SMOOTH",
"323 332 LINE SMOOTH",
"323 335 OFFCURVE",
"325 337 OFFCURVE",
"328 337 CURVE SMOOTH",
"507 337 LINE SMOOTH",
"521 337 OFFCURVE",
"530 343 OFFCURVE",
"530 357 CURVE SMOOTH",
"530 358 LINE SMOOTH",
"530 372 OFFCURVE",
"521 378 OFFCURVE",
"506 378 CURVE SMOOTH",
"344 378 LINE SMOOTH",
"340 378 OFFCURVE",
"339 381 OFFCURVE",
"341 384 CURVE SMOOTH",
"553 672 LINE",
"559 682 OFFCURVE",
"558 693 OFFCURVE",
"549 700 CURVE"
);
}
);
width = 607;
}
);
unicode = 00A5;
},
{
glyphname = Ohm;
lastChange = "2013-12-18 08:31:49 +0400";
layers = (
{
layerId = "6A4EEAE7-E2C6-4FA4-83F5-ABDB5FD8E17B";
name = Light;
paths = (
{
closed = 1;
nodes = (
"474 678 OFFCURVE",
"572 551 OFFCURVE",
"572 398 CURVE SMOOTH",
"572 235 OFFCURVE",
"490 123 OFFCURVE",
"426 37 CURVE SMOOTH",
"425 35 OFFCURVE",
"426 33 OFFCURVE",
"428 33 CURVE SMOOTH",
"561 33 LINE SMOOTH",
"570 33 OFFCURVE",
"576 25 OFFCURVE",
"576 17 CURVE SMOOTH",
"576 9 OFFCURVE",
"570 0 OFFCURVE",
"561 0 CURVE SMOOTH",
"408 0 LINE SMOOTH",
"398 0 OFFCURVE",
"392 6 OFFCURVE",
"392 16 CURVE SMOOTH",
"392 42 LINE SMOOTH",
"392 44 OFFCURVE",
"392 47 OFFCURVE",
"394 50 CURVE",
"494 174 OFFCURVE",
"537 273 OFFCURVE",
"537 396 CURVE SMOOTH",
"537 530 OFFCURVE",
"455 646 OFFCURVE",
"308 646 CURVE SMOOTH",
"160 646 OFFCURVE",
"79 530 OFFCURVE",
"79 396 CURVE SMOOTH",
"79 274 OFFCURVE",
"121 174 OFFCURVE",
"221 49 CURVE",
"223 47 OFFCURVE",
"223 44 OFFCURVE",
"223 42 CURVE SMOOTH",
"223 16 LINE SMOOTH",
"223 6 OFFCURVE",
"217 0 OFFCURVE",
"207 0 CURVE SMOOTH",
"55 0 LINE SMOOTH",
"46 0 OFFCURVE",
"40 9 OFFCURVE",
"40 17 CURVE SMOOTH",
"40 25 OFFCURVE",
"46 33 OFFCURVE",
"55 33 CURVE SMOOTH",
"188 33 LINE SMOOTH",
"190 33 OFFCURVE",
"191 35 OFFCURVE",
"190 37 CURVE SMOOTH",
"122 129 OFFCURVE",
"44 235 OFFCURVE",
"44 400 CURVE SMOOTH",
"44 551 OFFCURVE",
"141 678 OFFCURVE",
"308 678 CURVE SMOOTH"
);
}
);
width = 616;
}
);
unicode = 2126;
},
{
glyphname = approxequal;
lastChange = "2013-12-18 08:31:49 +0400";
layers = (
{
layerId = "6A4EEAE7-E2C6-4FA4-83F5-ABDB5FD8E17B";
name = Light;
paths = (
{
closed = 1;
nodes = (
"400 264 OFFCURVE",
"428 275 OFFCURVE",
"451 297 CURVE SMOOTH",
"456 303 OFFCURVE",
"458 308 OFFCURVE",
"458 316 CURVE SMOOTH",
"458 327 LINE SMOOTH",
"458 339 OFFCURVE",
"450 340 OFFCURVE",
"440 330 CURVE SMOOTH",
"418 310 OFFCURVE",
"392 299 OFFCURVE",
"368 299 CURVE SMOOTH",
"293 299 OFFCURVE",
"215 350 OFFCURVE",
"141 350 CURVE SMOOTH",
"113 350 OFFCURVE",
"80 339 OFFCURVE",
"57 313 CURVE SMOOTH",
"52 307 OFFCURVE",
"50 302 OFFCURVE",
"50 295 CURVE SMOOTH",
"50 286 LINE SMOOTH",
"50 275 OFFCURVE",
"58 275 OFFCURVE",
"68 284 CURVE SMOOTH",
"91 305 OFFCURVE",
"117 314 OFFCURVE",
"143 314 CURVE SMOOTH",
"217 314 OFFCURVE",
"289 264 OFFCURVE",
"366 264 CURVE SMOOTH"
);
},
{
closed = 1;
nodes = (
"400 144 OFFCURVE",
"428 155 OFFCURVE",
"451 178 CURVE SMOOTH",
"456 183 OFFCURVE",
"458 188 OFFCURVE",
"458 196 CURVE SMOOTH",
"458 208 LINE SMOOTH",
"458 219 OFFCURVE",
"450 220 OFFCURVE",
"441 211 CURVE SMOOTH",
"418 191 OFFCURVE",
"392 180 OFFCURVE",
"368 180 CURVE SMOOTH",
"293 180 OFFCURVE",
"215 231 OFFCURVE",
"141 231 CURVE SMOOTH",
"113 231 OFFCURVE",
"80 220 OFFCURVE",
"57 195 CURVE SMOOTH",
"52 189 OFFCURVE",
"50 184 OFFCURVE",
"50 177 CURVE SMOOTH",
"50 167 LINE SMOOTH",
"50 156 OFFCURVE",
"58 156 OFFCURVE",
"68 165 CURVE SMOOTH",
"91 186 OFFCURVE",
"117 196 OFFCURVE",
"143 196 CURVE SMOOTH",
"217 196 OFFCURVE",
"289 144 OFFCURVE",
"366 144 CURVE SMOOTH"
);
}
);
width = 508;
}
);
unicode = 2248;
},
{
glyphname = asciitilde;
lastChange = "2013-12-18 08:31:49 +0400";
layers = (
{
layerId = "6A4EEAE7-E2C6-4FA4-83F5-ABDB5FD8E17B";
name = Light;
paths = (
{
closed = 1;
nodes = (
"314 207 OFFCURVE",
"342 245 OFFCURVE",
"330 299 CURVE SMOOTH",
"328 308 OFFCURVE",
"321 314 OFFCURVE",
"313 314 CURVE SMOOTH",
"300 314 OFFCURVE",
"293 304 OFFCURVE",
"292 291 CURVE SMOOTH",
"291 264 OFFCURVE",
"279 253 OFFCURVE",
"258 253 CURVE SMOOTH",
"238 253 OFFCURVE",
"223 264 OFFCURVE",
"199 281 CURVE",
"173 298 OFFCURVE",
"152 313 OFFCURVE",
"118 313 CURVE SMOOTH",
"69 313 OFFCURVE",
"40 273 OFFCURVE",
"53 220 CURVE SMOOTH",
"55 212 OFFCURVE",
"61 207 OFFCURVE",
"68 207 CURVE SMOOTH",
"81 207 OFFCURVE",
"88 217 OFFCURVE",
"89 231 CURVE SMOOTH",
"90 255 OFFCURVE",
"103 266 OFFCURVE",
"123 266 CURVE SMOOTH",
"145 266 OFFCURVE",
"162 253 OFFCURVE",
"187 237 CURVE SMOOTH",
"211 222 OFFCURVE",
"232 207 OFFCURVE",
"261 207 CURVE SMOOTH"
);
}
);
width = 383;
}
);
unicode = 007E;
},
{
glyphname = bulletoperator;
lastChange = "2013-12-22 07:49:24 +0400";
layers = (
{
layerId = "6A4EEAE7-E2C6-4FA4-83F5-ABDB5FD8E17B";
name = Light;
paths = (
{
closed = 1;
nodes = (
"117 257 OFFCURVE",
"137 277 OFFCURVE",
"137 301 CURVE SMOOTH",
"137 324 OFFCURVE",
"117 344 OFFCURVE",
"94 344 CURVE SMOOTH",
"70 344 OFFCURVE",
"50 324 OFFCURVE",
"50 301 CURVE SMOOTH",
"50 277 OFFCURVE",
"70 257 OFFCURVE",
"94 257 CURVE SMOOTH"
);
}
);
width = 187;
}
);
unicode = 2219;
},
{
glyphname = divide;
lastChange = "2013-12-18 08:31:49 +0400";
layers = (
{
layerId = "6A4EEAE7-E2C6-4FA4-83F5-ABDB5FD8E17B";
name = Light;
paths = (
{
closed = 1;
nodes = (
"243 55 OFFCURVE",
"258 40 OFFCURVE",
"277 40 CURVE SMOOTH",
"296 40 OFFCURVE",
"312 55 OFFCURVE",
"312 74 CURVE SMOOTH",
"312 93 OFFCURVE",
"296 109 OFFCURVE",
"277 109 CURVE SMOOTH",
"258 109 OFFCURVE",
"243 93 OFFCURVE",
"243 74 CURVE SMOOTH"
);
},
{
closed = 1;
nodes = (
"243 396 OFFCURVE",
"258 381 OFFCURVE",
"277 381 CURVE SMOOTH",
"296 381 OFFCURVE",
"312 396 OFFCURVE",
"312 415 CURVE SMOOTH",
"312 435 OFFCURVE",
"296 451 OFFCURVE",
"277 451 CURVE SMOOTH",
"258 451 OFFCURVE",
"243 435 OFFCURVE",
"243 415 CURVE SMOOTH"
);
},
{
closed = 1;
nodes = (
"75 274 LINE SMOOTH",
"61 274 OFFCURVE",
"50 263 OFFCURVE",
"50 249 CURVE SMOOTH",
"50 248 LINE SMOOTH",
"50 234 OFFCURVE",
"61 223 OFFCURVE",
"75 223 CURVE SMOOTH",
"479 223 LINE SMOOTH",
"493 223 OFFCURVE",
"504 234 OFFCURVE",
"504 248 CURVE SMOOTH",
"504 249 LINE SMOOTH",
"504 263 OFFCURVE",
"493 274 OFFCURVE",
"478 274 CURVE SMOOTH"
);
}
);
width = 554;
}
);
unicode = 00F7;
},
{
glyphname = divisionslash;
lastChange = "2013-12-22 07:55:30 +0400";
layers = (
{
layerId = "6A4EEAE7-E2C6-4FA4-83F5-ABDB5FD8E17B";
name = Light;
paths = (
{
closed = 1;
nodes = (
"484 798 LINE SMOOTH",
"473 798 OFFCURVE",
"466 794 OFFCURVE",
"461 784 CURVE SMOOTH",
"8 -104 LINE SMOOTH",
"1 -118 OFFCURVE",
"7 -128 OFFCURVE",
"23 -128 CURVE SMOOTH",
"29 -128 LINE SMOOTH",
"40 -128 OFFCURVE",
"47 -124 OFFCURVE",
"52 -114 CURVE SMOOTH",
"505 774 LINE SMOOTH",
"512 788 OFFCURVE",
"507 798 OFFCURVE",
"493 798 CURVE SMOOTH"
);
}
);
width = 513.141;
}
);
unicode = 2215;
},
{
glyphname = emptyset;
lastChange = "2013-12-18 08:31:49 +0400";
layers = (
{
layerId = "6A4EEAE7-E2C6-4FA4-83F5-ABDB5FD8E17B";
name = Light;
paths = (
{
closed = 1;
nodes = (
"549 521 OFFCURVE",
"537 521 OFFCURVE",
"528 513 CURVE",
"470 457 LINE SMOOTH",
"467 454 OFFCURVE",
"465 454 OFFCURVE",
"463 457 CURVE SMOOTH",
"418 499 OFFCURVE",
"359 525 OFFCURVE",
"295 525 CURVE SMOOTH",
"156 525 OFFCURVE",
"43 405 OFFCURVE",
"43 257 CURVE SMOOTH",
"43 197 OFFCURVE",
"61 142 OFFCURVE",
"93 98 CURVE SMOOTH",
"95 95 OFFCURVE",
"95 93 OFFCURVE",
"92 91 CURVE SMOOTH",
"32 32 LINE SMOOTH",
"23 23 OFFCURVE",
"23 11 OFFCURVE",
"31 3 CURVE",
"39 -6 OFFCURVE",
"51 -6 OFFCURVE",
"60 3 CURVE SMOOTH",
"118 60 LINE SMOOTH",
"121 62 OFFCURVE",
"123 62 OFFCURVE",
"126 60 CURVE SMOOTH",
"170 16 OFFCURVE",
"230 -10 OFFCURVE",
"295 -10 CURVE SMOOTH",
"434 -10 OFFCURVE",
"546 110 OFFCURVE",
"546 257 CURVE SMOOTH",
"546 318 OFFCURVE",
"527 374 OFFCURVE",
"495 419 CURVE SMOOTH",
"493 421 OFFCURVE",
"494 424 OFFCURVE",
"496 426 CURVE SMOOTH",
"556 484 LINE SMOOTH",
"565 493 OFFCURVE",
"565 505 OFFCURVE",
"557 513 CURVE SMOOTH"
);
},
{
closed = 1;
nodes = (
"83 383 OFFCURVE",
"179 485 OFFCURVE",
"295 485 CURVE SMOOTH",
"348 485 OFFCURVE",
"396 464 OFFCURVE",
"434 429 CURVE SMOOTH",
"436 426 OFFCURVE",
"436 424 OFFCURVE",
"434 422 CURVE SMOOTH",
"129 126 LINE SMOOTH",
"126 124 OFFCURVE",
"124 124 OFFCURVE",
"122 127 CURVE SMOOTH",
"97 164 OFFCURVE",
"83 209 OFFCURVE",
"83 257 CURVE"
);
},
{
closed = 1;
nodes = (
"506 132 OFFCURVE",
"411 30 OFFCURVE",
"295 30 CURVE SMOOTH",
"241 30 OFFCURVE",
"192 52 OFFCURVE",
"154 88 CURVE SMOOTH",
"152 90 OFFCURVE",
"152 92 OFFCURVE",
"154 95 CURVE SMOOTH",
"459 390 LINE SMOOTH",
"462 393 OFFCURVE",
"465 393 OFFCURVE",
"466 390 CURVE SMOOTH",
"491 352 OFFCURVE",
"506 307 OFFCURVE",
"506 257 CURVE SMOOTH"
);
}
);
width = 587.881;
}
);
unicode = 2205;
},
{
glyphname = equal;
lastChange = "2013-12-18 08:31:49 +0400";
layers = (
{
layerId = "6A4EEAE7-E2C6-4FA4-83F5-ABDB5FD8E17B";
name = Light;
paths = (
{
closed = 1;
nodes = (
"75 490 LINE SMOOTH",
"61 490 OFFCURVE",
"50 479 OFFCURVE",
"50 465 CURVE SMOOTH",
"50 464 LINE SMOOTH",
"50 450 OFFCURVE",
"61 439 OFFCURVE",
"75 439 CURVE SMOOTH",
"479 439 LINE SMOOTH",
"493 439 OFFCURVE",
"504 450 OFFCURVE",
"504 464 CURVE SMOOTH",
"504 465 LINE SMOOTH",
"504 479 OFFCURVE",
"493 490 OFFCURVE",
"478 490 CURVE SMOOTH"
);
},
{
closed = 1;
nodes = (
"75 265 LINE SMOOTH",
"61 265 OFFCURVE",
"50 254 OFFCURVE",
"50 240 CURVE SMOOTH",
"50 239 LINE SMOOTH",
"50 225 OFFCURVE",
"61 214 OFFCURVE",
"75 214 CURVE SMOOTH",
"479 214 LINE SMOOTH",
"493 214 OFFCURVE",
"504 225 OFFCURVE",
"504 239 CURVE SMOOTH",
"504 240 LINE SMOOTH",
"504 254 OFFCURVE",
"493 265 OFFCURVE",
"478 265 CURVE SMOOTH"
);
}
);
width = 554;
}
);
unicode = 003D;
},
{
glyphname = greater;
lastChange = "2013-12-18 08:31:49 +0400";
layers = (
{
layerId = "6A4EEAE7-E2C6-4FA4-83F5-ABDB5FD8E17B";
name = Light;
paths = (
{
closed = 1;
nodes = (
"60 608 OFFCURVE",
"50 602 OFFCURVE",
"50 586 CURVE SMOOTH",
"50 575 LINE SMOOTH",
"50 564 OFFCURVE",
"54 557 OFFCURVE",
"64 552 CURVE SMOOTH",
"446 356 LINE SMOOTH",
"450 355 OFFCURVE",
"450 351 OFFCURVE",
"446 350 CURVE SMOOTH",
"64 152 LINE SMOOTH",
"54 147 OFFCURVE",
"50 140 OFFCURVE",
"50 129 CURVE SMOOTH",
"50 118 LINE SMOOTH",
"50 102 OFFCURVE",
"60 96 OFFCURVE",
"74 103 CURVE SMOOTH",
"500 325 LINE SMOOTH",
"510 330 OFFCURVE",
"514 337 OFFCURVE",
"514 348 CURVE SMOOTH",
"514 356 LINE SMOOTH",
"514 367 OFFCURVE",
"510 374 OFFCURVE",
"500 379 CURVE SMOOTH",
"74 601 LINE SMOOTH"
);
}
);
width = 564;
}
);
unicode = 003E;
},
{
glyphname = greaterequal;
lastChange = "2013-12-18 08:31:49 +0400";
layers = (
{
layerId = "6A4EEAE7-E2C6-4FA4-83F5-ABDB5FD8E17B";
name = Light;
paths = (
{
closed = 1;
nodes = (
"60 608 OFFCURVE",
"50 602 OFFCURVE",
"50 586 CURVE SMOOTH",
"50 575 LINE SMOOTH",
"50 564 OFFCURVE",
"54 557 OFFCURVE",
"64 552 CURVE SMOOTH",
"446 356 LINE SMOOTH",
"450 355 OFFCURVE",
"450 351 OFFCURVE",
"446 350 CURVE SMOOTH",
"64 152 LINE SMOOTH",
"54 147 OFFCURVE",
"50 140 OFFCURVE",
"50 129 CURVE SMOOTH",
"50 118 LINE SMOOTH",
"50 102 OFFCURVE",
"60 96 OFFCURVE",
"74 103 CURVE SMOOTH",
"500 325 LINE SMOOTH",
"510 330 OFFCURVE",
"514 337 OFFCURVE",
"514 348 CURVE SMOOTH",
"514 356 LINE SMOOTH",
"514 367 OFFCURVE",
"510 374 OFFCURVE",
"500 379 CURVE SMOOTH",
"74 601 LINE SMOOTH"
);
},
{
closed = 1;
nodes = (
"78 51 LINE SMOOTH",
"64 51 OFFCURVE",
"53 40 OFFCURVE",
"53 26 CURVE SMOOTH",
"53 25 LINE SMOOTH",
"53 11 OFFCURVE",
"64 0 OFFCURVE",
"78 0 CURVE SMOOTH",
"499 0 LINE SMOOTH",
"513 0 OFFCURVE",
"524 11 OFFCURVE",
"524 25 CURVE SMOOTH",
"524 26 LINE SMOOTH",
"524 40 OFFCURVE",
"513 51 OFFCURVE",
"498 51 CURVE SMOOTH"
);
}
);
width = 574;
}
);
unicode = 2265;
},
{
glyphname = increment;
lastChange = "2013-12-18 08:31:49 +0400";
layers = (
{
layerId = "6A4EEAE7-E2C6-4FA4-83F5-ABDB5FD8E17B";
name = Light;
paths = (
{
closed = 1;
nodes = (
"360 692 LINE",
"356 699 OFFCURVE",
"349 704 OFFCURVE",
"341 704 CURVE",
"334 704 OFFCURVE",
"326 699 OFFCURVE",
"322 692 CURVE",
"27 29 LINE SMOOTH",
"22 18 OFFCURVE",
"26 7 OFFCURVE",
"37 2 CURVE",
"41 0 OFFCURVE",
"44 0 OFFCURVE",
"48 0 CURVE",
"51 0 LINE",
"631 0 LINE",
"634 0 LINE",
"638 0 OFFCURVE",
"641 0 OFFCURVE",
"645 2 CURVE",
"655 7 OFFCURVE",
"660 18 OFFCURVE",
"655 29 CURVE SMOOTH"
);
},
{
closed = 1;
nodes = (
"338 627 LINE SMOOTH",
"339 631 OFFCURVE",
"343 631 OFFCURVE",
"344 627 CURVE SMOOTH",
"603 46 LINE SMOOTH",
"604 42 OFFCURVE",
"603 40 OFFCURVE",
"599 40 CURVE SMOOTH",
"83 40 LINE SMOOTH",
"79 40 OFFCURVE",
"78 42 OFFCURVE",
"79 46 CURVE SMOOTH"
);
}
);
width = 681.962;
}
);
unicode = 2206;
},
{
glyphname = infinity;
lastChange = "2013-12-18 08:31:49 +0400";
layers = (
{
layerId = "6A4EEAE7-E2C6-4FA4-83F5-ABDB5FD8E17B";
name = Light;
paths = (
{
closed = 1;
nodes = (
"98 339 OFFCURVE",
"152 384 OFFCURVE",
"218 384 CURVE SMOOTH",
"266 384 OFFCURVE",
"305 366 OFFCURVE",
"342 324 CURVE SMOOTH",
"400 257 LINE SMOOTH",
"402 254 OFFCURVE",
"402 252 OFFCURVE",
"400 249 CURVE SMOOTH",
"342 181 LINE",
"304 140 OFFCURVE",
"266 121 OFFCURVE",
"218 121 CURVE SMOOTH",
"152 121 OFFCURVE",
"98 167 OFFCURVE",
"98 252 CURVE SMOOTH"
);
},
{
closed = 1;
nodes = (
"426 218 LINE SMOOTH",
"429 221 OFFCURVE",
"431 221 OFFCURVE",
"434 218 CURVE SMOOTH",
"487 156 LINE SMOOTH",
"528 106 OFFCURVE",
"576 79 OFFCURVE",
"641 79 CURVE SMOOTH",
"740 79 OFFCURVE",
"810 146 OFFCURVE",
"810 252 CURVE SMOOTH",
"810 359 OFFCURVE",
"740 426 OFFCURVE",
"641 426 CURVE SMOOTH",
"576 426 OFFCURVE",
"527 397 OFFCURVE",
"487 350 CURVE SMOOTH",
"434 287 LINE SMOOTH",
"431 285 OFFCURVE",
"429 285 OFFCURVE",
"426 287 CURVE SMOOTH",
"373 350 LINE SMOOTH",
"333 397 OFFCURVE",
"284 426 OFFCURVE",
"219 426 CURVE SMOOTH",
"120 426 OFFCURVE",
"50 359 OFFCURVE",
"50 252 CURVE SMOOTH",
"50 146 OFFCURVE",
"120 79 OFFCURVE",
"219 79 CURVE SMOOTH",
"284 79 OFFCURVE",
"332 106 OFFCURVE",
"373 156 CURVE SMOOTH"
);
},
{
closed = 1;
nodes = (
"762 167 OFFCURVE",
"708 121 OFFCURVE",
"642 121 CURVE SMOOTH",
"594 121 OFFCURVE",
"555 139 OFFCURVE",
"519 181 CURVE SMOOTH",
"460 249 LINE SMOOTH",
"458 252 OFFCURVE",
"458 254 OFFCURVE",
"460 257 CURVE SMOOTH",
"519 324 LINE SMOOTH",
"555 366 OFFCURVE",
"594 384 OFFCURVE",
"642 384 CURVE SMOOTH",
"708 384 OFFCURVE",
"762 339 OFFCURVE",
"762 252 CURVE SMOOTH"
);
}
);
width = 860;
}
);
unicode = 221E;
},
{
glyphname = integral;
lastChange = "2013-12-18 08:31:49 +0400";
layers = (
{
layerId = "6A4EEAE7-E2C6-4FA4-83F5-ABDB5FD8E17B";
name = Light;
paths = (
{
closed = 1;
nodes = (
"209 -31 LINE SMOOTH",
"209 -100 OFFCURVE",
"177 -129 OFFCURVE",
"131 -129 CURVE SMOOTH",
"115 -129 OFFCURVE",
"99 -125 OFFCURVE",
"85 -118 CURVE SMOOTH",
"71 -112 OFFCURVE",
"56 -117 OFFCURVE",
"52 -131 CURVE SMOOTH",
"51 -136 LINE SMOOTH",
"49 -145 OFFCURVE",
"52 -154 OFFCURVE",
"61 -158 CURVE SMOOTH",
"81 -167 OFFCURVE",
"105 -173 OFFCURVE",
"130 -173 CURVE SMOOTH",
"200 -173 OFFCURVE",
"260 -133 OFFCURVE",
"260 -34 CURVE SMOOTH",
"260 559 LINE SMOOTH",
"260 628 OFFCURVE",
"292 656 OFFCURVE",
"338 656 CURVE SMOOTH",
"353 656 OFFCURVE",
"369 652 OFFCURVE",
"384 645 CURVE SMOOTH",
"398 639 OFFCURVE",
"413 644 OFFCURVE",
"417 658 CURVE SMOOTH",
"418 663 LINE SMOOTH",
"420 672 OFFCURVE",
"417 681 OFFCURVE",
"409 685 CURVE SMOOTH",
"388 695 OFFCURVE",
"364 700 OFFCURVE",
"339 700 CURVE SMOOTH",
"269 700 OFFCURVE",
"209 661 OFFCURVE",
"209 562 CURVE SMOOTH"
);
}
);
width = 469;
}
);
unicode = 222B;
},
{
glyphname = less;
lastChange = "2013-12-18 08:31:49 +0400";
layers = (
{
layerId = "6A4EEAE7-E2C6-4FA4-83F5-ABDB5FD8E17B";
name = Light;
paths = (
{
closed = 1;
nodes = (
"64 379 LINE SMOOTH",
"54 374 OFFCURVE",
"50 367 OFFCURVE",
"50 356 CURVE SMOOTH",
"50 348 LINE SMOOTH",
"50 337 OFFCURVE",
"54 330 OFFCURVE",
"64 325 CURVE SMOOTH",
"490 103 LINE SMOOTH",
"504 96 OFFCURVE",
"514 102 OFFCURVE",
"514 118 CURVE SMOOTH",
"514 129 LINE SMOOTH",
"514 140 OFFCURVE",
"510 147 OFFCURVE",
"500 152 CURVE SMOOTH",
"118 350 LINE SMOOTH",
"114 351 OFFCURVE",
"114 355 OFFCURVE",
"118 356 CURVE SMOOTH",
"500 552 LINE SMOOTH",
"510 557 OFFCURVE",
"514 564 OFFCURVE",
"514 575 CURVE SMOOTH",
"514 586 LINE SMOOTH",
"514 602 OFFCURVE",
"504 608 OFFCURVE",
"490 601 CURVE SMOOTH"
);
}
);
width = 564;
}
);
unicode = 003C;
},
{
glyphname = lessequal;
lastChange = "2013-12-18 08:31:49 +0400";
layers = (
{
layerId = "6A4EEAE7-E2C6-4FA4-83F5-ABDB5FD8E17B";
name = Light;
paths = (
{
closed = 1;
nodes = (
"60 608 OFFCURVE",
"50 602 OFFCURVE",
"50 586 CURVE SMOOTH",
"50 575 LINE SMOOTH",
"50 564 OFFCURVE",
"54 557 OFFCURVE",
"64 552 CURVE SMOOTH",
"446 356 LINE SMOOTH",
"450 355 OFFCURVE",
"450 351 OFFCURVE",
"446 350 CURVE SMOOTH",
"64 152 LINE SMOOTH",
"54 147 OFFCURVE",
"50 140 OFFCURVE",
"50 129 CURVE SMOOTH",
"50 118 LINE SMOOTH",
"50 102 OFFCURVE",
"60 96 OFFCURVE",
"74 103 CURVE SMOOTH",
"500 325 LINE SMOOTH",
"510 330 OFFCURVE",
"514 337 OFFCURVE",
"514 348 CURVE SMOOTH",
"514 356 LINE SMOOTH",
"514 367 OFFCURVE",
"510 374 OFFCURVE",
"500 379 CURVE SMOOTH",
"74 601 LINE SMOOTH"
);
},
{
closed = 1;
nodes = (
"78 51 LINE SMOOTH",
"64 51 OFFCURVE",
"53 40 OFFCURVE",
"53 26 CURVE SMOOTH",
"53 25 LINE SMOOTH",
"53 11 OFFCURVE",
"64 0 OFFCURVE",
"78 0 CURVE SMOOTH",
"499 0 LINE SMOOTH",
"513 0 OFFCURVE",
"524 11 OFFCURVE",
"524 25 CURVE SMOOTH",
"524 26 LINE SMOOTH",
"524 40 OFFCURVE",
"513 51 OFFCURVE",
"498 51 CURVE SMOOTH"
);
}
);
width = 574;
}
);
unicode = 2264;
},
{
glyphname = logicalnot;
lastChange = "2013-12-18 08:31:49 +0400";
layers = (
{
layerId = "6A4EEAE7-E2C6-4FA4-83F5-ABDB5FD8E17B";
name = Light;
paths = (
{
closed = 1;
nodes = (
"577 352 LINE SMOOTH",
"580 352 OFFCURVE",
"582 350 OFFCURVE",
"582 347 CURVE SMOOTH",
"582 160 LINE SMOOTH",
"582 146 OFFCURVE",
"593 135 OFFCURVE",
"606 135 CURVE SMOOTH",
"620 135 OFFCURVE",
"629 146 OFFCURVE",
"629 161 CURVE SMOOTH",
"629 373 LINE SMOOTH",
"629 387 OFFCURVE",
"618 398 OFFCURVE",
"604 398 CURVE SMOOTH",
"75 398 LINE SMOOTH",
"61 398 OFFCURVE",
"50 387 OFFCURVE",
"50 375 CURVE SMOOTH",
"50 361 OFFCURVE",
"61 352 OFFCURVE",
"75 352 CURVE SMOOTH"
);
}
);
width = 679;
}
);
unicode = 00AC;
},
{
glyphname = micro;
lastChange = "2013-12-18 08:31:49 +0400";
layers = (
{
anchors = (
{
name = bottom;
position = "{270, 525}";
},
{
name = top;
position = "{270, 10}";
}
);
layerId = "6A4EEAE7-E2C6-4FA4-83F5-ABDB5FD8E17B";
name = Light;
paths = (
{
closed = 1;
nodes = (
"435 515 OFFCURVE",
"426 506 OFFCURVE",
"426 495 CURVE SMOOTH",
"426 183 LINE SMOOTH",
"426 99 OFFCURVE",
"337 30 OFFCURVE",
"253 30 CURVE SMOOTH",
"158 30 OFFCURVE",
"120 99 OFFCURVE",
"120 183 CURVE SMOOTH",
"120 495 LINE SMOOTH",
"120 506 OFFCURVE",
"112 515 OFFCURVE",
"100 515 CURVE SMOOTH",
"89 515 OFFCURVE",
"80 506 OFFCURVE",
"80 495 CURVE SMOOTH",
"80 -130 LINE SMOOTH",
"80 -141 OFFCURVE",
"88 -150 OFFCURVE",
"100 -150 CURVE SMOOTH",
"112 -150 OFFCURVE",
"120 -141 OFFCURVE",
"120 -130 CURVE SMOOTH",
"120 41 LINE SMOOTH",
"120 45 OFFCURVE",
"123 46 OFFCURVE",
"126 43 CURVE SMOOTH",
"155 10 OFFCURVE",
"197 -10 OFFCURVE",
"253 -10 CURVE SMOOTH",
"332 -10 OFFCURVE",
"402 37 OFFCURVE",
"420 73 CURVE",
"422 78 OFFCURVE",
"426 75 OFFCURVE",
"426 71 CURVE SMOOTH",
"426 20 LINE SMOOTH",
"426 9 OFFCURVE",
"434 0 OFFCURVE",
"446 0 CURVE SMOOTH",
"457 0 OFFCURVE",
"466 9 OFFCURVE",
"466 20 CURVE SMOOTH",
"466 495 LINE SMOOTH",
"466 506 OFFCURVE",
"458 515 OFFCURVE",
"446 515 CURVE SMOOTH"
);
}
);
width = 536;
}
);
unicode = 00B5;
},
{
glyphname = minus;
lastChange = "2013-12-18 08:31:49 +0400";
layers = (
{
layerId = "6A4EEAE7-E2C6-4FA4-83F5-ABDB5FD8E17B";
name = Light;
paths = (
{
closed = 1;
nodes = (
"75 376 LINE SMOOTH",
"61 376 OFFCURVE",
"50 366 OFFCURVE",
"50 353 CURVE SMOOTH",
"50 339 OFFCURVE",
"61 328 OFFCURVE",
"76 328 CURVE SMOOTH",
"509 328 LINE SMOOTH",
"523 328 OFFCURVE",
"534 338 OFFCURVE",
"534 351 CURVE SMOOTH",
"534 365 OFFCURVE",
"523 376 OFFCURVE",
"509 376 CURVE SMOOTH"
);
}
);
width = 584;
}
);
unicode = 2212;
},
{
glyphname = multiply;
lastChange = "2013-12-18 08:31:49 +0400";
layers = (
{
layerId = "6A4EEAE7-E2C6-4FA4-83F5-ABDB5FD8E17B";
name = Light;
paths = (
{
closed = 1;
nodes = (
"56 120 LINE SMOOTH",
"48 112 OFFCURVE",
"48 102 OFFCURVE",
"54 96 CURVE SMOOTH",
"62 88 OFFCURVE",
"73 88 OFFCURVE",
"80 95 CURVE SMOOTH",
"206 220 LINE SMOOTH",
"209 223 OFFCURVE",
"211 223 OFFCURVE",
"214 220 CURVE SMOOTH",
"343 92 LINE SMOOTH",
"351 84 OFFCURVE",
"361 84 OFFCURVE",
"368 91 CURVE SMOOTH",
"375 99 OFFCURVE",
"375 109 OFFCURVE",
"367 117 CURVE SMOOTH",
"238 245 LINE SMOOTH",
"235 248 OFFCURVE",
"235 250 OFFCURVE",
"238 253 CURVE SMOOTH",
"365 379 LINE SMOOTH",
"372 387 OFFCURVE",
"373 397 OFFCURVE",
"367 403 CURVE SMOOTH",
"359 411 OFFCURVE",
"349 411 OFFCURVE",
"341 403 CURVE SMOOTH",
"214 277 LINE SMOOTH",
"211 274 OFFCURVE",
"209 274 OFFCURVE",
"206 277 CURVE SMOOTH",
"82 400 LINE SMOOTH",
"74 408 OFFCURVE",
"64 408 OFFCURVE",
"57 401 CURVE SMOOTH",
"50 393 OFFCURVE",
"50 383 OFFCURVE",
"58 375 CURVE SMOOTH",
"181 253 LINE SMOOTH",
"184 250 OFFCURVE",
"184 248 OFFCURVE",
"181 245 CURVE SMOOTH"
);
}
);
width = 423;
}
);
unicode = 00D7;
},
{
glyphname = partialdiff;
lastChange = "2013-12-18 08:31:49 +0400";
layers = (
{
layerId = "6A4EEAE7-E2C6-4FA4-83F5-ABDB5FD8E17B";
name = Light;
paths = (
{
closed = 1;
nodes = (
"460 248 LINE",
"460 250 LINE",
"460 256 LINE SMOOTH",
"457 543 OFFCURVE",
"343 653 OFFCURVE",
"195 700 CURVE SMOOTH",
"185 703 OFFCURVE",
"174 698 OFFCURVE",
"171 687 CURVE SMOOTH",
"168 676 OFFCURVE",
"172 666 OFFCURVE",
"184 662 CURVE SMOOTH",
"280 628 OFFCURVE",
"360 573 OFFCURVE",
"397 440 CURVE SMOOTH",
"399 435 OFFCURVE",
"397 434 OFFCURVE",
"394 437 CURVE SMOOTH",
"358 476 OFFCURVE",
"310 500 OFFCURVE",
"255 500 CURVE SMOOTH",
"135 500 OFFCURVE",
"50 388 OFFCURVE",
"50 250 CURVE SMOOTH",
"50 112 OFFCURVE",
"135 0 OFFCURVE",
"255 0 CURVE SMOOTH",
"374 0 OFFCURVE",
"458 109 OFFCURVE",
"460 245 CURVE SMOOTH"
);
},
{
closed = 1;
nodes = (
"158 40 OFFCURVE",
"90 134 OFFCURVE",
"90 250 CURVE SMOOTH",
"90 366 OFFCURVE",
"158 460 OFFCURVE",
"255 460 CURVE SMOOTH",
"351 460 OFFCURVE",
"418 369 OFFCURVE",
"420 255 CURVE SMOOTH",
"420 248 LINE SMOOTH",
"419 133 OFFCURVE",
"352 40 OFFCURVE",
"255 40 CURVE SMOOTH"
);
}
);
width = 510;
}
);
unicode = 2202;
},
{
glyphname = percent;
lastChange = "2013-12-18 08:31:49 +0400";
layers = (
{
layerId = "6A4EEAE7-E2C6-4FA4-83F5-ABDB5FD8E17B";
name = Light;
paths = (
{
closed = 1;
nodes = (
"296 350 OFFCURVE",
"358 435 OFFCURVE",
"358 529 CURVE SMOOTH",
"358 531 LINE SMOOTH",
"358 623 OFFCURVE",
"297 708 OFFCURVE",
"205 708 CURVE SMOOTH",
"112 708 OFFCURVE",
"50 623 OFFCURVE",
"50 529 CURVE SMOOTH",
"50 527 LINE SMOOTH",
"50 434 OFFCURVE",
"111 350 OFFCURVE",
"203 350 CURVE SMOOTH"
);
},
{
closed = 1;
nodes = (
"141 24 LINE SMOOTH",
"131 11 OFFCURVE",
"136 0 OFFCURVE",
"153 0 CURVE SMOOTH",
"162 0 LINE SMOOTH",
"172 0 OFFCURVE",
"180 4 OFFCURVE",
"186 12 CURVE SMOOTH",
"673 676 LINE SMOOTH",
"683 689 OFFCURVE",
"678 700 OFFCURVE",
"661 700 CURVE SMOOTH",
"652 700 LINE SMOOTH",
"642 700 OFFCURVE",
"634 696 OFFCURVE",
"628 688 CURVE SMOOTH"
);
},
{
closed = 1;
nodes = (
"702 -8 OFFCURVE",
"764 77 OFFCURVE",
"764 171 CURVE SMOOTH",
"764 173 LINE SMOOTH",
"764 265 OFFCURVE",
"703 350 OFFCURVE",
"611 350 CURVE SMOOTH",
"518 350 OFFCURVE",
"456 265 OFFCURVE",
"456 171 CURVE SMOOTH",
"456 169 LINE SMOOTH",
"456 76 OFFCURVE",
"517 -8 OFFCURVE",
"609 -8 CURVE SMOOTH"
);
},
{
closed = 1;
nodes = (
"149 393 OFFCURVE",
"102 450 OFFCURVE",
"102 529 CURVE SMOOTH",
"102 531 LINE SMOOTH",
"102 604 OFFCURVE",
"144 665 OFFCURVE",
"203 665 CURVE SMOOTH",
"259 665 OFFCURVE",
"306 607 OFFCURVE",
"306 529 CURVE SMOOTH",
"306 527 LINE SMOOTH",
"306 452 OFFCURVE",
"264 393 OFFCURVE",
"205 393 CURVE SMOOTH"
);
},
{
closed = 1;
nodes = (
"555 35 OFFCURVE",
"508 92 OFFCURVE",
"508 171 CURVE SMOOTH",
"508 173 LINE SMOOTH",
"508 246 OFFCURVE",
"550 307 OFFCURVE",
"609 307 CURVE SMOOTH",
"665 307 OFFCURVE",
"712 249 OFFCURVE",
"712 171 CURVE SMOOTH",
"712 169 LINE SMOOTH",
"712 94 OFFCURVE",
"670 35 OFFCURVE",
"611 35 CURVE SMOOTH"
);
}
);
width = 814;
}
);
unicode = 0025;
},
{
glyphname = perthousand;
lastChange = "2013-12-18 08:31:49 +0400";
layers = (
{
layerId = "6A4EEAE7-E2C6-4FA4-83F5-ABDB5FD8E17B";
name = Light;
paths = (
{
closed = 1;
nodes = (
"296 350 OFFCURVE",
"358 435 OFFCURVE",
"358 529 CURVE SMOOTH",
"358 531 LINE SMOOTH",
"358 623 OFFCURVE",
"297 708 OFFCURVE",
"205 708 CURVE SMOOTH",
"112 708 OFFCURVE",
"50 623 OFFCURVE",
"50 529 CURVE SMOOTH",
"50 527 LINE SMOOTH",
"50 434 OFFCURVE",
"111 350 OFFCURVE",
"203 350 CURVE SMOOTH"
);
},
{
closed = 1;
nodes = (
"141 24 LINE SMOOTH",
"131 11 OFFCURVE",
"136 0 OFFCURVE",
"153 0 CURVE SMOOTH",
"162 0 LINE SMOOTH",
"172 0 OFFCURVE",
"180 4 OFFCURVE",
"186 12 CURVE SMOOTH",
"673 676 LINE SMOOTH",
"683 689 OFFCURVE",
"678 700 OFFCURVE",
"661 700 CURVE SMOOTH",
"652 700 LINE SMOOTH",
"642 700 OFFCURVE",
"634 696 OFFCURVE",
"628 688 CURVE SMOOTH"
);
},
{
closed = 1;
nodes = (
"702 -8 OFFCURVE",
"764 77 OFFCURVE",
"764 171 CURVE SMOOTH",
"764 173 LINE SMOOTH",
"764 265 OFFCURVE",
"703 350 OFFCURVE",
"611 350 CURVE SMOOTH",
"518 350 OFFCURVE",
"456 265 OFFCURVE",
"456 171 CURVE SMOOTH",
"456 169 LINE SMOOTH",
"456 76 OFFCURVE",
"517 -8 OFFCURVE",
"609 -8 CURVE SMOOTH"
);
},
{
closed = 1;
nodes = (
"149 393 OFFCURVE",
"102 450 OFFCURVE",
"102 529 CURVE SMOOTH",
"102 531 LINE SMOOTH",
"102 604 OFFCURVE",
"144 665 OFFCURVE",
"203 665 CURVE SMOOTH",
"259 665 OFFCURVE",
"306 607 OFFCURVE",
"306 529 CURVE SMOOTH",
"306 527 LINE SMOOTH",
"306 452 OFFCURVE",
"264 393 OFFCURVE",
"205 393 CURVE SMOOTH"
);
},
{
closed = 1;
nodes = (
"555 35 OFFCURVE",
"508 92 OFFCURVE",
"508 171 CURVE SMOOTH",
"508 173 LINE SMOOTH",
"508 246 OFFCURVE",
"550 307 OFFCURVE",
"609 307 CURVE SMOOTH",
"665 307 OFFCURVE",
"712 249 OFFCURVE",
"712 171 CURVE SMOOTH",
"712 169 LINE SMOOTH",
"712 94 OFFCURVE",
"670 35 OFFCURVE",
"611 35 CURVE SMOOTH"
);
},
{
closed = 1;
nodes = (
"1062 -8 OFFCURVE",
"1124 77 OFFCURVE",
"1124 171 CURVE SMOOTH",
"1124 173 LINE SMOOTH",
"1124 265 OFFCURVE",
"1063 350 OFFCURVE",
"971 350 CURVE SMOOTH",
"878 350 OFFCURVE",
"816 265 OFFCURVE",
"816 171 CURVE SMOOTH",
"816 169 LINE SMOOTH",
"816 76 OFFCURVE",
"877 -8 OFFCURVE",
"969 -8 CURVE SMOOTH"
);
},
{
closed = 1;
nodes = (
"915 35 OFFCURVE",
"868 92 OFFCURVE",
"868 171 CURVE SMOOTH",
"868 173 LINE SMOOTH",
"868 246 OFFCURVE",
"910 307 OFFCURVE",
"969 307 CURVE SMOOTH",
"1025 307 OFFCURVE",
"1072 249 OFFCURVE",
"1072 171 CURVE SMOOTH",
"1072 169 LINE SMOOTH",
"1072 94 OFFCURVE",
"1030 35 OFFCURVE",
"971 35 CURVE SMOOTH"
);
}
);
width = 1174;
}
);
unicode = 2030;
},
{
glyphname = plus;
lastChange = "2013-12-18 08:31:49 +0400";
layers = (
{
layerId = "6A4EEAE7-E2C6-4FA4-83F5-ABDB5FD8E17B";
name = Light;
paths = (
{
closed = 1;
nodes = (
"267 381 LINE SMOOTH",
"267 378 OFFCURVE",
"265 376 OFFCURVE",
"262 376 CURVE SMOOTH",
"75 376 LINE SMOOTH",
"61 376 OFFCURVE",
"50 366 OFFCURVE",
"50 353 CURVE SMOOTH",
"50 339 OFFCURVE",
"61 328 OFFCURVE",
"75 328 CURVE SMOOTH",
"262 328 LINE SMOOTH",
"265 328 OFFCURVE",
"267 326 OFFCURVE",
"267 323 CURVE SMOOTH",
"267 138 LINE SMOOTH",
"267 124 OFFCURVE",
"277 113 OFFCURVE",
"292 113 CURVE SMOOTH",
"306 113 OFFCURVE",
"317 124 OFFCURVE",
"317 139 CURVE SMOOTH",
"317 323 LINE SMOOTH",
"317 326 OFFCURVE",
"319 328 OFFCURVE",
"322 328 CURVE SMOOTH",
"509 328 LINE SMOOTH",
"523 328 OFFCURVE",
"534 338 OFFCURVE",
"534 351 CURVE SMOOTH",
"534 365 OFFCURVE",
"523 376 OFFCURVE",
"509 376 CURVE SMOOTH",
"322 376 LINE SMOOTH",
"319 376 OFFCURVE",
"317 378 OFFCURVE",
"317 381 CURVE SMOOTH",
"317 566 LINE SMOOTH",
"317 580 OFFCURVE",
"307 591 OFFCURVE",
"292 591 CURVE SMOOTH",
"278 591 OFFCURVE",
"267 580 OFFCURVE",
"267 565 CURVE SMOOTH"
);
}
);
width = 584;
}
);
unicode = 002B;
},
{
glyphname = plusminus;
lastChange = "2013-12-18 08:31:49 +0400";
layers = (
{
layerId = "6A4EEAE7-E2C6-4FA4-83F5-ABDB5FD8E17B";
name = Light;
paths = (
{
closed = 1;
nodes = (
"267 381 LINE SMOOTH",
"267 378 OFFCURVE",
"265 376 OFFCURVE",
"262 376 CURVE SMOOTH",
"75 376 LINE SMOOTH",
"61 376 OFFCURVE",
"50 366 OFFCURVE",
"50 353 CURVE SMOOTH",
"50 339 OFFCURVE",
"61 328 OFFCURVE",
"75 328 CURVE SMOOTH",
"262 328 LINE SMOOTH",
"265 328 OFFCURVE",
"267 326 OFFCURVE",
"267 323 CURVE SMOOTH",
"267 138 LINE SMOOTH",
"267 124 OFFCURVE",
"277 113 OFFCURVE",
"292 113 CURVE SMOOTH",
"306 113 OFFCURVE",
"317 124 OFFCURVE",
"317 139 CURVE SMOOTH",
"317 323 LINE SMOOTH",
"317 326 OFFCURVE",
"319 328 OFFCURVE",
"322 328 CURVE SMOOTH",
"509 328 LINE SMOOTH",
"523 328 OFFCURVE",
"534 338 OFFCURVE",
"534 351 CURVE SMOOTH",
"534 365 OFFCURVE",
"523 376 OFFCURVE",
"509 376 CURVE SMOOTH",
"322 376 LINE SMOOTH",
"319 376 OFFCURVE",
"317 378 OFFCURVE",
"317 381 CURVE SMOOTH",
"317 566 LINE SMOOTH",
"317 580 OFFCURVE",
"307 591 OFFCURVE",
"292 591 CURVE SMOOTH",
"278 591 OFFCURVE",
"267 580 OFFCURVE",
"267 565 CURVE SMOOTH"
);
},
{
closed = 1;
nodes = (
"75 48 LINE SMOOTH",
"61 48 OFFCURVE",
"50 38 OFFCURVE",
"50 25 CURVE SMOOTH",
"50 11 OFFCURVE",
"61 0 OFFCURVE",
"76 0 CURVE SMOOTH",
"509 0 LINE SMOOTH",
"523 0 OFFCURVE",
"534 10 OFFCURVE",
"534 23 CURVE SMOOTH",
"534 37 OFFCURVE",
"523 48 OFFCURVE",
"509 48 CURVE SMOOTH"
);
}
);
width = 584;
}
);
unicode = 00B1;
},
